<svg xmlns="http://www.w3.org/2000/svg" xml:space="preserve" viewBox="0 0 107.9 46.5"><path d="M96.7 46.4a16.4 16.4 0 0 1-12.9-4.3c-1.3-1.3-2-2.4-2.8-4-.6-1.3-1.3-3-1.5-3.9a40.1 40.1 0 0 1-.9-9l.6-4.7 1.2-4A19.2 19.2 0 0 1 85 9.8a20 20 0 0 1 7.7-3.6c1.5-.3 3-.4 5-.3a15.5 15.5 0 0 1 8 2.1 6 6 0 0 1 1.6 1.4c.4.6.5 1.3.5 3.1 0 1.4-.2 2.7-.4 3-.2.3-.5.6-.7.6-.3 0-1-.4-1.9-1-.8-.4-2-1.2-3-1.5a9.8 9.8 0 0 0-3.8-.9c-2 0-2.6 0-4 .5a10.3 10.3 0 0 0-4.9 4.8c-.4.8-1 2.3-1.2 3.3a29.5 29.5 0 0 0 0 10l1.1 3.3c.4.8 1.2 2 1.8 2.5a10 10 0 0 0 2.4 1.7c1 .4 2.1.7 3.5.8 1.5 0 2.5 0 3.8-.3 1-.3 2.7-1 3.9-1.6 1.2-.7 2.4-1.2 2.6-1.2.2 0 .5.3.7.7l.2 3c-.1 2.1-.2 2.4-.9 3.1-.4.4-1.3 1.1-2.1 1.5-.8.4-2.1.9-3 1.1-1 .3-3 .5-5.2.5zm-93.3-2L1 44.2c-.7-.1-1-.3-1-.9 0-.4 0-1 .2-1.6l2.1-6.3a6478.2 6478.2 0 0 0 10.5-30c.1-.2.5-.5.9-.6a34.5 34.5 0 0 1 9 .1c.3.2.7 1 1.2 2.3A1911.1 1911.1 0 0 1 36 43.6c-.1.3-.8.5-1.8.7h-3.7a6.6 6.6 0 0 1-2.4-.5 49 49 0 0 1-1.7-4.5l-1.3-4.1H10L9 39a30 30 0 0 1-1.6 4.4 3 3 0 0 1-1.5.8l-2.5.2zM17.7 29c5.5 0 5.5 0 5.3-.6a1062.1 1062.1 0 0 0-5.3-15.9A334 334 0 0 0 12 28.9c0 .1 2.5.2 5.6.2zm30.6 15c-8.1.1-8.1.1-8.8-.6-.6-.6-.6-.6-.6-19 0-18.5 0-18.5.6-19.1.7-.7.7-.7 7.8-.7 5 0 7.7.1 9 .4 1.1.2 2.6.6 3.3 1a9 9 0 0 1 2.2 1.2c.5.3 1.2 1.1 1.6 1.8a9.3 9.3 0 0 1 1.5 6.2c0 1.1-.2 2.4-.5 3a13 13 0 0 1-1.2 2 8 8 0 0 1-2 1.8c-1.2.7-1.2.7.2 1.3l2.2 1.1 1.5 1.3a10.1 10.1 0 0 1 2.2 5.5c.1 1 0 2.4-.1 3.4-.2.9-.6 2.2-1 3a12 12 0 0 1-1.9 2.5c-.7.6-2 1.6-3 2-.9.5-2.4 1-3.3 1.3-1.3.4-3 .5-9.7.6zm2.4-6c3.2-.2 4.1-.3 5-.7.7-.3 1.7-1 2.1-1.5a5 5 0 0 0 1-2c.1-.5.2-1.5.1-2.2 0-.8-.4-1.7-.8-2.3a5.2 5.2 0 0 0-2-1.7c-1.1-.5-1.7-.6-5.3-.7h-4V38zm-.5-17.3c2.5 0 3.6-.2 4.2-.5.5-.3 1.2-1 1.6-1.5.6-.8.7-1.1.7-3.1 0-1.8 0-2.3-.5-3-.3-.3-1-.9-1.6-1.2-.9-.4-1.6-.6-4.4-.6l-3.4-.1v10.1zM72 19.3h-2.7c-.7-.2-1.7-.4-2.3-.7-.8-.3-1-.6-1.1-1.3-.1-.5-.1-1.2 0-1.6 0-.5.3-.7.6-.6l1.5.6c.6.2 1.8.4 2.7.4 1.3 0 1.8 0 2.3-.6.4-.3.8-1 .9-1.6 0-.8 0-1-.8-1.9-.8-.8-1.1-.9-2.7-1l-2.3-.3c-.3 0-.4-.4-.4-1.3 0-1.4 0-1.4 2-1.5 1.6-.1 2.3-.3 2.7-.7.3-.2.7-.8.8-1.1V4.6c-.2-.5-.6-1-.8-1.2l-1.7-.2c-.6 0-1.7.2-2.5.6l-1.7.7-.2-1.4c0-1.3 0-1.5.7-2A9.2 9.2 0 0 1 72 0c1 0 2.2.2 2.7.3l1.6 1a4.9 4.9 0 0 1 1.2 4.2 6 6 0 0 1-.7 2c-.4.4-1 1-1.5 1.2-.9.5-.9.5 0 .7.4 0 1.1.5 1.6.8.5.4 1 1.1 1.2 1.6.2.5.3 1.3.3 1.9A7 7 0 0 1 78 16c-.4 1-1 1.6-1.7 2-.5.4-1.4.8-1.9 1l-2.2.3z"/></svg>