<svg xmlns="http://www.w3.org/2000/svg" viewBox="0 0 704.7 655.3">
  <path d="m95.4 655-4.8-.4a85.5 85.5 0 0 1-15.4-2.7A59.6 59.6 0 0 1 33 575.6c.9-2.7 4.3-10 5.9-12.4 11.4-17.5 29.8-27.8 53.6-30.2 3.8-.4 13.3-.4 17.3-.1 11.9.9 22 3.5 30.8 8l3.9 1.9v13l-.1 13-5.2-2.6-8.3-3.7c-20.4-8-41.3-7.1-55.6 2.5a34.3 34.3 0 0 0-15 28.5c0 4.8.1 6 .7 8.4a36.3 36.3 0 0 0 25.2 26c6.2 2 13 3 20 2.6a81 81 0 0 0 33.7-10l6.3-3v25.6l-3.1 1.6A96.3 96.3 0 0 1 95.4 655zm83.7.1 3.7-9.4a5092.4 5092.4 0 0 0 12.1-30.1 16372.1 16372.1 0 0 0 28.5-70.5l3.8-9.5h17l17.1.2 16.5 37a4658.7 4658.7 0 0 0 30 67.3l1 2.3 5.2 11.8.5 1h-31.6l-1.3-3.2a1215.3 1215.3 0 0 0-7-16.7l-1.5-4H246l-27 .1-4 10.4c-2.1 5.8-4.2 11.1-4.4 12l-.6 1.5h-15.4c-8.5 0-15.5-.1-15.5-.2zm85.1-44.5-2.6-6.5a690674.7 690674.7 0 0 1-14.3-34.6c-2-4.7-2.3-5.4-2.6-5.4-.3 0 0-.7-3.9 9.4a8337.8 8337.8 0 0 1-13.9 36.7c-.2.6.8.6 18.5.6 10.4 0 18.8-.1 18.8-.2zm78.4-15.2v-59.8h26.5c16.2 0 28.2.1 30.7.3 12.2 1 21.3 5.5 27.8 13.6 2.5 3 5.5 9 6.5 12.8a39.5 39.5 0 0 1 .8 13.5c-.3 2.5-1.4 6.4-2.7 9.5a34.6 34.6 0 0 1-24.3 20.2 88 88 0 0 1-22.5 1.5H372v48.3h-29.4zm49.4-10.3c6.2-1 9.8-3.1 11.7-7a19 19 0 0 0 .1-13.5c-1.4-3-4.4-5-8.3-6.1-3-.9-10-1.5-17-1.5H372v28.5h8.6c5.6 0 9.5-.2 11.4-.4zm73.5 10.3v-59.8h86.7V557l-28.7.1h-28.7v25.8H522l27.3.2v21.4h-54.7v29.1h58.6v21.8h-87.7zm159.8 59.7-4.8-.5A70.3 70.3 0 0 1 603 651c-3-1-11.4-4.8-14.7-6.5l-1.6-1V631l-.2-12.6.8.5c6.6 4.3 15.7 9.2 20.5 11a50.4 50.4 0 0 0 19.1 3.6c9.4 0 14.8-2.2 17.3-7 1-2 1-6 0-8-2.3-4.4-6.8-7-20-11.9-20.4-7.3-27.9-11.8-34.2-20.2a35 35 0 0 1-5.7-22.8c2.2-18.2 17-29.5 40.7-30.8a93 93 0 0 1 39.8 7l5 2v22.6l-.8-.2-1.6-.6c-1.6-.9-12-4.9-15-5.9a66 66 0 0 0-16.5-3.5c-7.8-.8-15.7 1-19 4.3a7.8 7.8 0 0 0-1.7 9c2 3.9 6.7 6.7 20.1 11.7l11.6 4.5c16.6 7.2 24.5 15 27.6 27.6.8 3.4.7 12.5-.2 16-4.5 17.2-20 27-43.8 27.8h-5zM282.1 469.3a364.4 364.4 0 0 1-65-9.2 206 206 0 0 1-55.4-21A147 147 0 0 1 110 388a120 120 0 0 1-10.8-26.3c-.4-1.6-.4-1.7-2.1-2.4a340 340 0 0 1-30-14c-33-18.1-53.5-39.9-62.8-66.8A70.4 70.4 0 0 1 .2 250c1-12 3.7-21.5 9.5-32.7A139.9 139.9 0 0 1 56.4 167a295.4 295.4 0 0 1 104-41c21.8-3.9 45.5-6 74.5-6.6l9.6-.2 4.6-3a654.9 654.9 0 0 1 87.4-48.3A784.7 784.7 0 0 1 540 6c3.1-.4 3.6-.6 5.1-1.8 2.3-1.7 5-2.8 8.7-3.6 3.1-.6 3.3-.6 6.2-.1 9.4 1.7 15.8 9 16.4 18.6.4 5.9-1.7 11.3-6 15.5a18.4 18.4 0 0 1-25.1.8l-1.6-1.4-7.8 1a623.9 623.9 0 0 0-77.7 16 690.8 690.8 0 0 0-145.7 58 306.6 306.6 0 0 0-20.1 11.6c0 .2 2 .4 4.7.7a839.8 839.8 0 0 1 33.2 3.4c8 1 7.3 1 10.7-1 9.8-5.6 24.9-10 47.4-13.5a615.5 615.5 0 0 1 86-6.2 299.6 299.6 0 0 1 64.8 5.8 391 391 0 0 1 32.4 8c32.9 9.9 60 23.9 82.4 42.5a212 212 0 0 1 19.5 19.6 133.5 133.5 0 0 1 29.7 61.2c1.3 7.4 1.5 9.2 1.5 18.1a137 137 0 0 1-50.5 103c-11 9-21.9 15.8-37.7 23.8l-9.4 5c-2 1.8-11 7.9-17.3 11.9-37.7 23.7-95.2 44-157.8 55.6a670.1 670.1 0 0 1-98.4 10.8c-11.4.5-44.2.6-51.5.1zm54.3-27a592.2 592.2 0 0 0 78.4-8.6c20-3.3 40-7.5 57.5-12 11-2.8 11.3-3 3.9-2.6-10.7.7-30.3 1.3-39.5 1.3a856.9 856.9 0 0 1-90.9-5.6 1268.7 1268.7 0 0 1-213.8-43c-.9-.2-.7.2.9 3.3a97.5 97.5 0 0 0 41.2 41.5 170.6 170.6 0 0 0 48.2 17.9c22 5 46.2 7.7 74.7 8.4 7.3.2 29.8-.1 39.4-.6zm114-49.8a710.9 710.9 0 0 0 85-8.3c21.7-3.4 41-8.4 56-14.5 2.9-1.2 4.3-2.2 9.3-7.1a63.1 63.1 0 0 0 21-53c-1.3-12.3-8.4-27.6-20.2-43.3-8.6-11.4-22.1-25-34.9-35.2a303.5 303.5 0 0 0-81.8-45.6 615.5 615.5 0 0 0-138.5-31.7l-20.3-2.2a610 610 0 0 0-75-3.9 374 374 0 0 0-78.3 69.4 280 280 0 0 0-28.3 40.6 299.9 299.9 0 0 0-14.3 30.2l-1.3 3.5c-1.8 4.9-4 12-4.9 16-1.8 8-2.5 20.2-1.7 30l.4 4 2 .8a597.4 597.4 0 0 0 42.8 13.3l22 5.4a1414.4 1414.4 0 0 0 66.5 13.4 1026.7 1026.7 0 0 0 32.3 6 942.6 942.6 0 0 0 83.7 10.8 912 912 0 0 0 42 1.9c8.4.1 26.9-.1 36.5-.5zM346 333.7a58.9 58.9 0 0 1-52.5-70.4 58.7 58.7 0 0 1 113.2-6.4 47 47 0 0 1 2.6 18.5A55.2 55.2 0 0 1 393 316a56.9 56.9 0 0 1-25.7 15.6 64.3 64.3 0 0 1-21.3 2zm302.2-3.4c8.3-9.5 16.8-22 21-31a90.2 90.2 0 0 0 9.4-40c0-13.6-3.1-26.3-9.4-38.9a113.7 113.7 0 0 0-23.3-31.1c-34.2-33.9-85.6-54.6-148.3-59.8-10.8-.9-16-1-29.7-1a320.4 320.4 0 0 0-29.6 1 2046.9 2046.9 0 0 0-48.6 4c-.7.3-.4.8.5.8s3.5.5 16 3A450.3 450.3 0 0 1 525.7 177c16.8 8.4 28 14.8 41.2 23.5a217 217 0 0 1 52.6 46.9c3 3.8 9.4 13.2 11.7 17.3a114 114 0 0 1 14.6 44.3 118.5 118.5 0 0 1-.6 22.5c-.1 1.2 0 2 .1 2 .2 0 1.5-1.4 3-3zm-553-3a155.4 155.4 0 0 1 14.4-60 320.6 320.6 0 0 1 52.8-77.3 518.4 518.4 0 0 1 40.7-40 260.3 260.3 0 0 0-110 27.2c-30 14.9-49.7 31.7-59.4 50.7-3 6-4.6 10.2-5.9 16.3-.7 3.4-.8 4.6-.8 10 0 5 0 6.6.6 9.4a61 61 0 0 0 12.8 26 139 139 0 0 0 13.9 13.9c6 5 12.8 9.7 21.6 15.2A303 303 0 0 0 95 329.5c.1 0 .2-1 .2-2.1z"/>
</svg>
