<?xml version="1.0" encoding="UTF-8" standalone="no"?>
<!-- Created with Inkscape (http://www.inkscape.org/) -->

<svg
   version="1.1"
   id="svg1"
   width="193.30542"
   height="109.3407"
   viewBox="0 0 193.30542 109.3407"
   xmlns="http://www.w3.org/2000/svg"
   xmlns:svg="http://www.w3.org/2000/svg">
  <defs
     id="defs1">
    <clipPath
       clipPathUnits="userSpaceOnUse"
       id="clipPath1276">
      <path
         d="M 0,595.276 H 841.89 V 0 H 0 Z"
         transform="translate(-740.05329,-347.99731)"
         id="path1276" />
    </clipPath>
    <clipPath
       clipPathUnits="userSpaceOnUse"
       id="clipPath1278">
      <path
         d="M 0,595.276 H 841.89 V 0 H 0 Z"
         transform="translate(-755.11584,-336.51241)"
         id="path1278" />
    </clipPath>
    <clipPath
       clipPathUnits="userSpaceOnUse"
       id="clipPath1280">
      <path
         d="M 0,595.276 H 841.89 V 0 H 0 Z"
         transform="translate(-763.63644,-333.28491)"
         id="path1280" />
    </clipPath>
    <clipPath
       clipPathUnits="userSpaceOnUse"
       id="clipPath1282">
      <path
         d="M 0,595.276 H 841.89 V 0 H 0 Z"
         transform="translate(-768.40299,-325.92841)"
         id="path1282" />
    </clipPath>
    <clipPath
       clipPathUnits="userSpaceOnUse"
       id="clipPath1284">
      <path
         d="M 0,595.276 H 841.89 V 0 H 0 Z"
         transform="translate(-755.14509,-318.57251)"
         id="path1284" />
    </clipPath>
    <clipPath
       clipPathUnits="userSpaceOnUse"
       id="clipPath1286">
      <path
         d="M 0,595.276 H 841.89 V 0 H 0 Z"
         transform="translate(-749.54552,-311.21601)"
         id="path1286" />
    </clipPath>
    <clipPath
       clipPathUnits="userSpaceOnUse"
       id="clipPath1288">
      <path
         d="M 0,595.276 H 841.89 V 0 H 0 Z"
         transform="translate(-689.54552,-311.21601)"
         id="path1288" />
    </clipPath>
    <clipPath
       clipPathUnits="userSpaceOnUse"
       id="clipPath1290">
      <path
         d="M 0,595.276 H 841.89 V 0 H 0 Z"
         transform="translate(-728.64714,-312.84051)"
         id="path1290" />
    </clipPath>
    <clipPath
       clipPathUnits="userSpaceOnUse"
       id="clipPath1292">
      <path
         d="M 0,595.276 H 841.89 V 0 H 0 Z"
         transform="translate(-734.97032,-381.23261)"
         id="path1292" />
    </clipPath>
    <clipPath
       clipPathUnits="userSpaceOnUse"
       id="clipPath1294">
      <path
         d="M 0,595.276 H 841.89 V 0 H 0 Z"
         transform="translate(-719.90784,-373.87621)"
         id="path1294" />
    </clipPath>
    <clipPath
       clipPathUnits="userSpaceOnUse"
       id="clipPath1296">
      <path
         d="M 0,595.276 H 841.89 V 0 H 0 Z"
         transform="translate(-713.76624,-366.52021)"
         id="path1296" />
    </clipPath>
    <clipPath
       clipPathUnits="userSpaceOnUse"
       id="clipPath1298">
      <path
         d="M 0,595.276 H 841.89 V 0 H 0 Z"
         transform="translate(-709.00059,-359.16381)"
         id="path1298" />
    </clipPath>
    <clipPath
       clipPathUnits="userSpaceOnUse"
       id="clipPath1300">
      <path
         d="M 0,595.276 H 841.89 V 0 H 0 Z"
         transform="translate(-722.25654,-355.93671)"
         id="path1300" />
    </clipPath>
    <clipPath
       clipPathUnits="userSpaceOnUse"
       id="clipPath1302">
      <path
         d="M 0,595.276 H 841.89 V 0 H 0 Z"
         transform="translate(-726.96549,-373.87621)"
         id="path1302" />
    </clipPath>
  </defs>
  <g
     id="g1334"
     transform="translate(-3117.8173,-279.88588)">
    <path
       id="path1272"
       d="m 15.057633,0.47982656 c 4.851562,0 9.09375,-2.53124996 11.261719,-6.37499996 l -3.023438,-1.7109375 c -1.488281,2.8359375 -4.664062,4.6992187 -8.238281,4.6992187 -6.1171877,0 -10.2070314,-4.4414062 -10.2070314,-10.1367188 0,-5.742187 4.0898437,-10.183594 10.2070314,-10.183594 3.574219,0 6.75,1.863282 8.238281,4.734375 l 3.023438,-1.746093 c -2.203125,-3.84375 -6.457032,-6.339844 -11.261719,-6.339844 -7.9804689,0 -13.6406252,6 -13.6406252,13.535156 0,7.4882813 5.6601563,13.52343756 13.6406252,13.52343756 z M 44.392594,-13.535798 c 1.710937,-1.183594 2.835937,-3.09375 2.835937,-5.4375 0,-4.03125 -3.246093,-7.125 -7.3125,-7.125 H 29.486344 V -6.421875e-4 h 11.25 c 4.21875,0 7.570312,-3.2109375125 7.570312,-7.3828125125 0,-2.8359373 -1.570312,-5.0273433 -3.914062,-6.1523433 z m -4.476563,-9.316407 c 2.167969,0 3.878907,1.792969 3.878907,3.984375 0,2.238282 -1.710938,3.996094 -3.878907,3.996094 h -6.972656 v -7.980469 z m 0.820313,19.6054691 h -7.792969 v -8.4609371 h 7.792969 c 2.308594,0 4.136719,1.8632808 4.136719,4.2187496 0,2.3789062 -1.828125,4.2421875 -4.136719,4.2421875 z M 52.964859,-22.031892 c 1.195313,0 2.15625,-0.972656 2.15625,-2.15625 0,-1.195313 -0.960937,-2.203125 -2.15625,-2.203125 -1.230468,0 -2.203125,1.007812 -2.203125,2.203125 0,1.183594 0.972657,2.15625 2.203125,2.15625 z M 51.324234,-6.421875e-4 h 3.246094 V -18.633455 H 51.324234 Z M 67.531266,0.47982656 c 5.449218,0 9.84375,-4.27734376 9.84375,-9.79687496 0,-5.5195316 -4.394532,-9.8085936 -9.84375,-9.8085936 -5.4375,0 -9.796875,4.289062 -9.796875,9.8085936 0,5.5195312 4.359375,9.79687496 9.796875,9.79687496 z m 0,-3.16406246 c -3.679688,0 -6.550782,-2.8710938 -6.550782,-6.6328125 0,-3.7734376 2.871094,-6.6328126 6.550782,-6.6328126 3.738281,0 6.609375,2.859375 6.609375,6.6328126 0,3.7617187 -2.871094,6.6328125 -6.609375,6.6328125 z M 90.198258,-15.504548 v -3.128907 h -4.957031 v -5.226562 l -3.246094,0.972656 v 4.253906 h -3.691406 v 3.128907 h 3.691406 v 10.1015621 c 0,4.65234371 2.613281,6.15234371 8.203125,5.4023437125 V -2.9068922 c -3.316406,0.1523438 -4.957031,0.3398438 -4.957031,-2.4960937 V -15.504548 Z m 0,0"
       style="fill:#000000;fill-opacity:1;fill-rule:nonzero;stroke:none"
       aria-label="CBiot"
       transform="matrix(1.3333333,0,0,1.3333333,3115.928,355.4032)" />
    <path
       id="path1273"
       d="m 2.2510078,0.07065312 c 0.7148438,0 1.359375,-0.36328125 1.6875,-0.9375 l -0.5625,-0.31640622 c -0.1992187,0.38671872 -0.6328125,0.63281247 -1.125,0.63281247 -0.8554687,0 -1.40624999,-0.59765627 -1.40624999,-1.40624997 0,-0.8085938 0.55078129,-1.40625 1.40624999,-1.40625 0.4921875,0 0.9140625,0.2460937 1.125,0.6328125 l 0.5625,-0.328125 c -0.3398437,-0.5742188 -0.9726562,-0.9375 -1.6875,-0.9375 -1.1953125,0 -2.05078124,0.9023437 -2.05078124,2.0390625 0,1.13671872 0.85546874,2.02734372 2.05078124,2.02734372 z m 3.413086,-0.69140625 V -1.6754406 h 1.5703125 v -0.609375 H 5.6640938 V -3.3043469 H 7.3750313 V -3.9254406 H 5.0195625 V 3.40625e-4 h 2.390625 V -0.62075313 Z M 10.905305,-3.9254406 v 2.6601562 L 9.0537422,-3.9254406 H 8.5498359 V 3.40625e-4 H 9.1943672 V -2.6598156 L 11.04593,3.40625e-4 h 0.503906 V -3.9254406 Z m 4.541015,0 h -2.859375 v 0.6210937 h 1.113282 V 3.40625e-4 h 0.644531 V -3.3043469 h 1.101562 z m 3.266602,3.925781225 h 0.703125 L 18.525422,-1.5230969 c 0.46875,-0.1875 0.785156,-0.6328125 0.785156,-1.1367187 0,-0.703125 -0.5625,-1.265625 -1.265625,-1.265625 H 16.474641 V 3.40625e-4 h 0.644531 V -1.4293469 h 0.761719 z M 17.119172,-3.3160656 h 0.925781 c 0.339844,0 0.621094,0.28125 0.621094,0.65625 0,0.3632812 -0.28125,0.65625 -0.621094,0.65625 h -0.925781 z m 5.162109,3.38671872 c 1.136719,0 2.039063,-0.890625 2.039063,-2.02734372 0,-1.1367188 -0.902344,-2.0390625 -2.039063,-2.0390625 -1.125,0 -2.027343,0.9023437 -2.027343,2.0390625 0,1.13671872 0.902343,2.02734372 2.027343,2.02734372 z m 0,-0.62109375 c -0.785156,0 -1.382812,-0.59765627 -1.382812,-1.40624997 0,-0.8085938 0.597656,-1.40625 1.382812,-1.40625 0.785157,0 1.394532,0.5976562 1.394532,1.40625 0,0.8085937 -0.609375,1.40624997 -1.394532,1.40624997 z M 28.969758,-3.9254406 H 27.422883 V 3.40625e-4 h 1.546875 c 1.078125,0 1.875,-0.867187505 1.875,-1.957031225 0,-1.1015625 -0.796875,-1.96875 -1.875,-1.96875 z m 0,3.30468747 H 28.067414 V -3.3043469 h 0.902344 c 0.738281,0 1.253906,0.5625 1.253906,1.3476563 0,0.7734375 -0.515625,1.33593747 -1.253906,1.33593747 z m 3.662109,0 V -1.6754406 h 1.570313 v -0.609375 h -1.570313 v -1.0195313 h 1.710938 V -3.9254406 H 31.987336 V 3.40625e-4 h 2.390625 V -0.62075313 Z m 7.154297,-1.41796877 c 0.246094,-0.1757812 0.398438,-0.4570312 0.398438,-0.796875 0,-0.6210937 -0.515625,-1.0898437 -1.148438,-1.0898437 H 37.47757 V 3.40625e-4 h 1.6875 c 0.644532,0 1.171875,-0.468750005 1.171875,-1.125000025 0,-0.4101562 -0.210937,-0.7382812 -0.550781,-0.9140625 z m -0.75,-1.2773437 c 0.292969,0 0.503906,0.2226562 0.503906,0.515625 0,0.2929687 -0.210937,0.515625 -0.503906,0.515625 h -0.914062 v -1.03125 z m 0.128906,2.70703122 H 38.122102 V -1.6988781 h 1.042968 c 0.304688,0 0.527344,0.234375 0.527344,0.5507812 0,0.30468752 -0.222656,0.53906252 -0.527344,0.53906252 z M 41.456086,-3.9254406 V 3.40625e-4 h 0.644531 V -3.9254406 Z m 3.826172,3.99609372 c 1.136719,0 2.039062,-0.890625 2.039062,-2.02734372 0,-1.1367188 -0.902343,-2.0390625 -2.039062,-2.0390625 -1.125,0 -2.027344,0.9023437 -2.027344,2.0390625 0,1.13671872 0.902344,2.02734372 2.027344,2.02734372 z m 0,-0.62109375 c -0.785156,0 -1.382813,-0.59765627 -1.382813,-1.40624997 0,-0.8085938 0.597657,-1.40625 1.382813,-1.40625 0.785156,0 1.394531,0.5976562 1.394531,1.40625 0,0.8085937 -0.609375,1.40624997 -1.394531,1.40624997 z M 50.793,-3.9254406 h -2.859375 v 0.6210937 h 1.113281 V 3.40625e-4 h 0.644532 V -3.3043469 H 50.793 Z m 1.675781,3.30468747 V -1.6754406 h 1.570313 v -0.609375 h -1.570313 v -1.0195313 h 1.710938 V -3.9254406 H 51.82425 V 3.40625e-4 h 2.390625 V -0.62075313 Z m 4.713867,0.69140625 c 0.714844,0 1.359375,-0.36328125 1.6875,-0.9375 l -0.5625,-0.31640622 c -0.199218,0.38671872 -0.632812,0.63281247 -1.125,0.63281247 -0.855468,0 -1.40625,-0.59765627 -1.40625,-1.40624997 0,-0.8085938 0.550782,-1.40625 1.40625,-1.40625 0.492188,0 0.914063,0.2460937 1.125,0.6328125 l 0.5625,-0.328125 c -0.339843,-0.5742188 -0.972656,-0.9375 -1.6875,-0.9375 -1.195312,0 -2.050781,0.9023437 -2.050781,2.0390625 0,1.13671872 0.855469,2.02734372 2.050781,2.02734372 z m 5.126954,-3.99609372 v 2.6601562 L 60.458039,-3.9254406 H 59.954133 V 3.40625e-4 h 0.644531 V -2.6598156 l 1.851563,2.660156225 h 0.503906 V -3.9254406 Z m 3.826171,3.99609372 c 1.136719,0 2.039063,-0.890625 2.039063,-2.02734372 0,-1.1367188 -0.902344,-2.0390625 -2.039063,-2.0390625 -1.125,0 -2.027343,0.9023437 -2.027343,2.0390625 0,1.13671872 0.902343,2.02734372 2.027343,2.02734372 z m 0,-0.62109375 c -0.785156,0 -1.382812,-0.59765627 -1.382812,-1.40624997 0,-0.8085938 0.597656,-1.40625 1.382812,-1.40625 0.785157,0 1.394532,0.5976562 1.394532,1.40625 0,0.8085937 -0.609375,1.40624997 -1.394532,1.40624997 z m 3.823243,-0.0703125 V -3.9254406 H 69.314484 V 3.40625e-4 h 2.25 V -0.62075313 Z m 4.21875,0.69140625 c 1.136718,0 2.039062,-0.890625 2.039062,-2.02734372 0,-1.1367188 -0.902344,-2.0390625 -2.039062,-2.0390625 -1.125,0 -2.027344,0.9023437 -2.027344,2.0390625 0,1.13671872 0.902344,2.02734372 2.027344,2.02734372 z m 0,-0.62109375 c -0.785157,0 -1.382813,-0.59765627 -1.382813,-1.40624997 0,-0.8085938 0.597656,-1.40625 1.382813,-1.40625 0.785156,0 1.394531,0.5976562 1.394531,1.40625 0,0.8085937 -0.609375,1.40624997 -1.394531,1.40624997 z m 7.001953,-1.47656247 h -1.957031 v 0.5742187 h 1.3125 c -0.128907,0.52734377 -0.5625,0.90234377 -1.265625,0.90234377 -0.890625,0 -1.453125,-0.60937497 -1.453125,-1.40624997 0,-0.796875 0.574218,-1.40625 1.40625,-1.40625 0.515625,0 0.949218,0.2578125 1.160156,0.6210937 l 0.550781,-0.3164062 c -0.328125,-0.5625 -0.960937,-0.9375 -1.710937,-0.9375 -1.171875,0 -2.050782,0.9140625 -2.050782,2.0390625 0,1.12499997 0.867188,2.02734372 2.085938,2.02734372 1.148437,0 1.921875,-0.76171875 1.921875,-1.82812502 z m 1.142578,-1.8984375 V 3.40625e-4 h 0.644531 V -3.9254406 Z m 4.543945,3.925781225 h 0.703125 L 86.151398,-3.9254406 H 85.377961 L 83.948273,3.40625e-4 h 0.703125 l 0.28125,-0.785156255 h 1.664063 z m -1.722656,-1.394531225 0.621094,-1.7695313 0.621093,1.7695313 z m 0,0"
       style="fill:#000000;fill-opacity:1;fill-rule:nonzero;stroke:none"
       aria-label="CENTRO DE BIOTECNOLOGIA"
       transform="matrix(1.3333333,0,0,1.3333333,3122.316,368.24173)" />
    <path
       id="path1274"
       d="m 5.0967203,0.19862187 c 2.3671875,0 4.1132813,-1.45312497 4.1132813,-3.79687497 V -10.863878 H 7.4170328 v 7.1484374 c 0,1.2773437 -0.7265625,2.1796875 -2.3203125,2.1796875 -1.6054687,0 -2.3320312,-0.9023438 -2.3320312,-2.1796875 V -10.863878 H 0.97172031 v 7.2656249 c 0,2.34375 1.73437499,3.79687497 4.12499999,3.79687497 z M 19.179728,-9.1646594 V -10.863878 H 12.816447 V -5.96875e-4 h 1.78125 V -4.4068469 h 4.429687 v -1.7109375 h -4.429687 v -3.046875 z m 9.421875,9.164062525 h 1.957031 L 28.097697,-4.2193469 c 1.265625,-0.515625 2.15625,-1.7578125 2.15625,-3.1523437 0,-1.9453125 -1.558594,-3.4921874 -3.492188,-3.4921874 H 22.414103 V -5.96875e-4 h 1.78125 V -3.9615344 h 2.109375 z M 24.195353,-9.1880969 h 2.566406 c 0.949219,0 1.699219,0.7851563 1.699219,1.8164063 0,1.0078125 -0.75,1.8164062 -1.699219,1.8164062 h -2.566406 z m 19.78418,3.5625 h -5.4375 v 1.6054688 h 3.632812 c -0.316406,1.453125 -1.535156,2.484375 -3.503906,2.484375 -2.4375,0 -4.019531,-1.6992188 -4.019531,-3.8789063 0,-2.2265625 1.617187,-3.9140625 3.914062,-3.9140625 1.429688,0 2.636719,0.7148438 3.199219,1.7226563 l 1.535156,-0.890625 c -0.914062,-1.5351564 -2.671875,-2.5781254 -4.734375,-2.5781254 -3.269531,0 -5.707031,2.5195316 -5.707031,5.6367191 0,3.1289063 2.414063,5.63671877 5.800781,5.63671877 3.175782,0 5.320313,-2.10937497 5.320313,-5.07421877 z m 6.395508,5.82421877 c 2.273437,0 3.855468,-1.20703127 3.855468,-3.19921877 0,-2.15625 -1.816406,-2.71875 -3.621093,-3.2929687 -1.582032,-0.4921875 -2.179688,-0.84375 -2.179688,-1.6875 0,-0.8203125 0.65625,-1.3476563 1.699219,-1.3476563 1.21875,0 1.898437,0.6445313 2.285156,1.5234375 l 1.511719,-0.8789062 c -0.691406,-1.4414064 -2.003906,-2.3906254 -3.796875,-2.3906254 -1.828125,0 -3.492188,1.1367191 -3.492188,3.1406254 0,2.0507812 1.652344,2.671875 3.339844,3.1875 1.617188,0.4921875 2.472656,0.8203125 2.472656,1.78125 0,0.796875 -0.609375,1.4296875 -2.027343,1.4296875 -1.464844,0 -2.308594,-0.7265625 -2.695313,-1.8398438 l -1.535156,0.9023438 c 0.574219,1.61718747 2.050781,2.67187497 4.183594,2.67187497 z m 0,0"
       style="fill:#000000;fill-opacity:1;fill-rule:nonzero;stroke:none"
       aria-label="UFRGS"
       transform="matrix(1.3333333,0,0,1.3333333,3121.6155,388.96173)" />
    <path
       id="path1275"
       d="m 0,0 c -0.638,0 -1.159,-0.553 -1.159,-1.229 v -1.67 c 0,-0.677 0.521,-1.23 1.159,-1.23 h 2.379 c 0.639,0 1.159,0.553 1.159,1.23 v 1.67 C 3.538,-0.553 3.018,0 2.379,0 Z"
       style="fill:#000000;fill-opacity:1;fill-rule:nonzero;stroke:none"
       transform="matrix(1.3333333,0,0,-1.3333333,3271.7777,329.70493)"
       clip-path="url(#clipPath1276)" />
    <path
       id="path1277"
       d="m 0,0 h 2.379 c 0.638,0 1.159,0.553 1.159,1.229 v 1.67 c 0,0.676 -0.521,1.23 -1.159,1.23 H 0 c -0.638,0 -1.159,-0.554 -1.159,-1.23 V 1.229 C -1.159,0.553 -0.638,0 0,0"
       style="fill:#000000;fill-opacity:1;fill-rule:nonzero;stroke:none"
       transform="matrix(1.3333333,0,0,-1.3333333,3291.8611,345.01813)"
       clip-path="url(#clipPath1278)" />
    <path
       id="path1279"
       d="m 0,0 h -2.38 c -0.637,0 -1.159,-0.553 -1.159,-1.229 v -1.67 c 0,-0.677 0.522,-1.23 1.159,-1.23 H 0 c 0.638,0 1.159,0.553 1.159,1.23 v 1.67 C 1.159,-0.553 0.638,0 0,0"
       style="fill:#000000;fill-opacity:1;fill-rule:nonzero;stroke:none"
       transform="matrix(1.3333333,0,0,-1.3333333,3303.2219,349.32147)"
       clip-path="url(#clipPath1280)" />
    <path
       id="path1281"
       d="m 0,0 h -2.38 c -0.638,0 -1.159,-0.553 -1.159,-1.229 v -1.67 c 0,-0.676 0.521,-1.229 1.159,-1.229 H 0 c 0.637,0 1.159,0.553 1.159,1.229 v 1.67 C 1.159,-0.553 0.637,0 0,0"
       style="fill:#000000;fill-opacity:1;fill-rule:nonzero;stroke:none"
       transform="matrix(1.3333333,0,0,-1.3333333,3309.5773,359.13013)"
       clip-path="url(#clipPath1282)" />
    <path
       id="path1283"
       d="m 0,0 h -2.378 c -0.638,0 -1.16,-0.553 -1.16,-1.229 v -1.67 c 0,-0.677 0.522,-1.23 1.16,-1.23 H 0 c 0.639,0 1.16,0.553 1.16,1.23 v 1.67 C 1.16,-0.553 0.639,0 0,0"
       style="fill:#000000;fill-opacity:1;fill-rule:nonzero;stroke:none"
       transform="matrix(1.3333333,0,0,-1.3333333,3291.9001,368.938)"
       clip-path="url(#clipPath1284)" />
    <path
       id="path1285"
       d="m 0,0 h -2.38 c -0.638,0 -1.159,-0.553 -1.159,-1.23 v -1.669 c 0,-0.676 0.521,-1.229 1.159,-1.229 H 0 c 0.637,0 1.158,0.553 1.158,1.229 V -1.23 C 1.158,-0.553 0.637,0 0,0"
       style="fill:#000000;fill-opacity:1;fill-rule:nonzero;stroke:none"
       transform="matrix(1.3333333,0,0,-1.3333333,3284.434,378.74667)"
       clip-path="url(#clipPath1286)" />
    <path
       id="path1287"
       d="m 0,0 h -2.38 c -0.638,0 -1.159,-0.553 -1.159,-1.23 v -1.669 c 0,-0.676 0.521,-1.229 1.159,-1.229 H 0 c 0.637,0 1.158,0.553 1.158,1.229 V -1.23 C 1.158,-0.553 0.637,0 0,0"
       style="fill:#000000;fill-opacity:1;fill-rule:nonzero;stroke:none"
       transform="matrix(1.3333333,0,0,-1.3333333,3204.434,378.74667)"
       clip-path="url(#clipPath1288)" />
    <path
       id="path1289"
       d="M 0,0 V 0.006 0.003 Z M 32.582,13.088 H 10.246 c 0,0 0,0 -0.001,0 h 0.479 c -0.591,0 -1.103,0.322 -1.384,0.796 -0.043,0.079 -0.089,0.157 -0.119,0.242 -0.018,0.045 -0.03,0.091 -0.042,0.137 -0.039,0.145 -0.069,0.294 -0.068,0.448 0,0.009 0.002,0.017 0.002,0.026 0.003,0.144 0.032,0.283 0.07,0.417 0.013,0.047 0.025,0.094 0.043,0.139 0.03,0.082 0.075,0.157 0.117,0.233 0.282,0.471 0.791,0.789 1.38,0.789 h 17.209 c 0.637,0 1.159,0.554 1.159,1.23 v 1.67 c 0,0.676 -0.522,1.229 -1.159,1.229 h -8.996 c -0.773,0 -1.417,0.545 -1.575,1.271 -0.006,0.025 -0.007,0.051 -0.011,0.077 -0.015,0.086 -0.028,0.175 -0.028,0.266 v -0.087 c -0.002,0.034 -0.015,0.067 -0.014,0.102 0,0.032 0.012,0.061 0.014,0.093 v -0.108 c 0,0.095 0.013,0.188 0.029,0.278 0.003,0.023 0.006,0.045 0.01,0.068 0.16,0.724 0.803,1.267 1.575,1.267 h -0.493 c 0,0 0,0.001 10e-4,0.001 h 3.347 c 0.637,0 1.158,0.553 1.158,1.229 v 1.67 c 0,0.676 -0.521,1.23 -1.158,1.23 H 3.479 c -0.439,0 -0.835,0.177 -1.126,0.46 -0.012,0.013 -0.025,0.025 -0.036,0.037 -0.056,0.059 -0.109,0.123 -0.156,0.19 -0.179,0.276 -0.286,0.598 -0.283,0.941 0.003,0.334 0.111,0.648 0.286,0.917 0.05,0.07 0.105,0.137 0.164,0.198 0.006,0.006 0.012,0.012 0.018,0.018 0.291,0.288 0.69,0.466 1.133,0.466 h 3.194 c 0.638,0 1.159,0.553 1.159,1.229 v 1.67 c 0,0.677 -0.521,1.23 -1.159,1.23 H -3.666 c -0.638,0 -1.159,-0.553 -1.159,-1.23 v -1.67 c 0,-0.676 0.521,-1.229 1.159,-1.229 h 2.607 c 0.891,-10e-4 1.613,-0.722 1.613,-1.613 v 0.117 c 0.002,-0.035 0.015,-0.068 0.015,-0.103 0,-0.039 -0.013,-0.075 -0.015,-0.114 v 0.1 c 0,-0.892 -0.722,-1.614 -1.614,-1.614 h -2.606 c -0.638,0 -1.159,-0.554 -1.159,-1.23 v -1.67 c 0,-0.676 0.521,-1.229 1.159,-1.229 H 15 l 10e-4,-0.001 h -0.604 c 0.613,0 1.138,-0.344 1.412,-0.845 0.037,-0.077 0.079,-0.151 0.104,-0.233 0.006,-0.017 0.011,-0.034 0.017,-0.051 0.042,-0.151 0.068,-0.308 0.069,-0.469 C 16,21.907 15.977,21.746 15.935,21.59 15.93,21.576 15.926,21.562 15.921,21.548 c -0.027,-0.092 -0.073,-0.175 -0.114,-0.261 -0.275,-0.5 -0.799,-0.843 -1.41,-0.843 H 3.604 c -0.636,0 -1.159,-0.553 -1.159,-1.229 v -1.67 c 0,-0.676 0.523,-1.23 1.159,-1.23 h 2.582 c 0.756,0 1.385,-0.522 1.56,-1.224 0.021,-0.092 0.036,-0.185 0.042,-0.28 0.002,-0.037 0.011,-0.072 0.011,-0.109 v 0.035 c 0,-0.007 0.003,-0.014 0.003,-0.021 0,-0.008 -0.003,-0.014 -0.003,-0.022 v 0.008 C 7.799,14.69 7.796,14.68 7.795,14.668 7.793,14.55 7.773,14.436 7.749,14.322 7.577,13.615 6.944,13.088 6.186,13.088 h 0.619 c -10e-4,0 -10e-4,0 -10e-4,0 h -10.47 c -0.638,0 -1.159,-0.553 -1.159,-1.229 v -1.67 c 0,-0.676 0.521,-1.23 1.159,-1.23 h 15.844 c 0.734,-0.028 1.341,-0.545 1.504,-1.237 0.013,-0.064 0.022,-0.13 0.029,-0.196 0.006,-0.058 0.018,-0.114 0.018,-0.173 v 0.055 c 0,-0.017 0.006,-0.032 0.006,-0.049 0,-0.018 -0.006,-0.035 -0.006,-0.053 v 0.047 c 0,-0.065 -0.012,-0.126 -0.02,-0.188 C 13.703,7.11 13.698,7.055 13.688,7.001 13.526,6.279 12.885,5.739 12.114,5.739 h 0.632 C 12.742,5.737 12.74,5.734 12.736,5.732 H -3.666 c -0.638,0 -1.159,-0.553 -1.159,-1.23 V 2.833 c 0,-0.677 0.521,-1.23 1.159,-1.23 h 2.667 0.001 -0.615 c 0.668,0 1.24,-0.406 1.485,-0.984 0.001,-0.001 0.001,-0.002 0.002,-0.003 0.029,-0.071 0.049,-0.147 0.068,-0.223 0.028,-0.114 0.049,-0.23 0.052,-0.35 0.001,-0.016 0.005,-0.031 0.005,-0.048 C 0,-0.142 -0.024,-0.275 -0.055,-0.406 -0.073,-0.48 -0.094,-0.555 -0.122,-0.625 -0.126,-0.636 -0.132,-0.646 -0.137,-0.657 -0.386,-1.226 -0.952,-1.625 -1.613,-1.625 h -32.728 c -0.638,0 -1.159,-0.553 -1.159,-1.229 v -1.67 c 0,-0.676 0.521,-1.229 1.159,-1.229 h 48.182 c 0.638,0 1.159,0.553 1.159,1.229 v 1.67 c 0,0.676 -0.521,1.229 -1.159,1.229 H 2.925 c -0.609,0 -1.132,0.341 -1.406,0.838 C 1.486,-0.725 1.45,-0.665 1.426,-0.599 1.405,-0.546 1.39,-0.49 1.375,-0.435 1.34,-0.299 1.312,-0.16 1.312,-0.016 v 0.005 -0.002 c 0,0.006 -0.003,0.011 -0.003,0.016 0,0.005 0.003,0.01 0.003,0.015 v -0.029 c 0,0.025 0.005,0.049 0.006,0.074 0.006,0.124 0.029,0.244 0.06,0.361 0.017,0.057 0.03,0.115 0.053,0.169 0.019,0.052 0.049,0.098 0.074,0.147 0.27,0.51 0.802,0.863 1.42,0.863 H 2.444 c 10e-4,0 10e-4,0 10e-4,0 H 19.33 c 0.638,0 1.159,0.553 1.159,1.23 v 1.669 c 0,0.677 -0.521,1.23 -1.159,1.23 h -3.15 c -0.005,10e-4 -0.008,0.005 -0.013,0.007 h 0.486 c -0.588,0 -1.096,0.317 -1.379,0.786 -0.045,0.082 -0.093,0.164 -0.125,0.254 -0.014,0.038 -0.024,0.078 -0.036,0.117 -0.041,0.149 -0.071,0.304 -0.069,0.463 10e-4,0.166 0.031,0.327 0.079,0.48 0.007,0.022 0.012,0.045 0.02,0.066 0.045,0.129 0.11,0.249 0.183,0.363 0.056,0.08 0.117,0.156 0.186,0.225 l 10e-4,10e-4 c 0.277,0.277 0.657,0.449 1.077,0.465 h 15.992 c 0.638,0 1.16,0.554 1.16,1.23 v 1.67 c 0,0.676 -0.522,1.229 -1.16,1.229"
       style="fill:#000000;fill-opacity:1;fill-rule:nonzero;stroke:none"
       transform="matrix(1.3333333,0,0,-1.3333333,3256.5695,376.58067)"
       clip-path="url(#clipPath1290)" />
    <path
       id="path1291"
       d="m 0,0 h 2.379 c 0.638,0 1.159,0.553 1.159,1.229 v 1.67 c 0,0.677 -0.521,1.23 -1.159,1.23 H 0 c -0.638,0 -1.159,-0.553 -1.159,-1.23 V 1.229 C -1.159,0.553 -0.638,0 0,0"
       style="fill:#000000;fill-opacity:1;fill-rule:nonzero;stroke:none"
       transform="matrix(1.3333333,0,0,-1.3333333,3265.0004,285.3912)"
       clip-path="url(#clipPath1292)" />
    <path
       id="path1293"
       d="m 0,0 h 2.38 c 0.638,0 1.159,0.554 1.159,1.23 v 1.669 c 0,0.677 -0.521,1.23 -1.159,1.23 H 0 c -0.638,0 -1.159,-0.553 -1.159,-1.23 V 1.23 C -1.159,0.554 -0.638,0 0,0"
       style="fill:#000000;fill-opacity:1;fill-rule:nonzero;stroke:none"
       transform="matrix(1.3333333,0,0,-1.3333333,3244.9171,295.19973)"
       clip-path="url(#clipPath1294)" />
    <path
       id="path1295"
       d="m 0,0 h 2.38 c 0.638,0 1.159,0.553 1.159,1.229 v 1.67 c 0,0.676 -0.521,1.23 -1.159,1.23 H 0 c -0.638,0 -1.159,-0.554 -1.159,-1.23 V 1.229 C -1.159,0.553 -0.638,0 0,0"
       style="fill:#000000;fill-opacity:1;fill-rule:nonzero;stroke:none"
       transform="matrix(1.3333333,0,0,-1.3333333,3236.7283,305.00773)"
       clip-path="url(#clipPath1296)" />
    <path
       id="path1297"
       d="m 0,0 h 2.38 c 0.637,0 1.158,0.553 1.158,1.229 v 1.67 c 0,0.677 -0.521,1.23 -1.158,1.23 H 0 c -0.638,0 -1.159,-0.553 -1.159,-1.23 V 1.229 C -1.159,0.553 -0.638,0 0,0"
       style="fill:#000000;fill-opacity:1;fill-rule:nonzero;stroke:none"
       transform="matrix(1.3333333,0,0,-1.3333333,3230.3741,314.81627)"
       clip-path="url(#clipPath1298)" />
    <path
       id="path1299"
       d="m 0,0 c -0.638,0 -1.159,-0.553 -1.159,-1.229 v -1.67 c 0,-0.677 0.521,-1.23 1.159,-1.23 h 2.38 c 0.638,0 1.159,0.553 1.159,1.23 v 1.67 C 3.539,-0.553 3.018,0 2.38,0 Z"
       style="fill:#000000;fill-opacity:1;fill-rule:nonzero;stroke:none"
       transform="matrix(1.3333333,0,0,-1.3333333,3248.0487,319.11907)"
       clip-path="url(#clipPath1300)" />
    <path
       id="path1301"
       d="m 0,0 h 2.877 c 0.552,0 1.037,-0.278 1.328,-0.7 0.071,-0.112 0.136,-0.23 0.18,-0.356 0.008,-0.02 0.012,-0.04 0.018,-0.059 C 4.451,-1.27 4.481,-1.432 4.483,-1.599 4.484,-1.77 4.456,-1.936 4.409,-2.094 4.403,-2.113 4.397,-2.133 4.391,-2.152 4.347,-2.284 4.282,-2.406 4.208,-2.523 3.918,-2.948 3.43,-3.227 2.877,-3.227 h 0.47 -9.489 c -0.636,0 -1.159,-0.554 -1.159,-1.23 v -1.669 c 0,-0.677 0.523,-1.23 1.159,-1.23 h 17.231 c 0.741,-0.015 1.355,-0.528 1.529,-1.219 0.017,-0.071 0.028,-0.143 0.035,-0.216 0.007,-0.058 0.018,-0.115 0.018,-0.175 v 0.068 c 0.001,-0.019 0.009,-0.038 0.01,-0.057 0,-0.022 -0.009,-0.041 -0.01,-0.063 v 0.052 c 0,-0.054 -0.011,-0.105 -0.016,-0.157 -0.007,-0.075 -0.016,-0.148 -0.033,-0.22 -0.17,-0.709 -0.804,-1.237 -1.564,-1.237 h 0.493 c -0.002,-10e-4 -0.004,-0.003 -0.007,-0.003 h -22.336 c -0.638,0 -1.159,-0.554 -1.159,-1.23 v -1.67 c 0,-0.677 0.521,-1.229 1.159,-1.229 H 5.133 c 0.597,0 1.113,-0.329 1.391,-0.811 0.038,-0.069 0.079,-0.136 0.106,-0.209 0.018,-0.047 0.031,-0.097 0.045,-0.145 0.037,-0.134 0.065,-0.271 0.067,-0.414 0.001,-0.009 0.003,-0.018 0.003,-0.027 0.001,-0.153 -0.028,-0.3 -0.066,-0.444 -0.014,-0.049 -0.027,-0.097 -0.044,-0.143 -0.03,-0.079 -0.071,-0.151 -0.111,-0.224 -0.279,-0.482 -0.794,-0.81 -1.391,-0.81 H 2.46 c -0.638,0 -1.159,-0.554 -1.159,-1.23 v -1.67 c 0,-0.677 0.521,-1.229 1.159,-1.229 h 22.997 c 0.637,0 1.158,0.552 1.158,1.229 v 1.67 c 0,0.676 -0.521,1.23 -1.158,1.23 H 9.671 c -0.759,0 -1.39,0.524 -1.563,1.23 -0.026,0.12 -0.047,0.242 -0.048,0.368 -0.001,0.005 -0.002,0.01 -0.002,0.015 v -0.004 c 0,0.006 -0.002,0.012 -0.002,0.018 0,0.005 0.002,0.01 0.002,0.015 v -0.029 c 0,0.032 0.007,0.061 0.008,0.093 0.006,0.102 0.023,0.201 0.045,0.299 0.176,0.701 0.805,1.222 1.56,1.222 h 15.786 c 0.637,0 1.158,0.552 1.158,1.229 v 1.67 c 0,0.676 -0.521,1.23 -1.158,1.23 h -10.47 c -0.002,0 -0.004,0.002 -0.006,0.003 h 0.615 c -0.64,0 -1.188,0.375 -1.449,0.915 -0.018,0.043 -0.041,0.084 -0.056,0.129 -0.017,0.045 -0.029,0.092 -0.043,0.139 -0.035,0.143 -0.061,0.29 -0.06,0.442 0.002,0.15 0.029,0.296 0.066,0.438 0.011,0.039 0.022,0.079 0.036,0.117 0.018,0.053 0.046,0.102 0.069,0.154 0.261,0.518 0.788,0.878 1.405,0.89 h 2.622 c 0.637,0 1.158,0.553 1.158,1.23 v 1.669 c 0,0.676 -0.521,1.23 -1.158,1.23 H 6.791 7.388 c -0.592,0 -1.104,0.322 -1.384,0.797 -0.132,0.255 -0.215,0.535 -0.212,0.831 0.002,0.287 0.086,0.557 0.213,0.804 C 6.286,-0.321 6.797,0 7.388,0 h 18.069 c 0.637,0 1.158,0.554 1.158,1.23 v 1.669 c 0,0.677 -0.521,1.23 -1.158,1.23 h -3.237 -10e-4 0.603 c -0.611,0 -1.136,0.345 -1.411,0.846 -0.04,0.084 -0.085,0.166 -0.111,0.255 l -0.015,0.046 c -0.042,0.155 -0.065,0.316 -0.064,0.481 0.001,0.161 0.027,0.318 0.069,0.468 0.006,0.018 0.011,0.036 0.017,0.054 0.025,0.081 0.067,0.154 0.104,0.231 0.274,0.502 0.799,0.846 1.411,0.846 h 2.635 c 0.637,0 1.158,0.554 1.158,1.23 v 1.67 c 0,0.676 -0.521,1.229 -1.158,1.229 h -10.34 c -0.638,0 -1.159,-0.553 -1.159,-1.229 v -1.67 c 0,-0.676 0.521,-1.23 1.159,-1.23 h 3.167 c 0.772,0 1.414,-0.542 1.573,-1.265 0.005,-0.025 0.009,-0.05 0.013,-0.076 0.015,-0.089 0.027,-0.179 0.027,-0.272 v 0.105 c 0.002,-0.031 0.015,-0.059 0.015,-0.091 0,-0.034 -0.013,-0.065 -0.015,-0.099 v 0.085 c 0,-0.09 -0.012,-0.176 -0.026,-0.262 C 19.866,5.454 19.864,5.426 19.858,5.399 19.701,4.673 19.057,4.129 18.284,4.129 h 0.493 c -0.001,0 -0.001,0 -0.001,0 H 0 c -0.638,0 -1.159,-0.553 -1.159,-1.23 V 1.23 C -1.159,0.554 -0.638,0 0,0"
       style="fill:#000000;fill-opacity:1;fill-rule:nonzero;stroke:none"
       transform="matrix(1.3333333,0,0,-1.3333333,3254.3273,295.19973)"
       clip-path="url(#clipPath1302)" />
  </g>
</svg>
