<?xml version="1.0" encoding="UTF-8" standalone="no"?>
<svg
   width="2279.3972"
   height="973.73761"
   viewBox="0 0 175.747 75.077507"
   version="1.1"
   id="svg4"
   xmlns="http://www.w3.org/2000/svg"
   xmlns:svg="http://www.w3.org/2000/svg">
  <defs
     id="defs4" />
  <g
     fill-rule="evenodd"
     clip-rule="evenodd"
     id="g4"
     transform="translate(-8.5040007,-58.839489)">
    <path
       d="m 51.872,76.429 c 0.894,3.516 0.778,5.417 0.202,8.241 -0.807,3.112 -2.536,5.475 -4.179,6.916 l 5.85,19.94 h -5.792 c -1.931,-7.29 -4.322,-15.358 -6.339,-22.649 1.182,-0.605 4.496,-2.479 5.014,-6.887 0.519,-4.121 -2.046,-7.319 -3.804,-8.501 -1.527,-0.95 -3.804,-1.671 -5.937,-1.239 -4.092,0.461 -6.887,3.631 -7.521,7.146 -0.086,0.49 -0.086,0.72 -0.144,1.383 l -2.132,5.936 h 1.181 V 98.386 H 42.16 l 1.614,5.705 H 22.508 V 91.01 l -2.939,-0.029 c 1.066,-3.17 3.775,-10.201 3.775,-10.201 0.346,-2.564 0.49,-7.405 5.677,-11.382 2.42,-2.017 6.195,-3.4 10.229,-3.083 6.714,0.835 11.124,5.416 12.622,10.114 z"
       fill="#605a72"
       id="path2"
       style="fill:#000000;fill-opacity:1" />
    <path
       d="m 57.779,71.213 c 4.236,9.336 1.499,18.125 -1.643,22.275 l 4.812,17.895 H 55.271 L 49.71,92.104 c 3.429,-3.285 5.59,-9.999 3.891,-15.532 -1.499,-5.59 -6.138,-10.316 -12.766,-11.613 -7.031,-1.44 -13.716,2.19 -16.569,7.175 -1.815,2.766 -2.132,5.417 -2.449,8.645 0,0 -3.544,8.559 -4.755,11.67 h 3.804 v 13.169 h 23.341 l 1.614,5.85 H 15.103 V 97.608 L 8.504,97.58 c 0,0 7.146,-16.311 7.118,-16.8 0.403,-5.706 2.968,-12.823 8.443,-17.03 2.766,-2.19 6.484,-4.294 11.44,-4.755 5.389,-0.547 7.694,0.432 11.267,1.643 6.051,2.564 10.114,8.385 11.007,10.575 z"
       fill="#605a72"
       id="path3"
       style="fill:#000000;fill-opacity:1" />
    <path
       d="m 32.249,80.953 a 5.73,5.73 0 0 1 5.734,-5.734 c 3.141,0 5.706,2.564 5.706,5.734 a 5.7,5.7 0 0 1 -5.706,5.705 c -3.17,0 -5.734,-2.535 -5.734,-5.705 z m -9.77,36.164 h -1.326 c 0,-0.058 -0.028,-0.115 -0.028,-0.202 a 0.537,0.537 0 0 0 -0.058,-0.23 c -0.029,-0.173 -0.145,-0.317 -0.317,-0.461 -0.144,-0.145 -0.403,-0.201 -0.778,-0.201 -0.116,0 -0.259,0 -0.403,0.057 a 1.343,1.343 0 0 0 -0.432,0.174 c -0.26,0.144 -0.49,0.374 -0.721,0.662 -0.23,0.317 -0.403,0.778 -0.519,1.325 -0.029,0.145 -0.029,0.26 -0.058,0.403 0,0.145 -0.029,0.26 -0.029,0.375 0,0.403 0.115,0.721 0.288,1.009 0.173,0.259 0.49,0.403 0.922,0.403 0.375,0 0.692,-0.115 1.009,-0.316 0.288,-0.202 0.49,-0.49 0.663,-0.895 h 1.326 a 3.89,3.89 0 0 1 -1.239,1.701 c -0.547,0.432 -1.239,0.662 -2.017,0.662 -0.72,0 -1.268,-0.201 -1.7,-0.605 -0.432,-0.374 -0.634,-0.95 -0.634,-1.729 0,-0.144 0,-0.316 0.029,-0.489 l 0.086,-0.52 c 0.23,-1.123 0.692,-1.959 1.383,-2.535 0.691,-0.577 1.441,-0.836 2.276,-0.836 0.749,0 1.297,0.145 1.643,0.49 0.317,0.316 0.547,0.691 0.605,1.065 0.029,0.087 0.029,0.145 0.029,0.202 0.029,0.087 0.029,0.145 0.029,0.202 v 0.144 c -0.029,0.058 -0.029,0.088 -0.029,0.145 z m 5.072,1.931 c -0.173,0.807 -0.519,1.44 -1.066,1.815 -0.519,0.403 -1.095,0.634 -1.729,0.662 h -0.087 -0.058 c -0.547,0 -1.037,-0.144 -1.412,-0.432 -0.375,-0.288 -0.577,-0.749 -0.577,-1.384 0,-0.086 0.029,-0.201 0.029,-0.316 0.029,-0.115 0.029,-0.23 0.058,-0.346 0.173,-0.808 0.519,-1.441 1.066,-1.845 a 2.961,2.961 0 0 1 1.7,-0.634 c 0.029,0 0.058,-0.029 0.087,-0.029 h 0.086 a 2.37,2.37 0 0 1 1.412,0.462 c 0.375,0.288 0.577,0.749 0.577,1.383 0,0.086 -0.029,0.202 -0.029,0.317 0,0.115 -0.028,0.232 -0.057,0.347 z m -1.267,0 c 0,-0.059 0,-0.115 0.028,-0.173 v -0.173 -0.087 -0.086 c 0,-0.231 -0.058,-0.462 -0.173,-0.635 -0.115,-0.201 -0.346,-0.288 -0.691,-0.288 -0.375,0 -0.691,0.115 -0.894,0.317 a 1.98,1.98 0 0 0 -0.432,0.691 c -0.029,0.087 -0.058,0.145 -0.087,0.23 -0.029,0.058 -0.029,0.144 -0.029,0.202 -0.029,0.086 -0.058,0.172 -0.058,0.259 0,0.087 -0.029,0.173 -0.029,0.26 0,0.23 0.086,0.461 0.202,0.634 0.115,0.201 0.345,0.288 0.691,0.288 0.375,0 0.663,-0.115 0.865,-0.317 0.23,-0.23 0.375,-0.461 0.461,-0.72 0.029,-0.058 0.058,-0.115 0.086,-0.202 0.03,-0.057 0.03,-0.143 0.06,-0.2 z m 6.598,-0.923 -0.692,3.285 h -1.239 l 0.605,-2.881 c 0.029,-0.029 0.029,-0.087 0.029,-0.145 0.029,-0.028 0.029,-0.087 0.029,-0.145 v -0.086 c 0,-0.145 -0.058,-0.26 -0.144,-0.375 -0.086,-0.115 -0.259,-0.173 -0.519,-0.173 -0.26,0 -0.519,0.087 -0.75,0.288 -0.23,0.173 -0.375,0.433 -0.461,0.808 l -0.577,2.708 h -1.239 l 1.008,-4.755 h 1.182 l -0.144,0.721 H 30 c 0.029,-0.058 0.058,-0.115 0.115,-0.144 l 0.173,-0.173 a 1.61,1.61 0 0 1 0.519,-0.346 c 0.202,-0.115 0.461,-0.174 0.778,-0.174 0.403,0 0.721,0.115 0.979,0.317 0.26,0.202 0.375,0.49 0.375,0.894 0,0.058 0,0.115 -0.029,0.173 0.001,0.088 0.001,0.145 -0.028,0.203 z m 5.072,0 h -1.21 v -0.028 -0.029 a 0.944,0.944 0 0 0 -0.115,-0.403 c -0.087,-0.115 -0.288,-0.173 -0.605,-0.173 -0.259,0 -0.461,0.058 -0.605,0.115 a 0.67,0.67 0 0 0 -0.231,0.26 v 0.028 c 0,0.029 -0.028,0.058 -0.028,0.058 v 0.057 c 0,0.115 0.086,0.202 0.23,0.26 0.144,0.058 0.346,0.115 0.548,0.173 0.086,0 0.172,0.028 0.259,0.028 l 0.259,0.087 c 0.317,0.058 0.634,0.173 0.894,0.346 0.259,0.145 0.403,0.375 0.403,0.721 v 0.144 c -0.029,0.058 -0.029,0.087 -0.029,0.145 -0.115,0.433 -0.288,0.749 -0.547,0.979 -0.289,0.23 -0.576,0.403 -0.865,0.49 -0.202,0.058 -0.374,0.086 -0.547,0.115 -0.173,0.028 -0.346,0.028 -0.461,0.028 h -0.029 c -0.49,0 -0.951,-0.086 -1.354,-0.288 -0.403,-0.173 -0.605,-0.519 -0.605,-1.009 0,-0.058 0.029,-0.114 0.029,-0.173 0,-0.028 0,-0.086 0.029,-0.144 l 1.268,-0.028 v 0.172 c 0,0.173 0.058,0.289 0.173,0.404 0.144,0.086 0.374,0.144 0.72,0.144 0.231,0 0.404,-0.028 0.519,-0.115 0.144,-0.058 0.23,-0.115 0.289,-0.202 0.028,-0.028 0.028,-0.058 0.058,-0.086 0,-0.058 0.029,-0.058 0.029,-0.086 v -0.029 -0.029 c 0,-0.144 -0.058,-0.23 -0.231,-0.288 a 4.827,4.827 0 0 0 -0.576,-0.173 c -0.086,0 -0.144,-0.028 -0.23,-0.028 -0.086,-0.029 -0.144,-0.029 -0.23,-0.058 a 4.166,4.166 0 0 1 -0.894,-0.346 c -0.259,-0.145 -0.403,-0.403 -0.403,-0.75 0,-0.028 0,-0.086 0.029,-0.144 0,-0.029 0,-0.087 0.029,-0.145 0,-0.058 0.029,-0.115 0.029,-0.173 0.029,-0.086 0.058,-0.144 0.086,-0.201 0.145,-0.288 0.375,-0.576 0.721,-0.836 0.317,-0.23 0.807,-0.375 1.412,-0.375 h 0.115 c 0.058,0 0.086,0.029 0.145,0.029 0.375,0 0.749,0.115 1.066,0.288 0.317,0.145 0.49,0.49 0.49,0.979 v 0.115 c -0.006,0.059 -0.034,0.116 -0.034,0.174 z m 3.429,1.902 h 1.268 a 2.887,2.887 0 0 1 -0.691,0.922 c -0.289,0.202 -0.577,0.375 -0.894,0.461 -0.115,0.029 -0.26,0.058 -0.403,0.087 -0.144,0.028 -0.288,0.028 -0.403,0.028 -0.548,0 -1.009,-0.115 -1.384,-0.374 -0.345,-0.26 -0.518,-0.691 -0.518,-1.326 0,-0.144 0,-0.259 0.028,-0.403 0,-0.144 0.029,-0.316 0.058,-0.461 0.028,-0.144 0.086,-0.288 0.144,-0.49 0.057,-0.201 0.173,-0.403 0.317,-0.634 0.202,-0.316 0.461,-0.604 0.835,-0.893 0.375,-0.26 0.865,-0.404 1.499,-0.404 0.058,0 0.115,0.029 0.173,0.029 h 0.202 c 0.346,0.058 0.663,0.202 0.951,0.461 0.289,0.26 0.433,0.663 0.433,1.268 0,0.115 0,0.26 -0.029,0.404 0,0.144 -0.029,0.287 -0.058,0.461 l -0.058,0.201 h -3.256 v 0.173 c 0,0.029 -0.029,0.087 -0.029,0.145 0,0.028 0.029,0.086 0.029,0.115 v 0.058 c 0.029,0.173 0.086,0.346 0.202,0.49 0.115,0.115 0.346,0.201 0.663,0.201 h 0.115 c 0,0 0.058,-0.029 0.087,-0.029 0.144,-0.028 0.288,-0.086 0.403,-0.144 a 0.932,0.932 0 0 0 0.316,-0.346 z m 0.374,-1.469 v -0.087 -0.086 c 0,-0.288 -0.086,-0.49 -0.23,-0.605 a 0.68,0.68 0 0 0 -0.461,-0.201 h -0.058 c -0.288,0 -0.547,0.086 -0.749,0.259 -0.202,0.173 -0.346,0.403 -0.433,0.721 h 1.931 z m 2.767,2.852 h -1.239 l 1.354,-6.396 h 1.239 z m 6.166,-3.285 -0.691,3.285 h -1.24 l 0.605,-2.881 c 0.029,-0.029 0.029,-0.087 0.029,-0.145 0.029,-0.028 0.029,-0.087 0.029,-0.145 v -0.086 c 0,-0.145 -0.058,-0.26 -0.144,-0.375 -0.086,-0.115 -0.259,-0.173 -0.519,-0.173 a 1.07,1.07 0 0 0 -0.749,0.288 c -0.23,0.173 -0.374,0.433 -0.461,0.808 l -0.576,2.708 h -1.239 l 1.354,-6.396 h 1.239 l -0.49,2.276 h 0.029 c 0.116,-0.202 0.317,-0.375 0.605,-0.519 0.259,-0.145 0.576,-0.231 0.922,-0.231 0.404,0 0.72,0.115 0.98,0.317 0.23,0.202 0.375,0.49 0.375,0.894 0,0.058 0,0.115 -0.029,0.173 0,0.087 0,0.144 -0.029,0.202 z m 5.533,0.923 c -0.173,0.807 -0.519,1.44 -1.066,1.815 -0.519,0.403 -1.095,0.634 -1.7,0.662 h -0.172 c -0.547,0 -1.009,-0.144 -1.412,-0.432 -0.374,-0.288 -0.576,-0.749 -0.576,-1.384 0,-0.086 0.029,-0.201 0.029,-0.316 0.029,-0.115 0.029,-0.23 0.058,-0.346 0.173,-0.808 0.519,-1.441 1.066,-1.845 0.548,-0.403 1.095,-0.604 1.729,-0.634 0.028,0 0.058,-0.029 0.086,-0.029 h 0.058 c 0.547,0 1.038,0.174 1.412,0.462 0.375,0.288 0.576,0.749 0.576,1.383 0,0.086 0,0.202 -0.028,0.317 a 1.549,1.549 0 0 1 -0.06,0.347 z m -1.268,0 c 0,-0.059 0.029,-0.115 0.029,-0.173 v -0.173 c 0.029,-0.029 0.029,-0.059 0.029,-0.087 v -0.086 c 0,-0.231 -0.058,-0.462 -0.202,-0.635 -0.115,-0.201 -0.346,-0.288 -0.691,-0.288 -0.375,0 -0.663,0.115 -0.894,0.317 a 1.966,1.966 0 0 0 -0.432,0.691 c -0.029,0.087 -0.058,0.145 -0.086,0.23 0,0.058 -0.029,0.144 -0.029,0.202 -0.029,0.086 -0.029,0.172 -0.058,0.259 v 0.26 c 0,0.23 0.058,0.461 0.173,0.634 0.115,0.201 0.375,0.288 0.691,0.288 0.375,0 0.663,-0.115 0.893,-0.317 0.202,-0.23 0.346,-0.461 0.433,-0.72 0.029,-0.058 0.058,-0.115 0.086,-0.202 0.029,-0.057 0.029,-0.143 0.058,-0.2 z m 9.481,-4.034 h 1.239 l -1.354,6.396 h -1.354 l -1.643,-4.553 -0.979,4.553 h -1.239 l 1.354,-6.396 h 1.412 l 1.584,4.438 h 0.029 z m 5.619,2.91 -0.519,2.564 c -0.028,0.087 -0.058,0.173 -0.058,0.23 v 0.173 c 0,0.115 0,0.202 0.058,0.23 a 0.221,0.221 0 0 0 0.116,0.115 l -0.058,0.173 h -1.326 c -0.029,-0.058 -0.029,-0.086 -0.029,-0.115 v -0.115 -0.028 -0.145 c 0,-0.029 0,-0.086 0.029,-0.144 -0.058,0.028 -0.086,0.058 -0.115,0.086 -0.058,0.028 -0.086,0.058 -0.115,0.087 -0.173,0.115 -0.375,0.23 -0.605,0.346 a 2.422,2.422 0 0 1 -0.835,0.144 c -0.317,0 -0.605,-0.086 -0.836,-0.23 a 0.843,0.843 0 0 1 -0.346,-0.778 v -0.172 c 0,-0.059 0,-0.116 0.028,-0.174 0.087,-0.489 0.289,-0.835 0.605,-1.065 a 2.19,2.19 0 0 1 1.095,-0.462 l 1.153,-0.173 h 0.058 c 0.029,0 0.058,-0.028 0.086,-0.028 0.058,0 0.144,-0.058 0.23,-0.086 a 0.566,0.566 0 0 0 0.144,-0.26 v -0.058 -0.087 c 0,-0.144 -0.029,-0.23 -0.144,-0.288 -0.086,-0.058 -0.202,-0.086 -0.317,-0.115 h -0.259 c -0.23,0 -0.403,0.058 -0.548,0.145 -0.115,0.115 -0.201,0.201 -0.259,0.316 -0.028,0.029 -0.028,0.087 -0.057,0.115 0,0.029 0,0.058 -0.029,0.087 H 66.02 c 0.173,-0.634 0.49,-1.066 0.865,-1.297 a 3.23,3.23 0 0 1 1.239,-0.346 h 0.173 c 0.058,0 0.115,-0.029 0.173,-0.029 0.086,0 0.173,0.029 0.289,0.029 0.115,0 0.201,0.029 0.316,0.029 0.26,0.057 0.49,0.173 0.721,0.316 0.202,0.145 0.317,0.403 0.317,0.721 0,0.028 -0.029,0.086 -0.029,0.144 -0.001,0.03 -0.001,0.087 -0.029,0.145 z m -1.585,1.786 0.115,-0.604 c -0.058,0.058 -0.173,0.086 -0.288,0.144 -0.144,0.029 -0.346,0.087 -0.605,0.115 -0.23,0.029 -0.432,0.115 -0.634,0.202 -0.173,0.086 -0.288,0.259 -0.346,0.519 v 0.058 c -0.029,0 -0.029,0.028 -0.029,0.028 v 0.057 c 0,0.145 0.029,0.231 0.115,0.288 0.058,0.059 0.144,0.116 0.23,0.116 h 0.058 c 0.029,0 0.058,0.028 0.058,0.028 0.058,0 0.087,-0.028 0.144,-0.028 h 0.116 c 0.23,-0.058 0.461,-0.145 0.663,-0.317 0.23,-0.145 0.345,-0.346 0.403,-0.606 z m 5.158,-0.028 h 1.239 c -0.029,0.086 -0.058,0.23 -0.144,0.374 a 1.993,1.993 0 0 1 -0.289,0.461 c -0.202,0.26 -0.461,0.49 -0.807,0.692 -0.346,0.201 -0.778,0.316 -1.297,0.316 -0.692,0 -1.181,-0.173 -1.412,-0.519 a 1.657,1.657 0 0 1 -0.346,-1.152 v -0.346 c 0.029,-0.115 0.029,-0.23 0.058,-0.317 0.173,-0.778 0.49,-1.412 0.951,-1.901 0.461,-0.49 1.095,-0.75 1.873,-0.75 0.086,0 0.202,0.029 0.288,0.029 0.086,0 0.173,0.029 0.288,0.058 0.288,0.058 0.547,0.202 0.807,0.433 0.23,0.201 0.346,0.547 0.346,1.008 v 0.29 h -1.268 v -0.029 -0.115 c 0,-0.029 -0.029,-0.058 -0.029,-0.087 -0.029,-0.144 -0.086,-0.259 -0.173,-0.374 -0.087,-0.115 -0.23,-0.145 -0.432,-0.145 h -0.029 c -0.317,0 -0.577,0.115 -0.778,0.317 a 2.073,2.073 0 0 0 -0.403,0.691 c -0.029,0.058 -0.058,0.115 -0.058,0.173 -0.029,0.058 -0.029,0.115 -0.058,0.173 v 0.116 c -0.029,0.058 -0.058,0.144 -0.058,0.23 0,0.086 -0.029,0.173 -0.029,0.26 v 0.144 c 0,0.202 0.029,0.375 0.144,0.548 0.086,0.173 0.288,0.259 0.576,0.259 a 0.82,0.82 0 0 0 0.49,-0.144 1.25,1.25 0 0 0 0.346,-0.317 c 0.058,-0.058 0.086,-0.144 0.144,-0.201 0.031,-0.06 0.031,-0.118 0.06,-0.175 z m 4.034,-3.027 -0.979,4.755 h -1.268 l 1.008,-4.755 z m 0.115,-0.547 h -1.239 l 0.259,-1.152 h 1.239 z m 5.158,2.94 c -0.172,0.807 -0.519,1.44 -1.066,1.815 -0.547,0.403 -1.124,0.634 -1.729,0.662 h -0.172 c -0.548,0 -1.009,-0.144 -1.383,-0.432 -0.374,-0.288 -0.576,-0.749 -0.576,-1.384 0,-0.086 0,-0.201 0.029,-0.316 0,-0.115 0.029,-0.23 0.058,-0.346 0.173,-0.808 0.519,-1.441 1.066,-1.845 a 2.961,2.961 0 0 1 1.7,-0.634 c 0.028,0 0.058,-0.029 0.086,-0.029 h 0.087 c 0.547,0 1.008,0.174 1.383,0.462 0.403,0.288 0.577,0.749 0.577,1.383 v 0.317 c 0,0.115 -0.031,0.232 -0.06,0.347 z m -1.296,0 c 0.029,-0.059 0.029,-0.115 0.029,-0.173 0.029,-0.058 0.029,-0.115 0.029,-0.173 v -0.087 -0.086 c 0,-0.231 -0.058,-0.462 -0.173,-0.635 -0.115,-0.201 -0.375,-0.288 -0.72,-0.288 -0.375,0 -0.663,0.115 -0.865,0.317 -0.202,0.201 -0.346,0.461 -0.461,0.691 0,0.087 -0.029,0.145 -0.058,0.23 -0.028,0.058 -0.028,0.144 -0.058,0.202 0,0.086 -0.028,0.172 -0.028,0.259 -0.029,0.087 -0.029,0.173 -0.029,0.26 0,0.23 0.057,0.461 0.202,0.634 0.115,0.201 0.346,0.288 0.691,0.288 0.375,0 0.663,-0.115 0.865,-0.317 0.23,-0.23 0.375,-0.461 0.461,-0.72 0.029,-0.058 0.058,-0.115 0.086,-0.202 0,-0.057 0.029,-0.143 0.029,-0.2 z m 6.627,-0.923 -0.691,3.285 h -1.239 l 0.605,-2.881 c 0,-0.029 0.028,-0.087 0.028,-0.145 0,-0.028 0.029,-0.087 0.029,-0.145 v -0.086 c 0,-0.145 -0.058,-0.26 -0.144,-0.375 -0.086,-0.115 -0.259,-0.173 -0.519,-0.173 -0.288,0 -0.519,0.087 -0.749,0.288 -0.23,0.173 -0.375,0.433 -0.461,0.808 l -0.577,2.708 H 83.31 l 0.979,-4.755 h 1.21 l -0.144,0.721 c 0.058,-0.058 0.086,-0.115 0.144,-0.144 a 0.487,0.487 0 0 1 0.173,-0.173 c 0.115,-0.145 0.288,-0.26 0.519,-0.346 0.201,-0.115 0.461,-0.174 0.777,-0.174 0.404,0 0.721,0.115 0.98,0.317 0.23,0.202 0.374,0.49 0.374,0.894 0,0.058 0,0.115 -0.029,0.173 0.002,0.088 0.002,0.145 -0.027,0.203 z m 5.043,-0.201 -0.548,2.564 c -0.028,0.087 -0.028,0.173 -0.028,0.23 -0.029,0.058 -0.029,0.145 -0.029,0.173 0,0.115 0.029,0.202 0.057,0.23 0.029,0.058 0.087,0.087 0.116,0.115 l -0.029,0.173 h -1.354 v -0.115 -0.115 -0.028 -0.145 -0.144 c -0.029,0.028 -0.058,0.058 -0.115,0.086 -0.029,0.028 -0.058,0.058 -0.115,0.087 a 3.45,3.45 0 0 1 -0.576,0.346 c -0.23,0.086 -0.519,0.144 -0.865,0.144 a 1.65,1.65 0 0 1 -0.835,-0.23 c -0.23,-0.173 -0.346,-0.432 -0.346,-0.778 v -0.172 c 0.029,-0.059 0.029,-0.116 0.029,-0.174 0.116,-0.489 0.317,-0.835 0.634,-1.065 0.317,-0.26 0.663,-0.403 1.066,-0.462 l 1.153,-0.173 h 0.086 c 0,0 0.029,-0.028 0.058,-0.028 0.086,0 0.173,-0.058 0.23,-0.086 a 0.308,0.308 0 0 0 0.145,-0.26 c 0.028,-0.029 0.028,-0.058 0.028,-0.058 v -0.087 c 0,-0.144 -0.058,-0.23 -0.144,-0.288 -0.115,-0.058 -0.23,-0.086 -0.346,-0.115 h -0.23 c -0.23,0 -0.432,0.058 -0.547,0.145 -0.145,0.115 -0.231,0.201 -0.259,0.316 a 0.22,0.22 0 0 0 -0.058,0.115 c 0,0.029 -0.028,0.058 -0.028,0.087 h -1.21 c 0.202,-0.634 0.49,-1.066 0.893,-1.297 a 3.235,3.235 0 0 1 1.239,-0.346 h 0.173 c 0.058,0 0.115,-0.029 0.173,-0.029 0.087,0 0.173,0.029 0.259,0.029 0.115,0 0.231,0.029 0.317,0.029 0.26,0.057 0.519,0.173 0.721,0.316 0.202,0.145 0.317,0.403 0.317,0.721 v 0.144 c -0.003,0.03 -0.032,0.087 -0.032,0.145 z m -1.585,1.786 0.115,-0.604 c -0.086,0.058 -0.173,0.086 -0.317,0.144 -0.115,0.029 -0.317,0.087 -0.576,0.115 -0.23,0.029 -0.461,0.115 -0.634,0.202 -0.201,0.086 -0.317,0.259 -0.375,0.519 v 0.143 c 0,0.145 0.029,0.231 0.086,0.288 0.087,0.059 0.173,0.116 0.26,0.116 h 0.058 c 0.028,0 0.028,0.028 0.057,0.028 0.029,0 0.086,-0.028 0.116,-0.028 h 0.144 c 0.231,-0.058 0.461,-0.145 0.663,-0.317 a 0.996,0.996 0 0 0 0.403,-0.606 z m 3.228,1.7 h -1.239 l 1.354,-6.396 h 1.268 z m 8.011,0 h -1.24 l 0.145,-0.604 h -0.029 a 1.835,1.835 0 0 1 -0.488,0.461 2.1,2.1 0 0 1 -0.549,0.201 c -0.086,0.029 -0.172,0.029 -0.26,0.058 h -0.23 c -0.547,0 -0.951,-0.173 -1.18,-0.489 -0.23,-0.346 -0.348,-0.75 -0.348,-1.239 0,-0.145 0,-0.26 0.029,-0.403 0,-0.145 0.029,-0.26 0.059,-0.404 0.145,-0.749 0.461,-1.354 0.893,-1.757 0.432,-0.375 0.893,-0.605 1.383,-0.663 h 0.088 c 0.057,0 0.086,-0.029 0.115,-0.029 0.316,0 0.547,0.059 0.719,0.174 0.174,0.115 0.289,0.23 0.375,0.346 0.029,0.058 0.059,0.086 0.059,0.115 0.029,0.058 0.057,0.086 0.057,0.115 h 0.029 l 0.49,-2.276 h 1.238 z m -2.824,-2.334 c -0.029,0.087 -0.029,0.144 -0.059,0.23 v 0.26 c 0,0.23 0.059,0.461 0.174,0.662 0.086,0.173 0.287,0.288 0.576,0.288 0.404,0 0.721,-0.144 0.951,-0.432 0.23,-0.26 0.375,-0.576 0.461,-0.922 v -0.087 c 0.029,-0.028 0.029,-0.058 0.029,-0.087 0,-0.057 0.027,-0.144 0.027,-0.229 v -0.202 c 0,-0.26 -0.057,-0.49 -0.172,-0.663 -0.115,-0.173 -0.316,-0.259 -0.635,-0.259 -0.402,0 -0.691,0.144 -0.922,0.432 -0.2,0.318 -0.344,0.635 -0.43,1.009 z m 7.002,0.951 h 1.268 a 2.873,2.873 0 0 1 -0.691,0.922 c -0.287,0.202 -0.576,0.375 -0.863,0.461 l -0.434,0.087 c -0.145,0.028 -0.26,0.028 -0.402,0.028 -0.549,0 -1.01,-0.115 -1.385,-0.374 -0.344,-0.26 -0.518,-0.691 -0.518,-1.326 0,-0.144 0,-0.259 0.029,-0.403 0,-0.144 0.027,-0.316 0.057,-0.461 0.029,-0.144 0.088,-0.288 0.145,-0.49 0.086,-0.201 0.172,-0.403 0.316,-0.634 0.203,-0.316 0.461,-0.604 0.836,-0.893 0.375,-0.26 0.865,-0.404 1.498,-0.404 0.059,0 0.115,0.029 0.203,0.029 h 0.172 c 0.346,0.058 0.662,0.202 0.951,0.461 0.287,0.26 0.432,0.663 0.432,1.268 0,0.115 0,0.26 -0.027,0.404 0,0.144 -0.029,0.287 -0.059,0.461 l -0.059,0.201 h -3.256 v 0.491 c 0.029,0.173 0.088,0.346 0.203,0.49 0.115,0.115 0.346,0.201 0.662,0.201 h 0.115 c 0.029,0 0.057,-0.029 0.086,-0.029 0.145,-0.028 0.289,-0.086 0.404,-0.144 a 0.729,0.729 0 0 0 0.317,-0.346 z m 0.375,-1.469 v -0.087 -0.086 c 0,-0.288 -0.059,-0.49 -0.201,-0.605 -0.145,-0.115 -0.318,-0.201 -0.49,-0.201 h -0.058 c -0.287,0 -0.547,0.086 -0.748,0.259 -0.203,0.173 -0.346,0.403 -0.434,0.721 h 1.931 z m 5.418,-3.544 h 2.822 c 0.809,0 1.355,0.23 1.643,0.662 0.26,0.433 0.404,0.894 0.434,1.412 v 0.029 c 0,0.173 -0.029,0.316 -0.059,0.489 0,0.145 -0.029,0.317 -0.057,0.461 -0.029,0.173 -0.088,0.317 -0.145,0.49 -0.059,0.173 -0.115,0.375 -0.174,0.548 a 5.198,5.198 0 0 1 -1.094,1.585 c -0.49,0.461 -1.152,0.72 -1.959,0.72 h -2.768 z m 0.201,5.272 h 1.297 c 0.518,0.029 0.922,-0.201 1.238,-0.604 0.289,-0.433 0.52,-0.894 0.635,-1.384 0,-0.028 0,-0.058 0.029,-0.086 v -0.058 c 0.027,-0.173 0.057,-0.317 0.086,-0.461 v -0.375 c 0,-0.433 -0.086,-0.72 -0.23,-0.894 -0.174,-0.144 -0.346,-0.259 -0.549,-0.288 -0.057,0 -0.115,0 -0.172,-0.028 h -1.471 z m 7.838,-0.259 h 1.297 c -0.203,0.374 -0.434,0.691 -0.721,0.922 -0.26,0.202 -0.576,0.375 -0.865,0.461 -0.143,0.029 -0.287,0.058 -0.402,0.087 -0.145,0.028 -0.289,0.028 -0.404,0.028 -0.576,0 -1.037,-0.115 -1.383,-0.374 -0.375,-0.26 -0.547,-0.691 -0.547,-1.326 0,-0.144 0.027,-0.259 0.027,-0.403 0.029,-0.144 0.059,-0.316 0.088,-0.461 0.027,-0.144 0.057,-0.288 0.143,-0.49 0.059,-0.201 0.174,-0.403 0.289,-0.634 0.201,-0.316 0.49,-0.604 0.865,-0.893 0.373,-0.26 0.863,-0.404 1.469,-0.404 0.059,0 0.145,0.029 0.201,0.029 h 0.203 c 0.346,0.058 0.662,0.202 0.951,0.461 0.287,0.26 0.432,0.663 0.432,1.268 0,0.115 -0.029,0.26 -0.029,0.404 -0.029,0.144 -0.057,0.287 -0.086,0.461 l -0.059,0.201 h -3.227 c -0.029,0.058 -0.029,0.115 -0.029,0.173 v 0.318 a 1.1,1.1 0 0 0 0.23,0.49 c 0.115,0.115 0.346,0.201 0.662,0.201 h 0.088 c 0.029,0 0.057,-0.029 0.086,-0.029 a 2.38,2.38 0 0 0 0.432,-0.144 0.867,0.867 0 0 0 0.289,-0.346 z m 0.375,-1.469 v -0.087 -0.086 c 0,-0.288 -0.059,-0.49 -0.203,-0.605 -0.143,-0.115 -0.287,-0.201 -0.461,-0.201 h -0.057 -0.029 c -0.289,0 -0.52,0.086 -0.721,0.259 -0.201,0.173 -0.346,0.403 -0.461,0.721 h 1.932 z m 6.107,-0.433 h -1.209 v -0.028 -0.029 a 0.958,0.958 0 0 0 -0.115,-0.403 c -0.086,-0.115 -0.289,-0.173 -0.605,-0.173 -0.26,0 -0.461,0.058 -0.605,0.115 -0.115,0.087 -0.201,0.145 -0.23,0.26 v 0.028 c -0.029,0.029 -0.029,0.058 -0.029,0.058 v 0.057 c 0,0.115 0.088,0.202 0.23,0.26 0.145,0.058 0.346,0.115 0.549,0.173 0.086,0 0.172,0.028 0.258,0.028 l 0.26,0.087 c 0.318,0.058 0.605,0.173 0.895,0.346 0.258,0.145 0.402,0.375 0.402,0.721 v 0.144 c -0.029,0.058 -0.029,0.087 -0.029,0.145 -0.115,0.433 -0.287,0.749 -0.547,0.979 -0.287,0.23 -0.576,0.403 -0.863,0.49 -0.203,0.058 -0.375,0.086 -0.549,0.115 -0.172,0.028 -0.346,0.028 -0.461,0.028 h -0.029 c -0.488,0 -0.951,-0.086 -1.354,-0.288 -0.404,-0.173 -0.605,-0.519 -0.605,-1.009 0,-0.058 0.029,-0.114 0.029,-0.173 0,-0.028 0,-0.086 0.029,-0.144 l 1.268,-0.028 v 0.086 c -0.029,0.028 -0.029,0.058 -0.029,0.086 0,0.173 0.086,0.289 0.201,0.404 0.145,0.086 0.375,0.144 0.721,0.144 0.23,0 0.404,-0.028 0.52,-0.115 0.143,-0.058 0.23,-0.115 0.287,-0.202 0.029,-0.028 0.029,-0.058 0.059,-0.086 0,-0.058 0.027,-0.058 0.027,-0.086 v -0.029 -0.029 c 0,-0.144 -0.086,-0.23 -0.23,-0.288 a 4.77,4.77 0 0 0 -0.576,-0.173 c -0.086,0 -0.143,-0.028 -0.23,-0.028 -0.086,-0.029 -0.143,-0.029 -0.23,-0.058 a 4.177,4.177 0 0 1 -0.893,-0.346 c -0.26,-0.145 -0.404,-0.403 -0.404,-0.75 0,-0.028 0,-0.086 0.029,-0.144 v -0.145 c 0.029,-0.058 0.029,-0.115 0.059,-0.173 0.027,-0.086 0.057,-0.144 0.086,-0.201 0.145,-0.288 0.375,-0.576 0.721,-0.836 0.316,-0.23 0.807,-0.375 1.412,-0.375 h 0.115 c 0.057,0 0.086,0.029 0.143,0.029 0.375,0 0.721,0.115 1.066,0.288 0.318,0.145 0.49,0.49 0.49,0.979 v 0.115 c -0.005,0.059 -0.034,0.116 -0.034,0.174 z m 3.43,1.902 h 1.268 c -0.201,0.374 -0.432,0.691 -0.691,0.922 -0.287,0.202 -0.576,0.375 -0.893,0.461 -0.115,0.029 -0.26,0.058 -0.404,0.087 -0.145,0.028 -0.287,0.028 -0.402,0.028 -0.549,0 -1.01,-0.115 -1.383,-0.374 -0.348,-0.26 -0.549,-0.691 -0.549,-1.326 0,-0.144 0.029,-0.259 0.029,-0.403 0.029,-0.144 0.059,-0.316 0.086,-0.461 0.029,-0.144 0.086,-0.288 0.145,-0.49 0.059,-0.201 0.172,-0.403 0.316,-0.634 0.174,-0.316 0.461,-0.604 0.836,-0.893 0.375,-0.26 0.865,-0.404 1.498,-0.404 0.059,0 0.115,0.029 0.174,0.029 h 0.201 c 0.346,0.058 0.662,0.202 0.951,0.461 0.289,0.26 0.432,0.663 0.432,1.268 0,0.115 0,0.26 -0.027,0.404 0,0.144 -0.029,0.287 -0.059,0.461 l -0.057,0.201 h -3.258 v 0.173 c 0,0.029 -0.027,0.087 -0.027,0.145 0,0.028 0.027,0.086 0.027,0.115 v 0.058 c 0.029,0.173 0.088,0.346 0.203,0.49 0.115,0.115 0.346,0.201 0.662,0.201 h 0.086 c 0.029,0 0.059,-0.029 0.088,-0.029 0.172,-0.028 0.316,-0.086 0.432,-0.144 a 0.916,0.916 0 0 0 0.316,-0.346 z m 0.375,-1.469 v -0.087 -0.086 c 0,-0.288 -0.086,-0.49 -0.23,-0.605 -0.144,-0.115 -0.289,-0.201 -0.461,-0.201 h -0.058 c -0.316,0 -0.547,0.086 -0.748,0.259 -0.203,0.173 -0.346,0.403 -0.461,0.721 h 1.958 z m 6.455,-0.433 -0.691,3.285 h -1.24 l 0.605,-2.881 c 0.029,-0.029 0.029,-0.087 0.029,-0.145 0.029,-0.028 0.029,-0.087 0.029,-0.145 v -0.086 c 0,-0.145 -0.059,-0.26 -0.145,-0.375 -0.086,-0.115 -0.26,-0.173 -0.52,-0.173 -0.258,0 -0.518,0.087 -0.748,0.288 -0.23,0.173 -0.375,0.433 -0.461,0.808 l -0.576,2.708 h -1.24 l 1.01,-4.755 h 1.18 l -0.143,0.721 h 0.027 c 0.029,-0.058 0.059,-0.115 0.115,-0.144 l 0.174,-0.173 c 0.145,-0.145 0.316,-0.26 0.518,-0.346 0.203,-0.115 0.463,-0.174 0.779,-0.174 0.402,0 0.721,0.115 0.979,0.317 0.232,0.202 0.375,0.49 0.375,0.894 0,0.058 0,0.115 -0.029,0.173 0,0.088 0,0.145 -0.027,0.203 z m 2.65,3.285 h -1.297 l -0.691,-4.755 h 1.383 l 0.23,3.516 h 0.029 l 1.729,-3.516 h 1.326 z m 7.205,-2.362 c -0.174,0.807 -0.52,1.44 -1.066,1.815 -0.52,0.403 -1.096,0.634 -1.701,0.662 h -0.172 c -0.549,0 -1.01,-0.144 -1.383,-0.432 -0.404,-0.288 -0.578,-0.749 -0.578,-1.384 v -0.316 c 0.029,-0.115 0.059,-0.23 0.059,-0.346 0.172,-0.808 0.547,-1.441 1.066,-1.845 a 3.118,3.118 0 0 1 1.729,-0.634 c 0.029,0 0.059,-0.029 0.086,-0.029 h 0.088 c 0.547,0 1.008,0.174 1.383,0.462 0.373,0.288 0.576,0.749 0.576,1.383 0,0.086 0,0.202 -0.029,0.317 -10e-4,0.116 -0.03,0.232 -0.058,0.347 z m -1.269,0 c 0,-0.059 0.029,-0.115 0.029,-0.173 v -0.173 c 0.029,-0.029 0.029,-0.059 0.029,-0.087 v -0.086 c 0,-0.231 -0.059,-0.462 -0.201,-0.635 -0.115,-0.201 -0.346,-0.288 -0.691,-0.288 -0.375,0 -0.664,0.115 -0.865,0.317 -0.23,0.201 -0.375,0.461 -0.461,0.691 -0.029,0.087 -0.059,0.145 -0.059,0.23 a 0.57,0.57 0 0 0 -0.057,0.202 c -0.029,0.086 -0.029,0.172 -0.059,0.259 v 0.26 c 0,0.23 0.059,0.461 0.174,0.634 0.145,0.201 0.375,0.288 0.721,0.288 0.375,0 0.662,-0.115 0.863,-0.317 a 2.73,2.73 0 0 0 0.461,-0.72 c 0.029,-0.058 0.029,-0.115 0.059,-0.202 a 0.522,0.522 0 0 0 0.057,-0.2 z m 2.939,2.362 h -1.268 l 1.355,-6.396 h 1.268 z m 3.719,0 h -1.297 l -0.693,-4.755 h 1.385 l 0.23,3.516 h 0.027 l 1.73,-3.516 h 1.324 z m 4.695,-4.755 -1.008,4.755 h -1.238 l 1.008,-4.755 z m 0.116,-0.547 h -1.238 l 0.23,-1.152 h 1.268 z m 7.521,2.017 -0.691,3.285 h -1.238 l 0.604,-2.881 c 0.029,-0.059 0.029,-0.116 0.059,-0.173 v -0.174 c 0,-0.201 -0.059,-0.374 -0.145,-0.461 a 0.58,0.58 0 0 0 -0.375,-0.115 c -0.316,0 -0.547,0.087 -0.721,0.288 a 1.33,1.33 0 0 0 -0.346,0.692 l -0.604,2.823 h -1.24 l 0.605,-2.853 c 0,-0.028 0.029,-0.087 0.029,-0.145 0,-0.057 0.029,-0.086 0.029,-0.144 v -0.087 -0.058 a 0.58,0.58 0 0 0 -0.115,-0.374 c -0.088,-0.087 -0.23,-0.145 -0.49,-0.145 -0.289,0 -0.49,0.087 -0.664,0.26 a 1.275,1.275 0 0 0 -0.287,0.663 l -0.635,2.881 h -1.238 l 1.008,-4.755 h 1.182 l -0.145,0.721 h 0.029 c 0.029,-0.058 0.059,-0.086 0.115,-0.144 0.029,-0.058 0.086,-0.087 0.115,-0.145 0.145,-0.144 0.316,-0.259 0.52,-0.374 0.201,-0.115 0.461,-0.174 0.748,-0.174 0.346,0 0.605,0.087 0.779,0.202 0.143,0.115 0.287,0.317 0.402,0.576 0.029,-0.058 0.059,-0.086 0.115,-0.144 0.059,-0.058 0.145,-0.115 0.203,-0.173 0.115,-0.116 0.287,-0.23 0.461,-0.317 0.172,-0.086 0.402,-0.145 0.633,-0.145 0.404,0 0.721,0.115 0.98,0.317 0.259,0.202 0.375,0.49 0.375,0.894 v 0.173 c -0.028,0.091 -0.028,0.148 -0.057,0.206 z m 3.545,1.902 h 1.268 c -0.201,0.374 -0.432,0.691 -0.691,0.922 -0.289,0.202 -0.576,0.375 -0.893,0.461 -0.117,0.029 -0.26,0.058 -0.404,0.087 -0.145,0.028 -0.289,0.028 -0.404,0.028 -0.576,0 -1.008,-0.115 -1.383,-0.374 -0.346,-0.26 -0.547,-0.691 -0.547,-1.326 0,-0.144 0.029,-0.259 0.029,-0.403 0.027,-0.144 0.057,-0.316 0.086,-0.461 0.029,-0.144 0.086,-0.288 0.145,-0.49 0.057,-0.201 0.172,-0.403 0.316,-0.634 0.174,-0.316 0.461,-0.604 0.836,-0.893 0.375,-0.26 0.863,-0.404 1.498,-0.404 0.059,0 0.115,0.029 0.174,0.029 h 0.201 c 0.346,0.058 0.662,0.202 0.951,0.461 0.287,0.26 0.432,0.663 0.432,1.268 0,0.115 0,0.26 -0.029,0.404 0,0.144 -0.029,0.287 -0.057,0.461 l -0.059,0.201 h -3.256 v 0.173 c -0.029,0.029 -0.029,0.087 -0.029,0.145 0,0.028 0,0.086 0.029,0.115 v 0.058 c 0,0.173 0.086,0.346 0.201,0.49 0.115,0.115 0.346,0.201 0.664,0.201 H 168 c 0.029,0 0.057,-0.029 0.086,-0.029 0.174,-0.028 0.289,-0.086 0.434,-0.144 a 0.932,0.932 0 0 0 0.316,-0.346 z m 0.346,-1.469 c 0.029,-0.028 0.029,-0.058 0.029,-0.087 v -0.086 c 0,-0.288 -0.088,-0.49 -0.23,-0.605 -0.145,-0.115 -0.289,-0.201 -0.461,-0.201 h -0.088 c -0.287,0 -0.518,0.086 -0.721,0.259 -0.201,0.173 -0.346,0.403 -0.461,0.721 h 1.932 z m 6.482,-0.433 -0.691,3.285 h -1.238 l 0.605,-2.881 c 0.029,-0.029 0.029,-0.087 0.029,-0.145 0.027,-0.028 0.027,-0.087 0.027,-0.145 v -0.086 a 0.597,0.597 0 0 0 -0.145,-0.375 c -0.086,-0.115 -0.258,-0.173 -0.518,-0.173 -0.289,0 -0.52,0.087 -0.75,0.288 -0.23,0.173 -0.373,0.433 -0.461,0.808 l -0.576,2.708 h -1.238 l 0.979,-4.755 h 1.211 l -0.145,0.721 h 0.029 c 0.029,-0.058 0.059,-0.115 0.115,-0.144 0.059,-0.058 0.086,-0.115 0.174,-0.173 0.115,-0.145 0.287,-0.26 0.518,-0.346 0.201,-0.115 0.461,-0.174 0.779,-0.174 0.402,0 0.719,0.115 0.979,0.317 0.23,0.202 0.375,0.49 0.375,0.894 0,0.058 0,0.115 -0.029,0.173 0,0.088 0,0.145 -0.029,0.203 z m 2.883,-1.47 h 0.748 l -0.172,0.894 h -0.777 l -0.549,2.594 c 0,0.028 0,0.058 -0.029,0.086 v 0.087 c 0,0.086 0.029,0.145 0.088,0.173 0.057,0.028 0.201,0.028 0.375,0.028 h 0.258 l -0.201,0.923 h -0.287 c -0.088,0.028 -0.203,0.028 -0.289,0.028 h -0.174 c -0.432,0 -0.719,-0.058 -0.863,-0.201 a 0.574,0.574 0 0 1 -0.23,-0.49 v -0.144 c 0.029,-0.058 0.029,-0.145 0.057,-0.202 l 0.605,-2.882 h -0.633 l 0.172,-0.894 h 0.635 l 0.287,-1.268 h 1.24 z m 5.619,2.393 c -0.174,0.807 -0.52,1.44 -1.066,1.815 -0.52,0.403 -1.096,0.634 -1.729,0.662 h -0.088 -0.057 c -0.547,0 -1.037,-0.144 -1.412,-0.432 -0.375,-0.288 -0.576,-0.749 -0.576,-1.384 0,-0.086 0.029,-0.201 0.029,-0.316 0.027,-0.115 0.027,-0.23 0.057,-0.346 0.174,-0.808 0.52,-1.441 1.066,-1.845 a 2.967,2.967 0 0 1 1.701,-0.634 c 0.027,0 0.057,-0.029 0.086,-0.029 h 0.086 a 2.37,2.37 0 0 1 1.412,0.462 c 0.375,0.288 0.576,0.749 0.576,1.383 0,0.086 -0.029,0.202 -0.029,0.317 0,0.115 -0.027,0.232 -0.056,0.347 z m -1.268,0 c 0,-0.059 0,-0.115 0.027,-0.173 v -0.173 -0.087 -0.086 c 0,-0.231 -0.057,-0.462 -0.172,-0.635 -0.115,-0.201 -0.346,-0.288 -0.691,-0.288 -0.375,0 -0.691,0.115 -0.895,0.317 a 1.98,1.98 0 0 0 -0.432,0.691 c -0.029,0.087 -0.057,0.145 -0.086,0.23 -0.029,0.058 -0.029,0.144 -0.029,0.202 -0.029,0.086 -0.057,0.172 -0.057,0.259 0,0.087 -0.029,0.173 -0.029,0.26 0,0.23 0.086,0.461 0.201,0.634 0.115,0.201 0.346,0.288 0.691,0.288 0.375,0 0.664,-0.115 0.895,-0.317 a 2.09,2.09 0 0 0 0.432,-0.72 c 0.029,-0.058 0.057,-0.115 0.086,-0.202 0.03,-0.057 0.03,-0.143 0.059,-0.2 z m -160.419,8.644 h -1.326 c 0,-0.058 -0.028,-0.115 -0.028,-0.201 0,-0.059 -0.029,-0.145 -0.058,-0.231 -0.029,-0.173 -0.145,-0.316 -0.317,-0.461 -0.144,-0.144 -0.403,-0.202 -0.778,-0.202 -0.116,0 -0.259,0.029 -0.403,0.059 a 1.318,1.318 0 0 0 -0.432,0.173 c -0.26,0.144 -0.49,0.374 -0.721,0.691 -0.231,0.317 -0.403,0.749 -0.519,1.325 -0.029,0.115 -0.029,0.26 -0.058,0.375 0,0.144 -0.029,0.259 -0.029,0.375 0,0.402 0.115,0.749 0.288,1.008 0.173,0.288 0.49,0.403 0.922,0.403 0.375,0 0.692,-0.086 1.009,-0.288 0.288,-0.23 0.49,-0.519 0.663,-0.893 l 1.326,-0.029 a 3.727,3.727 0 0 1 -1.239,1.7 c -0.547,0.461 -1.239,0.663 -2.017,0.663 -0.72,0 -1.268,-0.202 -1.7,-0.576 -0.432,-0.404 -0.634,-0.98 -0.634,-1.758 0,-0.145 0,-0.317 0.029,-0.462 0.029,-0.173 0.058,-0.374 0.086,-0.547 0.23,-1.124 0.692,-1.96 1.383,-2.536 0.691,-0.547 1.441,-0.836 2.276,-0.836 0.749,0 1.297,0.173 1.643,0.49 0.317,0.346 0.547,0.691 0.605,1.095 0.029,0.058 0.029,0.115 0.029,0.202 a 0.487,0.487 0 0 1 0.029,0.201 v 0.145 c -0.029,0.028 -0.029,0.086 -0.029,0.115 z m 2.277,-0.432 -0.98,4.726 h -1.268 l 1.009,-4.726 z m 0.116,-0.576 h -1.239 l 0.259,-1.152 h 1.239 z m 3.169,3.919 h 1.268 a 2.99,2.99 0 0 1 -0.691,0.922 2.42,2.42 0 0 1 -0.894,0.461 0.993,0.993 0 0 1 -0.403,0.087 2.245,2.245 0 0 1 -0.403,0.058 c -0.577,0 -1.009,-0.145 -1.383,-0.403 -0.346,-0.23 -0.547,-0.691 -0.547,-1.325 0,-0.115 0.028,-0.26 0.028,-0.404 0.029,-0.144 0.058,-0.288 0.087,-0.461 0.029,-0.115 0.086,-0.288 0.144,-0.489 0.058,-0.202 0.173,-0.403 0.317,-0.634 0.173,-0.317 0.461,-0.605 0.835,-0.865 0.375,-0.259 0.865,-0.403 1.47,-0.403 h 0.202 c 0.086,0 0.145,0 0.202,0.029 0.346,0.058 0.663,0.201 0.951,0.432 0.288,0.26 0.432,0.692 0.432,1.269 0,0.144 0,0.259 -0.029,0.403 0,0.144 -0.029,0.317 -0.086,0.461 l -0.029,0.23 h -3.256 v 0.144 c -0.029,0.059 -0.029,0.115 -0.029,0.174 0,0.028 0,0.058 0.029,0.086 v 0.086 c 0,0.174 0.086,0.317 0.202,0.462 0.115,0.144 0.346,0.201 0.663,0.201 h 0.172 c 0.173,-0.028 0.288,-0.086 0.432,-0.173 a 0.945,0.945 0 0 0 0.316,-0.348 z m 0.346,-1.441 c 0.028,-0.029 0.028,-0.058 0.028,-0.115 v -0.087 c 0,-0.288 -0.086,-0.489 -0.23,-0.605 a 0.95,0.95 0 0 0 -0.461,-0.201 h -0.087 c -0.288,0 -0.519,0.087 -0.72,0.26 -0.201,0.173 -0.346,0.432 -0.461,0.749 h 1.931 z m 6.484,-0.433 -0.691,3.256 h -1.24 l 0.605,-2.881 c 0.029,-0.029 0.029,-0.058 0.029,-0.115 0.029,-0.058 0.029,-0.115 0.029,-0.173 v -0.029 -0.058 a 0.686,0.686 0 0 0 -0.144,-0.375 c -0.086,-0.114 -0.259,-0.173 -0.519,-0.173 -0.288,0 -0.519,0.116 -0.75,0.289 -0.231,0.173 -0.375,0.461 -0.461,0.807 l -0.576,2.708 h -1.239 l 0.98,-4.726 h 1.21 l -0.144,0.691 c 0.058,-0.028 0.086,-0.086 0.144,-0.144 a 0.487,0.487 0 0 1 0.173,-0.173 c 0.115,-0.115 0.288,-0.23 0.519,-0.346 0.202,-0.087 0.461,-0.145 0.778,-0.145 0.403,0 0.72,0.087 0.979,0.288 0.23,0.202 0.375,0.49 0.375,0.894 0,0.058 0,0.115 -0.029,0.202 0,0.06 0,0.118 -0.028,0.203 z m 2.881,-1.469 h 0.75 l -0.173,0.894 H 37.55 l -0.547,2.564 c 0,0.029 0,0.087 -0.029,0.115 v 0.087 c 0,0.058 0.029,0.115 0.086,0.144 a 0.995,0.995 0 0 0 0.375,0.058 c 0.058,0 0.086,0 0.144,-0.028 h 0.116 l -0.202,0.922 c -0.086,0.029 -0.173,0.029 -0.288,0.029 h -0.461 c -0.433,0 -0.721,-0.059 -0.865,-0.174 -0.144,-0.115 -0.23,-0.287 -0.23,-0.489 v -0.173 c 0.029,-0.058 0.029,-0.115 0.058,-0.173 l 0.605,-2.882 h -0.634 l 0.173,-0.894 h 0.634 l 0.289,-1.296 h 1.239 z m 2.824,0 -1.008,4.726 h -1.239 l 1.008,-4.726 z m -0.086,-0.634 h -0.922 l 1.124,-1.297 h 1.383 z m 1.729,5.359 h -1.24 l 0.808,-3.832 h -0.692 l 0.202,-0.894 h 0.691 l 0.058,-0.374 c 0.115,-0.49 0.317,-0.836 0.605,-1.038 0.288,-0.201 0.663,-0.316 1.095,-0.316 h 0.403 c 0.086,0 0.173,0 0.231,0.028 l -0.231,0.98 h -0.346 c -0.173,0 -0.317,0.057 -0.375,0.115 a 0.651,0.651 0 0 0 -0.144,0.316 v 0.058 c 0,0 0,0.029 -0.029,0.058 l -0.029,0.173 h 0.807 l -0.202,0.894 h -0.807 z m 3.803,-4.725 -1.008,4.726 h -1.239 l 1.009,-4.726 z m 0.116,-0.576 h -1.239 l 0.23,-1.152 h 1.268 z m 3.256,3.573 h 1.268 c -0.029,0.115 -0.086,0.23 -0.173,0.375 a 1.458,1.458 0 0 1 -0.288,0.489 3.24,3.24 0 0 1 -0.807,0.691 c -0.346,0.202 -0.778,0.317 -1.297,0.317 -0.691,0 -1.181,-0.173 -1.412,-0.547 a 1.996,1.996 0 0 1 -0.346,-1.125 v -0.346 c 0.028,-0.115 0.058,-0.23 0.058,-0.346 0.173,-0.777 0.49,-1.383 0.951,-1.873 0.461,-0.519 1.095,-0.749 1.902,-0.749 h 0.26 c 0.086,0.029 0.201,0.029 0.288,0.058 0.288,0.087 0.547,0.23 0.807,0.433 0.23,0.23 0.375,0.547 0.346,1.009 v 0.317 h -1.268 v -0.028 -0.029 -0.086 c 0,-0.058 0,-0.087 -0.029,-0.116 a 0.48,0.48 0 0 0 -0.144,-0.346 c -0.087,-0.114 -0.231,-0.173 -0.433,-0.173 h -0.058 c -0.317,0 -0.576,0.116 -0.749,0.317 a 1.76,1.76 0 0 0 -0.433,0.691 c -0.028,0.058 -0.028,0.115 -0.058,0.202 -0.029,0.058 -0.029,0.115 -0.058,0.173 v 0.086 c -0.029,0.058 -0.029,0.145 -0.058,0.23 0,0.087 -0.028,0.174 -0.028,0.26 v 0.145 c 0,0.201 0.057,0.403 0.144,0.576 0.086,0.144 0.289,0.23 0.576,0.23 0.202,0 0.375,-0.029 0.519,-0.145 0.144,-0.086 0.23,-0.201 0.317,-0.288 0.058,-0.086 0.115,-0.144 0.145,-0.23 0.028,-0.058 0.057,-0.115 0.057,-0.144 v -0.028 z m 6.829,-0.634 c -0.173,0.835 -0.519,1.44 -1.066,1.844 a 2.962,2.962 0 0 1 -1.7,0.635 c -0.028,0 -0.058,0.028 -0.086,0.028 h -0.086 a 2.368,2.368 0 0 1 -1.412,-0.461 c -0.374,-0.288 -0.576,-0.749 -0.576,-1.354 0,-0.115 0.029,-0.202 0.029,-0.317 0.029,-0.115 0.029,-0.259 0.058,-0.374 0.173,-0.807 0.519,-1.412 1.066,-1.815 0.548,-0.403 1.095,-0.634 1.729,-0.663 h 0.144 c 0.547,0 1.038,0.145 1.412,0.433 0.375,0.316 0.576,0.777 0.576,1.383 0,0.115 0,0.202 -0.028,0.317 a 1.543,1.543 0 0 1 -0.06,0.344 z m -1.268,0 c 0,-0.058 0.029,-0.087 0.029,-0.145 v -0.173 c 0.029,-0.028 0.029,-0.058 0.029,-0.086 v -0.087 c 0,-0.259 -0.058,-0.461 -0.202,-0.662 -0.115,-0.173 -0.346,-0.289 -0.691,-0.289 -0.375,0 -0.663,0.116 -0.894,0.317 -0.202,0.23 -0.346,0.461 -0.432,0.721 -0.029,0.058 -0.058,0.144 -0.086,0.201 0,0.087 -0.029,0.145 -0.029,0.202 -0.029,0.086 -0.029,0.173 -0.058,0.259 v 0.289 c 0,0.23 0.058,0.432 0.173,0.634 0.115,0.173 0.375,0.259 0.691,0.259 0.375,0 0.663,-0.086 0.893,-0.316 0.202,-0.202 0.346,-0.433 0.433,-0.691 0.029,-0.087 0.058,-0.145 0.086,-0.23 0.029,-0.059 0.029,-0.117 0.058,-0.203 z m 7.204,0.98 h 1.268 a 2.652,2.652 0 0 1 -0.72,0.922 c -0.259,0.23 -0.548,0.375 -0.864,0.461 a 1,1 0 0 1 -0.403,0.087 c -0.145,0.029 -0.288,0.058 -0.404,0.058 -0.576,0 -1.038,-0.145 -1.383,-0.403 -0.374,-0.23 -0.547,-0.691 -0.547,-1.325 0,-0.115 0.029,-0.26 0.029,-0.404 0.029,-0.144 0.058,-0.288 0.087,-0.461 0.028,-0.115 0.058,-0.288 0.144,-0.489 0.058,-0.202 0.173,-0.403 0.288,-0.634 a 3.09,3.09 0 0 1 0.865,-0.865 c 0.375,-0.259 0.865,-0.403 1.47,-0.403 h 0.202 c 0.058,0 0.144,0 0.202,0.029 0.346,0.058 0.663,0.201 0.951,0.432 0.288,0.26 0.433,0.692 0.433,1.269 0,0.144 -0.029,0.259 -0.029,0.403 -0.029,0.144 -0.029,0.317 -0.086,0.461 l -0.029,0.23 h -3.256 c 0,0.028 -0.029,0.087 -0.029,0.144 v 0.346 c 0.029,0.174 0.115,0.317 0.23,0.462 0.115,0.144 0.346,0.201 0.663,0.201 h 0.172 c 0.145,-0.028 0.288,-0.086 0.433,-0.173 a 0.964,0.964 0 0 0 0.313,-0.348 z m 0.346,-1.441 v -0.115 -0.087 c 0,-0.288 -0.058,-0.489 -0.202,-0.605 a 0.953,0.953 0 0 0 -0.461,-0.201 h -0.058 -0.029 c -0.288,0 -0.519,0.087 -0.72,0.26 -0.201,0.173 -0.346,0.432 -0.461,0.749 h 1.931 z m 6.8,2.823 h -1.354 l 1.124,-5.244 h -1.931 l 0.26,-1.152 h 5.187 l -0.23,1.152 H 70.43 Z m 5.158,-1.382 h 1.297 a 2.664,2.664 0 0 1 -0.72,0.922 c -0.289,0.23 -0.577,0.375 -0.865,0.461 a 1.13,1.13 0 0 1 -0.432,0.087 c -0.144,0.029 -0.259,0.058 -0.404,0.058 -0.547,0 -1.008,-0.145 -1.354,-0.403 -0.375,-0.23 -0.547,-0.691 -0.547,-1.325 0,-0.115 0,-0.26 0.028,-0.404 0,-0.144 0.029,-0.288 0.087,-0.461 0,-0.115 0.058,-0.288 0.115,-0.489 0.086,-0.202 0.173,-0.403 0.317,-0.634 a 3.09,3.09 0 0 1 0.865,-0.865 c 0.346,-0.259 0.864,-0.403 1.469,-0.403 h 0.202 c 0.058,0 0.115,0 0.202,0.029 0.317,0.058 0.634,0.201 0.922,0.432 0.288,0.26 0.432,0.692 0.432,1.269 v 0.403 c -0.029,0.144 -0.058,0.317 -0.086,0.461 l -0.058,0.23 h -3.256 v 0.49 a 0.787,0.787 0 0 0 0.23,0.462 c 0.116,0.144 0.317,0.201 0.663,0.201 h 0.173 c 0.144,-0.028 0.288,-0.086 0.432,-0.173 a 0.86,0.86 0 0 0 0.288,-0.348 z m 0.375,-1.441 v -0.115 -0.087 c 0,-0.288 -0.057,-0.489 -0.202,-0.605 a 1.05,1.05 0 0 0 -0.49,-0.201 h -0.058 c -0.288,0 -0.547,0.087 -0.75,0.26 a 1.711,1.711 0 0 0 -0.432,0.749 h 1.932 z m 4.668,1.095 h 1.268 c -0.028,0.115 -0.086,0.23 -0.144,0.375 a 4.31,4.31 0 0 1 -0.289,0.489 3.24,3.24 0 0 1 -0.807,0.691 c -0.346,0.202 -0.778,0.317 -1.326,0.317 -0.691,0 -1.152,-0.173 -1.383,-0.547 a 1.826,1.826 0 0 1 -0.375,-1.125 c 0,-0.114 0.029,-0.23 0.029,-0.346 0,-0.116 0.028,-0.23 0.057,-0.346 0.173,-0.777 0.461,-1.383 0.922,-1.873 0.461,-0.519 1.095,-0.749 1.901,-0.749 h 0.289 c 0.086,0.029 0.173,0.029 0.259,0.058 0.317,0.087 0.576,0.23 0.807,0.433 0.26,0.23 0.375,0.547 0.375,1.009 v 0.144 c 0,0.058 0,0.115 -0.028,0.173 h -1.268 v -0.028 -0.029 -0.086 -0.116 a 0.658,0.658 0 0 0 -0.173,-0.346 c -0.086,-0.114 -0.23,-0.173 -0.433,-0.173 H 79.159 79.13 c -0.317,0 -0.548,0.116 -0.75,0.317 a 2.073,2.073 0 0 0 -0.403,0.691 c -0.029,0.058 -0.058,0.115 -0.086,0.202 0,0.058 -0.029,0.115 -0.029,0.173 0,0 0,0.029 -0.029,0.029 v 0.057 c 0,0.058 -0.029,0.145 -0.029,0.23 -0.029,0.087 -0.029,0.174 -0.029,0.26 0,0.029 -0.029,0.058 -0.029,0.086 v 0.059 c 0,0.201 0.058,0.403 0.173,0.576 0.086,0.144 0.288,0.23 0.576,0.23 0.202,0 0.346,-0.029 0.49,-0.145 0.144,-0.086 0.259,-0.201 0.346,-0.288 a 0.853,0.853 0 0 0 0.115,-0.23 c 0.029,-0.058 0.058,-0.115 0.058,-0.144 v -0.028 z m 6.743,-1.528 -0.691,3.256 h -1.239 l 0.605,-2.881 c 0.029,-0.029 0.029,-0.058 0.029,-0.115 0.028,-0.058 0.028,-0.115 0.028,-0.173 v -0.029 -0.058 a 0.678,0.678 0 0 0 -0.144,-0.375 c -0.087,-0.114 -0.26,-0.173 -0.519,-0.173 -0.259,0 -0.519,0.116 -0.749,0.289 -0.23,0.173 -0.375,0.461 -0.461,0.807 l -0.576,2.708 h -1.239 l 1.008,-4.726 h 1.182 l -0.144,0.691 h 0.029 c 0.029,-0.028 0.058,-0.086 0.115,-0.144 l 0.173,-0.173 a 4.13,4.13 0 0 1 0.519,-0.346 c 0.202,-0.087 0.461,-0.145 0.778,-0.145 0.403,0 0.72,0.087 0.979,0.288 0.26,0.202 0.375,0.49 0.375,0.894 0,0.058 0,0.115 -0.029,0.202 0,0.06 0,0.118 -0.029,0.203 z m 5.533,0.894 c -0.173,0.835 -0.519,1.44 -1.037,1.844 -0.548,0.403 -1.124,0.605 -1.729,0.635 -0.029,0 -0.058,0.028 -0.086,0.028 h -0.086 a 2.217,2.217 0 0 1 -1.383,-0.461 c -0.403,-0.288 -0.576,-0.749 -0.576,-1.354 v -0.317 a 1.73,1.73 0 0 0 0.058,-0.374 c 0.173,-0.807 0.547,-1.412 1.066,-1.815 0.547,-0.403 1.124,-0.634 1.729,-0.663 h 0.172 c 0.548,0 1.009,0.145 1.383,0.433 0.375,0.316 0.576,0.777 0.576,1.383 0,0.115 0,0.202 -0.029,0.317 a 1.483,1.483 0 0 1 -0.058,0.344 z m -1.268,0 c 0,-0.058 0.029,-0.087 0.029,-0.145 v -0.173 c 0.028,-0.028 0.028,-0.058 0.028,-0.086 v -0.087 c 0,-0.259 -0.057,-0.461 -0.202,-0.662 -0.115,-0.173 -0.346,-0.289 -0.691,-0.289 -0.375,0 -0.663,0.116 -0.864,0.317 -0.23,0.23 -0.375,0.461 -0.461,0.721 a 0.533,0.533 0 0 0 -0.058,0.201 c -0.029,0.087 -0.058,0.145 -0.058,0.202 -0.029,0.086 -0.029,0.173 -0.057,0.259 v 0.289 c 0,0.23 0.057,0.432 0.173,0.634 0.144,0.173 0.374,0.259 0.72,0.259 0.375,0 0.663,-0.086 0.865,-0.316 0.202,-0.202 0.346,-0.433 0.461,-0.691 0.029,-0.087 0.029,-0.145 0.058,-0.23 0.028,-0.059 0.028,-0.117 0.057,-0.203 z m 2.91,2.362 h -1.239 l 1.383,-6.396 h 1.239 z m 6.283,-2.362 c -0.174,0.835 -0.52,1.44 -1.066,1.844 -0.549,0.403 -1.125,0.605 -1.729,0.635 -0.029,0 -0.059,0.028 -0.087,0.028 h -0.087 c -0.547,0 -1.008,-0.173 -1.383,-0.461 -0.375,-0.288 -0.576,-0.749 -0.576,-1.354 0,-0.115 0,-0.202 0.029,-0.317 0,-0.115 0.029,-0.259 0.058,-0.374 0.173,-0.807 0.519,-1.412 1.066,-1.815 0.519,-0.403 1.094,-0.634 1.7,-0.663 h 0.174 c 0.547,0 1.008,0.145 1.383,0.433 0.404,0.316 0.576,0.777 0.576,1.383 v 0.317 c 0,0.115 -0.031,0.229 -0.058,0.344 z m -1.297,0 c 0.027,-0.058 0.027,-0.087 0.027,-0.145 0.029,-0.058 0.029,-0.115 0.029,-0.173 v -0.086 -0.087 c 0,-0.259 -0.057,-0.461 -0.172,-0.662 -0.115,-0.173 -0.346,-0.289 -0.721,-0.289 -0.375,0 -0.663,0.116 -0.865,0.317 -0.202,0.23 -0.346,0.461 -0.461,0.721 a 0.523,0.523 0 0 1 -0.058,0.201 c -0.028,0.087 -0.028,0.145 -0.057,0.202 0,0.086 -0.029,0.173 -0.029,0.259 -0.028,0.087 -0.028,0.174 -0.028,0.289 0,0.23 0.058,0.432 0.201,0.634 0.115,0.173 0.346,0.259 0.691,0.259 0.375,0 0.663,-0.086 0.866,-0.316 0.23,-0.202 0.373,-0.433 0.461,-0.691 0.027,-0.087 0.057,-0.145 0.086,-0.23 0.001,-0.059 0.03,-0.117 0.03,-0.203 z m -0.115,-2.997 H 97.4 l 1.096,-1.297 h 1.383 z m 7.117,0.634 -0.951,4.495 c -0.029,0.115 -0.059,0.23 -0.086,0.375 -0.029,0.115 -0.086,0.26 -0.145,0.403 -0.145,0.346 -0.432,0.663 -0.807,0.951 -0.375,0.288 -0.98,0.433 -1.816,0.433 -0.461,0 -0.863,-0.087 -1.238,-0.289 -0.346,-0.172 -0.547,-0.489 -0.547,-0.922 v -0.115 c 0,-0.028 0.027,-0.058 0.027,-0.086 h 1.355 c 0,0.115 0.029,0.23 0.115,0.316 0.057,0.115 0.287,0.145 0.633,0.145 0.346,0 0.605,-0.058 0.809,-0.23 0.201,-0.173 0.346,-0.461 0.432,-0.836 l 0.115,-0.576 -0.029,-0.029 c -0.115,0.202 -0.316,0.375 -0.518,0.519 -0.23,0.145 -0.52,0.202 -0.895,0.202 -0.461,0 -0.836,-0.145 -1.152,-0.403 -0.289,-0.288 -0.432,-0.691 -0.432,-1.268 v -0.347 c 0.027,-0.144 0.057,-0.288 0.086,-0.402 0.145,-0.778 0.461,-1.354 0.893,-1.758 0.434,-0.404 0.895,-0.635 1.383,-0.692 h 0.203 c 0.316,0 0.547,0.058 0.721,0.173 0.172,0.087 0.287,0.23 0.373,0.346 0.029,0.058 0.059,0.115 0.059,0.174 0.029,0.057 0.029,0.086 0.057,0.144 l 0.029,-0.029 0.145,-0.691 h 1.181 z m -3.775,2.391 c -0.029,0.029 -0.029,0.087 -0.029,0.115 -0.027,0.029 -0.027,0.087 -0.027,0.115 v 0.23 c 0,0.231 0.057,0.433 0.172,0.605 0.115,0.172 0.289,0.26 0.576,0.26 0.375,0 0.691,-0.115 0.895,-0.375 0.201,-0.259 0.346,-0.519 0.402,-0.807 0.029,-0.029 0.029,-0.058 0.029,-0.087 0.029,-0.058 0.029,-0.086 0.029,-0.114 0.027,-0.059 0.027,-0.145 0.027,-0.202 v -0.23 c 0,-0.26 -0.057,-0.49 -0.172,-0.663 -0.145,-0.201 -0.346,-0.288 -0.635,-0.288 -0.057,0 -0.115,0 -0.172,0.029 a 0.392,0.392 0 0 0 -0.201,0.058 c -0.174,0.057 -0.348,0.201 -0.52,0.432 -0.173,0.203 -0.316,0.519 -0.374,0.922 z m 6.166,-2.391 -1.008,4.726 h -1.268 l 1.008,-4.726 z m 0.115,-0.576 h -1.268 l 0.26,-1.152 h 1.238 z m 3.228,3.573 h 1.268 c -0.029,0.115 -0.086,0.23 -0.145,0.375 a 4.288,4.288 0 0 1 -0.287,0.489 c -0.203,0.231 -0.461,0.49 -0.807,0.691 -0.348,0.202 -0.779,0.317 -1.326,0.317 -0.691,0 -1.152,-0.173 -1.383,-0.547 a 1.82,1.82 0 0 1 -0.375,-1.125 c 0,-0.114 0.029,-0.23 0.029,-0.346 0,-0.116 0.027,-0.23 0.057,-0.346 0.174,-0.777 0.461,-1.383 0.922,-1.873 0.461,-0.519 1.096,-0.749 1.902,-0.749 h 0.289 c 0.086,0.029 0.172,0.029 0.258,0.058 0.318,0.087 0.576,0.23 0.807,0.433 0.26,0.23 0.375,0.547 0.375,1.009 v 0.144 c 0,0.058 0,0.115 -0.027,0.173 h -1.27 v -0.028 -0.029 -0.086 -0.116 a 0.65,0.65 0 0 0 -0.172,-0.346 c -0.086,-0.114 -0.23,-0.173 -0.434,-0.173 h -0.027 -0.029 c -0.316,0 -0.547,0.116 -0.75,0.317 a 1.687,1.687 0 0 0 -0.402,0.691 c -0.029,0.058 -0.059,0.115 -0.086,0.202 0,0.058 -0.029,0.115 -0.029,0.173 l -0.029,0.029 v 0.057 c 0,0.058 -0.029,0.145 -0.029,0.23 -0.027,0.087 -0.027,0.174 -0.027,0.26 0,0.029 -0.029,0.058 -0.029,0.086 v 0.059 c 0,0.201 0.057,0.403 0.172,0.576 0.088,0.144 0.289,0.23 0.576,0.23 0.203,0 0.348,-0.029 0.49,-0.145 0.145,-0.086 0.26,-0.201 0.346,-0.288 a 0.774,0.774 0 0 0 0.115,-0.23 c 0.029,-0.058 0.059,-0.115 0.059,-0.144 v -0.028 z m 6.858,-0.634 c -0.172,0.835 -0.547,1.44 -1.066,1.844 a 3.12,3.12 0 0 1 -1.729,0.635 c -0.029,0 -0.057,0.028 -0.086,0.028 h -0.086 c -0.549,0 -1.01,-0.173 -1.385,-0.461 -0.373,-0.288 -0.576,-0.749 -0.576,-1.354 0,-0.115 0,-0.202 0.029,-0.317 0,-0.115 0.029,-0.259 0.059,-0.374 0.172,-0.807 0.518,-1.412 1.037,-1.815 0.547,-0.403 1.123,-0.634 1.729,-0.663 h 0.174 c 0.547,0 1.008,0.145 1.383,0.433 0.402,0.316 0.576,0.777 0.576,1.383 v 0.317 c -0.03,0.114 -0.03,0.229 -0.059,0.344 z m -1.297,0 c 0.029,-0.058 0.029,-0.087 0.029,-0.145 0.029,-0.058 0.029,-0.115 0.029,-0.173 v -0.086 -0.087 c 0,-0.259 -0.059,-0.461 -0.174,-0.662 -0.115,-0.173 -0.375,-0.289 -0.721,-0.289 -0.373,0 -0.662,0.116 -0.863,0.317 -0.201,0.23 -0.375,0.461 -0.461,0.721 -0.029,0.058 -0.029,0.144 -0.059,0.201 -0.029,0.087 -0.029,0.145 -0.057,0.202 0,0.086 -0.029,0.173 -0.029,0.259 -0.029,0.087 -0.029,0.174 -0.029,0.289 0,0.23 0.059,0.432 0.203,0.634 0.113,0.173 0.346,0.259 0.691,0.259 0.373,0 0.662,-0.086 0.863,-0.316 0.203,-0.202 0.375,-0.433 0.461,-0.691 0.029,-0.087 0.059,-0.145 0.088,-0.23 0.002,-0.059 0.029,-0.117 0.029,-0.203 z M 64.983,89.655 c 0,-1.037 0.058,-2.219 0.23,-3.516 0.173,-1.296 0.433,-2.622 0.836,-3.919 0.951,-2.997 2.709,-5.734 5.273,-8.27 2.564,-2.507 6.483,-3.804 11.757,-3.919 0.605,0 1.268,0.029 1.959,0.058 0.721,0.058 1.413,0.115 2.133,0.23 2.046,0.289 3.948,0.951 5.647,1.959 1.729,1.037 2.594,2.708 2.594,5.014 0,0.346 -0.029,0.72 -0.058,1.095 -0.058,0.375 -0.115,0.75 -0.23,1.153 l -8.875,-0.029 c 0.029,-0.144 0.058,-0.288 0.058,-0.432 0.029,-0.145 0.029,-0.26 0.029,-0.375 0,-0.979 -0.288,-1.671 -0.835,-2.132 -0.547,-0.461 -1.153,-0.778 -1.787,-0.922 a 6.466,6.466 0 0 0 -1.037,-0.172 c -0.317,-0.029 -0.605,-0.029 -0.865,-0.029 -0.23,0 -0.461,0 -0.721,0.058 -0.23,0.029 -0.49,0.086 -0.72,0.144 -1.21,0.375 -2.392,1.297 -3.516,2.738 -1.124,1.47 -2.017,3.66 -2.651,6.57 -0.058,0.231 -0.115,0.49 -0.144,0.721 -0.029,0.231 -0.086,0.49 -0.115,0.72 a 228.23,228.23 0 0 1 -0.173,1.499 c -0.029,0.49 -0.058,0.951 -0.058,1.412 0,1.527 0.317,2.824 0.922,3.919 0.605,1.066 1.729,1.613 3.4,1.613 h 0.433 c 0.173,0 0.316,-0.028 0.489,-0.058 a 4.3,4.3 0 0 0 0.836,-0.086 c 0.259,-0.087 0.576,-0.173 0.893,-0.317 0.778,-0.346 1.499,-0.864 2.19,-1.584 0.663,-0.721 1.066,-1.527 1.153,-2.45 l 8.558,-0.029 c 0.029,0.086 0.058,0.145 0.058,0.231 0,0.058 0.029,0.115 0.029,0.201 0,0.49 -0.173,1.153 -0.548,2.018 -0.346,0.864 -0.894,1.758 -1.671,2.708 -1.124,1.355 -2.767,2.565 -4.87,3.66 -2.103,1.095 -4.812,1.671 -8.155,1.671 H 76.74 c -4.524,0 -7.549,-0.95 -9.077,-2.795 C 66.136,96.169 65.271,94.094 65.04,91.846 65.011,91.5 65.011,91.126 64.982,90.78 V 89.655 Z M 100.57,70.954 h 11.729 l 5.072,20.92 4.754,-20.92 h 7.637 l -6.34,29.19 h -11.439 l -5.418,-22.217 -4.438,22.217 h -7.608 z m 33.975,0 h 13.629 c 0.346,0.028 0.691,0.058 1.066,0.058 0.346,0.029 0.691,0.057 1.037,0.057 a 14.33,14.33 0 0 1 5.764,1.614 c 1.758,0.951 2.623,2.709 2.623,5.302 0,4.265 -1.355,7.348 -4.064,9.221 -2.736,1.873 -5.936,2.824 -9.594,2.824 l -6.023,-0.029 -2.219,10.144 h -8.27 z m 10.172,13.313 c 1.211,0.029 2.248,-0.346 3.17,-1.124 0.893,-0.749 1.469,-1.584 1.699,-2.507 0.059,-0.173 0.088,-0.317 0.115,-0.49 a 2.52,2.52 0 0 0 0.059,-0.49 c 0,-0.721 -0.289,-1.325 -0.865,-1.873 -0.576,-0.519 -1.555,-0.778 -2.939,-0.778 l -4.121,-0.028 -1.584,7.29 z m 13.947,8.27 c 0.027,-0.576 0.086,-1.153 0.145,-1.787 0.086,-0.605 0.201,-1.239 0.346,-1.901 0.547,-2.392 1.67,-4.64 3.371,-6.686 1.699,-2.046 4.322,-3.112 7.865,-3.256 1.066,0 2.018,0.288 2.854,0.864 0.807,0.576 1.498,1.21 2.018,1.873 0.115,0.144 0.201,0.259 0.287,0.375 0.088,0.144 0.174,0.259 0.23,0.404 l 0.664,-2.594 h 7.607 L 178,108.098 h -7.609 l 2.221,-10.806 c -0.549,0.634 -1.039,1.181 -1.5,1.584 -0.488,0.433 -0.951,0.75 -1.412,1.038 a 7.542,7.542 0 0 1 -1.9,0.691 c -0.635,0.115 -1.355,0.201 -2.162,0.201 -2.449,0 -4.121,-0.576 -5.07,-1.671 -0.924,-1.124 -1.5,-2.363 -1.701,-3.717 a 11.52,11.52 0 0 1 -0.174,-1.47 c -0.027,-0.49 -0.027,-0.951 -0.027,-1.383 v -0.028 z m 8.211,-2.219 c -0.057,0.202 -0.086,0.432 -0.143,0.634 -0.029,0.23 -0.059,0.432 -0.088,0.605 -0.027,0.23 -0.057,0.432 -0.057,0.634 -0.029,0.202 -0.029,0.404 -0.029,0.634 0,0.864 0.174,1.643 0.549,2.276 0.373,0.663 1.037,0.979 1.988,0.979 a 4.37,4.37 0 0 0 2.938,-1.095 c 0.809,-0.721 1.527,-2.276 2.162,-4.64 0.115,-0.374 0.23,-0.807 0.289,-1.296 0.057,-0.519 0.115,-1.008 0.115,-1.527 a 6.05,6.05 0 0 0 -0.605,-2.623 c -0.404,-0.807 -1.211,-1.21 -2.363,-1.21 -1.037,0 -1.902,0.432 -2.535,1.239 a 8.959,8.959 0 0 0 -1.527,2.708 c -0.174,0.49 -0.346,0.98 -0.434,1.441 a 14.9,14.9 0 0 0 -0.26,1.268 z"
       fill="#605a72"
       id="path4"
       style="fill:#000000;fill-opacity:1" />
  </g>
</svg>
