<?xml version="1.0" encoding="UTF-8" standalone="no"?>
<!-- Created with Inkscape (http://www.inkscape.org/) -->

<svg
   width="158.74429mm"
   height="62.163818mm"
   viewBox="0 0 158.74429 62.163818"
   version="1.1"
   id="svg5"
   xml:space="preserve"
   xmlns="http://www.w3.org/2000/svg"
   xmlns:svg="http://www.w3.org/2000/svg"><defs
     id="defs2" /><g
     id="layer1"
     transform="translate(-25.937529,-131.21646)"><path
       style="fill:#000000;stroke-width:0.264583"
       d="m 47.572073,193.38015 c -0.769782,-0.005 -2.044093,-0.24133 -2.831803,-0.52463 -0.78771,-0.28331 -2.254075,-1.00337 -3.258588,-1.60014 -1.004513,-0.59677 -2.860336,-1.95498 -4.12405,-3.01825 -1.263714,-1.06328 -2.976662,-2.70512 -3.806551,-3.64854 -0.829889,-0.94342 -2.177498,-2.64722 -2.994688,-3.78621 -0.817189,-1.13899 -1.954953,-3.04017 -2.528365,-4.22484 -0.573412,-1.18466 -1.277054,-3.21461 -1.563649,-4.51099 -0.376364,-1.70244 -0.522672,-3.36791 -0.526808,-5.99682 -0.0031,-2.00187 0.169703,-4.79983 0.384116,-6.2177 0.214413,-1.41787 0.637806,-3.53045 0.940873,-4.69462 0.303067,-1.16416 1.062906,-3.24776 1.688532,-4.63021 0.625625,-1.38244 1.465097,-3.31559 1.865492,-4.29587 0.400395,-0.98029 1.453435,-2.88529 2.34009,-4.23334 0.892825,-1.35743 2.680483,-3.52076 4.006656,-4.84864 1.317006,-1.31871 3.086844,-2.84822 3.932974,-3.39891 0.846129,-0.55069 2.26997,-1.29851 3.16409,-1.66183 0.953098,-0.38727 2.413017,-0.72011 3.528751,-0.8045 1.603076,-0.12124 2.090344,-0.0533 3.091013,0.43114 0.728137,0.35249 1.464026,0.99227 1.901241,1.65295 0.392319,0.59284 0.994749,1.80887 1.338736,2.7023 0.343985,0.89343 0.631248,1.44246 0.63836,1.22007 0.0071,-0.22238 0.423421,-1.23441 0.925127,-2.24895 0.501708,-1.01454 1.069361,-2.03791 1.261451,-2.27415 0.19209,-0.23624 0.763868,-0.68228 1.270616,-0.9912 0.690899,-0.42118 1.351545,-0.5612 2.641156,-0.5598 0.945885,0.001 2.269683,0.16878 2.941775,0.37277 0.672089,0.20398 1.743652,0.63396 2.38125,0.95551 0.637596,0.32154 1.963574,1.17713 2.946617,1.9013 0.983041,0.72417 2.455201,2.04907 3.271462,2.94423 0.816263,0.89515 2.079998,2.46099 2.808298,3.47963 0.728303,1.01865 1.858658,2.98318 2.511901,4.36563 0.653243,1.38245 1.702419,3.52557 2.331503,4.7625 0.629087,1.23692 1.394336,3.14192 1.700559,4.23333 0.306221,1.09141 0.740005,2.87734 0.963965,3.96875 0.223962,1.09141 0.47263,3.88938 0.552601,6.21771 0.09015,2.62463 0.0302,4.97037 -0.157761,6.17285 -0.166738,1.06674 -0.595984,2.77765 -0.953881,3.80204 -0.357899,1.02438 -1.069957,2.61217 -1.582351,3.52842 -0.512398,0.91624 -1.637337,2.61769 -2.499868,3.78098 -0.862531,1.1633 -2.499389,3.05708 -3.637465,4.2084 -1.138077,1.15132 -3.05611,2.82465 -4.262295,3.71853 -1.206185,0.89386 -3.057115,2.05225 -4.113176,2.57418 -1.189876,0.58807 -2.48418,1.00719 -3.403298,1.10205 -0.815755,0.0842 -1.92782,0.0697 -2.471261,-0.0323 -0.698619,-0.13107 -1.392457,-0.58976 -2.368492,-1.56579 -0.835017,-0.83501 -1.741932,-2.12779 -2.295409,-3.27202 l -0.914987,-1.89161 -0.960485,1.94111 c -0.528267,1.0676 -1.343095,2.37687 -1.81073,2.90948 -0.467635,0.5326 -1.303259,1.19948 -1.856943,1.48195 -0.632794,0.32283 -1.526534,0.51004 -2.406301,0.50403 z m 43.174386,-14.54253 c -0.295611,0 -0.59767,-0.15688 -0.671248,-0.34861 -0.07358,-0.19175 -0.09961,-1.59073 -0.05784,-3.10886 0.07248,-2.63444 0.103066,-2.76409 0.671248,-2.84479 0.589148,-0.0837 0.595312,-0.0515 0.595312,3.10886 0,3.03346 -0.02692,3.1934 -0.537469,3.1934 z m 2.257261,0 c -0.656124,0 -0.661458,-0.019 -0.661458,-2.36032 v -2.36031 l 1.910727,0.0452 c 1.74917,0.0414 1.93951,0.10114 2.25111,0.70667 0.19534,0.3796 0.31128,1.33791 0.27209,2.24896 -0.0606,1.40924 -0.13368,1.5968 -0.65056,1.67033 -0.53945,0.0768 -0.58807,-0.0379 -0.66146,-1.55999 -0.0571,-1.18383 -0.20237,-1.72014 -0.52004,-1.91957 -0.31898,-0.20025 -0.55669,-0.18061 -0.8599,0.071 -0.29537,0.24513 -0.41905,0.80677 -0.41905,1.90288 0,1.48239 -0.0309,1.55511 -0.661459,1.55511 z m 6.227269,0 c -0.53171,0 -1.1863,-0.16053 -1.45462,-0.35674 -0.26833,-0.1962 -0.41012,-0.48253 -0.3151,-0.63627 0.10016,-0.16206 0.6175,-0.21989 1.23104,-0.13759 0.69868,0.0937 1.05829,0.0395 1.05829,-0.15962 0,-0.16586 -0.47176,-0.49032 -1.04836,-0.72103 -0.57659,-0.23071 -1.12225,-0.65229 -1.21256,-0.93686 -0.0923,-0.29089 0.0218,-0.80127 0.2607,-1.16589 0.32629,-0.49798 0.65379,-0.64756 1.411,-0.64445 0.54235,0.002 1.152271,0.10928 1.355381,0.23788 0.2031,0.12861 0.29862,0.41797 0.21226,0.64302 -0.1176,0.30645 -0.39301,0.37089 -1.096891,0.25667 -0.5633,-0.0914 -0.93987,-0.0441 -0.93987,0.11795 0,0.14876 0.47346,0.45992 1.05213,0.69145 0.730731,0.29238 1.104021,0.62771 1.221991,1.09773 0.11607,0.46247 0.0213,0.84091 -0.29939,1.19524 -0.30293,0.33474 -0.811891,0.51851 -1.436001,0.51851 z m 4.144401,0 c -0.48022,0 -1.016,-0.14287 -1.19063,-0.3175 -0.17462,-0.17462 -0.3175,-1.00806 -0.3175,-1.85208 0,-0.84667 -0.1186,-1.53459 -0.26458,-1.53459 -0.14552,0 -0.26458,-0.23812 -0.26458,-0.52916 0,-0.29104 0.11906,-0.52917 0.26458,-0.52917 0.14552,0 0.26458,-0.30594 0.26458,-0.67986 0,-0.5537 0.11047,-0.66417 0.59532,-0.59531 0.38257,0.0543 0.62552,0.29728 0.67986,0.67986 0.0543,0.38258 0.26707,0.59531 0.59531,0.59531 0.33437,0 0.51076,0.18275 0.51076,0.52917 0,0.35277 -0.17639,0.52916 -0.52916,0.52916 -0.45861,0 -0.52917,0.17639 -0.52917,1.32292 0,1.14653 0.0706,1.32292 0.52917,1.32292 0.35277,0 0.52916,0.17639 0.52916,0.52916 0,0.42227 -0.17639,0.52917 -0.87312,0.52917 z m 2.32833,0 c -0.65656,0 -0.66146,-0.0176 -0.66146,-2.38125 0,-2.36361 0.005,-2.38125 0.66146,-2.38125 0.65656,0 0.66146,0.0177 0.66146,2.38125 0,2.36361 -0.005,2.38125 -0.66146,2.38125 z m 3.18431,0 c -0.63556,0 -1.00074,-0.15697 -1.19063,-0.51177 -0.15064,-0.28148 -0.27389,-1.11491 -0.27389,-1.85209 0,-0.73717 -0.11906,-1.34031 -0.26458,-1.34031 -0.14552,0 -0.26458,-0.23812 -0.26458,-0.52916 0,-0.29104 0.11906,-0.52917 0.26458,-0.52917 0.14552,0 0.26458,-0.29766 0.26458,-0.66146 0,-0.52916 0.13229,-0.66146 0.66146,-0.66146 0.52412,0 0.66146,0.13352 0.66146,0.64306 0,0.46543 0.16444,0.66641 0.59531,0.7276 0.32742,0.0465 0.59531,0.26315 0.59531,0.48143 0,0.21828 -0.26789,0.43492 -0.59531,0.48142 -0.52543,0.0746 -0.59531,0.23767 -0.59531,1.38906 0,1.12813 0.0716,1.30452 0.52917,1.30452 0.35277,0 0.52916,0.17639 0.52916,0.52916 0,0.42735 -0.17639,0.52917 -0.91673,0.52917 z m 4.25574,-0.0493 c -1.31122,0.0224 -1.78376,-0.077 -2.11667,-0.44482 -0.31119,-0.34386 -0.42859,-0.9933 -0.42859,-2.37098 0,-1.721 0.0492,-1.89739 0.52917,-1.89739 0.46272,0 0.52917,0.17639 0.52917,1.40463 0,0.77256 0.15669,1.61894 0.34821,1.88086 0.19152,0.26192 0.57848,0.43227 0.8599,0.37856 0.43577,-0.0832 0.52328,-0.36218 0.58991,-1.88085 0.0744,-1.69559 0.11014,-1.7832 0.72761,-1.7832 0.64053,0 0.64937,0.0319 0.64937,2.34221 v 2.34221 z m 4.28287,-0.002 c -0.75186,0.0627 -1.03668,-0.0385 -1.25457,-0.44563 -0.15504,-0.28974 -0.28189,-1.1299 -0.28189,-1.86707 0,-0.73717 -0.11906,-1.34031 -0.26458,-1.34031 -0.14552,0 -0.26459,-0.23812 -0.26459,-0.52917 0,-0.29104 0.11078,-0.52916 0.24618,-0.52916 0.1354,0 0.28423,-0.26789 0.33073,-0.59531 0.0543,-0.38258 0.29729,-0.62553 0.67986,-0.67986 0.48485,-0.0689 0.59532,0.0416 0.59532,0.59531 0,0.54879 0.12751,0.67986 0.66145,0.67986 0.48507,0 0.66146,0.14111 0.66146,0.52916 0,0.38806 -0.17639,0.52917 -0.66146,0.52917 -0.61736,0 -0.66145,0.0882 -0.66145,1.32292 0,1.24477 0.0402,1.32291 0.68085,1.32291 0.50548,0 0.65826,0.11928 0.59312,0.46302 -0.061,0.32173 -0.38459,0.48777 -1.06043,0.54411 z m 3.76353,0.0512 c -0.80526,0 -1.26067,-0.16996 -1.74014,-0.64943 -0.46746,-0.46746 -0.64943,-0.93852 -0.64943,-1.68116 0,-0.72843 0.19073,-1.23752 0.64882,-1.73182 0.51472,-0.55538 0.89268,-0.70009 1.82856,-0.70009 0.99255,0 1.28843,0.12917 1.86472,0.81405 0.40382,0.47991 0.68498,1.13988 0.68498,1.60785 0,0.52459 -0.2623,1.0561 -0.7734,1.5672 -0.60466,0.60467 -1.01136,0.7734 -1.86411,0.7734 z m 0.0772,-1.05833 c 0.33134,0 0.74532,-0.14288 0.91994,-0.3175 0.17463,-0.17463 0.3175,-0.62707 0.3175,-1.00542 0,-0.37835 -0.14287,-0.83079 -0.3175,-1.00542 -0.17462,-0.17462 -0.5886,-0.3175 -0.91994,-0.3175 -0.35064,0 -0.78359,0.27647 -1.03585,0.66146 -0.40148,0.61274 -0.40148,0.71018 0,1.32292 0.25226,0.38499 0.68521,0.66146 1.03585,0.66146 z m 7.40223,1.05833 c -0.51659,0 -1.08645,-0.21333 -1.39556,-0.52244 -0.28734,-0.28734 -0.5979,-0.82312 -0.69014,-1.19062 -0.0922,-0.3675 -0.0922,-0.96888 0,-1.33638 0.0922,-0.3675 0.41672,-0.9172 0.72107,-1.22155 0.44404,-0.44404 0.77971,-0.52784 1.69912,-0.42421 l 1.14576,0.12914 0.0801,-0.95812 c 0.0631,-0.75503 0.19225,-0.95811 0.60926,-0.95811 0.49632,0 0.53378,0.20115 0.60345,3.24114 l 0.0743,3.24115 h -0.6696 c -0.36828,0 -0.6696,-0.14287 -0.6696,-0.3175 0,-0.24694 -0.0706,-0.24694 -0.3175,0 -0.17463,0.17463 -0.71041,0.3175 -1.19063,0.3175 z m 0.3175,-1.05833 c 0.3056,0 0.6985,-0.14288 0.87313,-0.3175 0.17462,-0.17463 0.3175,-0.62707 0.3175,-1.00542 0,-0.37835 -0.14288,-0.83079 -0.3175,-1.00542 -0.17463,-0.17462 -0.56753,-0.3175 -0.87313,-0.3175 -0.30559,0 -0.6985,0.14288 -0.87312,0.3175 -0.17463,0.17463 -0.3175,0.62707 -0.3175,1.00542 0,0.37835 0.14287,0.83079 0.3175,1.00542 0.17462,0.17462 0.56753,0.3175 0.87312,0.3175 z m 5.75944,1.05833 c -0.55631,0 -1.28362,-0.19061 -1.61622,-0.42357 -0.33261,-0.23297 -0.71986,-0.72637 -0.86056,-1.09645 -0.17113,-0.45008 -0.15889,-0.96659 0.0369,-1.55998 0.16103,-0.48791 0.54828,-1.06607 0.86056,-1.2848 0.31229,-0.21874 1.02297,-0.3977 1.57928,-0.3977 0.72115,0 1.19791,0.18642 1.66092,0.64943 0.47786,0.47786 0.64944,0.9354 0.64944,1.73182 0,0.79642 -0.17158,1.25396 -0.64944,1.73182 -0.46301,0.46302 -0.93977,0.64943 -1.66092,0.64943 z m -0.0859,-1.05833 c 0.51037,0 0.88708,-0.1812 1.064,-0.51178 0.15064,-0.28147 0.27389,-0.68969 0.27389,-0.90714 0,-0.21745 -0.18709,-0.58247 -0.41577,-0.81114 -0.22868,-0.22868 -0.70748,-0.41578 -1.06401,-0.41578 -0.43469,0 -0.74751,0.2179 -0.94961,0.66146 -0.22545,0.49482 -0.22545,0.82811 0,1.32292 0.22353,0.49061 0.50546,0.66146 1.0915,0.66146 z m 8.65362,1.05245 c -1.11049,0.005 -1.40432,-0.11522 -2.18281,-0.8937 -0.77714,-0.77714 -0.89958,-1.07524 -0.89958,-2.19009 0,-0.7412 0.17576,-1.54144 0.41293,-1.88005 0.22712,-0.32425 0.75698,-0.76746 1.17749,-0.98492 0.4205,-0.21745 1.13356,-0.39536 1.58458,-0.39536 0.45101,0 1.1713,0.18165 1.60064,0.40367 0.42933,0.22202 0.78061,0.50509 0.78061,0.62906 0,0.12397 -0.16427,0.36172 -0.36504,0.52834 -0.27938,0.23187 -0.55801,0.19291 -1.18754,-0.16604 -0.75045,-0.4279 -0.88653,-0.43337 -1.5532,-0.0625 -0.40187,0.22357 -0.88339,0.72412 -1.07003,1.11235 -0.28143,0.58536 -0.27311,0.86439 0.0487,1.63461 0.26102,0.62472 0.61944,0.98684 1.09487,1.10616 0.4383,0.11001 1.04016,0.0184 1.58427,-0.24103 0.78974,-0.3766 0.91128,-0.37768 1.21581,-0.0107 0.28351,0.34161 0.23325,0.48847 -0.31006,0.90602 -0.42628,0.32761 -1.08804,0.50035 -1.93165,0.50422 z m 5.39985,-0.002 c -0.51789,-0.004 -1.16113,-0.13565 -1.42943,-0.29161 -0.2683,-0.15595 -0.65447,-0.68242 -0.85816,-1.16992 -0.27967,-0.66934 -0.30148,-1.0675 -0.0891,-1.62614 0.15469,-0.40688 0.47002,-0.94835 0.70072,-1.20328 0.23641,-0.26123 0.79626,-0.46351 1.28287,-0.46351 0.47486,0 1.05612,0.074 1.29169,0.16436 0.23556,0.0904 0.60249,0.5012 0.81539,0.9129 0.2129,0.4117 0.38709,0.99259 0.38709,1.29085 0,0.48726 -0.16339,0.54231 -1.60955,0.54231 -1.17179,0 -1.57868,0.09 -1.49604,0.33073 0.0685,0.19969 0.59195,0.33073 1.32109,0.33073 0.66417,0 1.30744,0.099 1.42948,0.22007 0.12204,0.12104 -0.009,0.38893 -0.29128,0.59531 -0.28225,0.20638 -0.9369,0.37162 -1.45479,0.3672 z m -0.14787,-2.90242 c 0.65852,0 0.93473,-0.10623 0.8599,-0.33073 -0.0606,-0.1819 -0.44759,-0.33073 -0.8599,-0.33073 -0.41231,0 -0.79926,0.14883 -0.85989,0.33073 -0.0748,0.2245 0.20137,0.33073 0.85989,0.33073 z m 3.56357,2.91042 c -0.29561,0 -0.59885,-0.15997 -0.67388,-0.35549 -0.075,-0.19552 -0.10106,-1.23732 -0.0579,-2.31511 0.0723,-1.80286 0.1262,-1.96637 0.67389,-2.04416 0.34915,-0.0496 0.59531,0.0543 0.59531,0.25136 0,0.26125 0.0706,0.26534 0.3175,0.0184 0.17463,-0.17463 0.53182,-0.3175 0.79375,-0.3175 0.33161,0 0.47625,0.20088 0.47625,0.66145 0,0.48112 -0.14173,0.66146 -0.51986,0.66146 -0.28592,0 -0.64311,0.2303 -0.79375,0.51177 -0.15064,0.28149 -0.27389,1.0554 -0.27389,1.71981 0,1.03785 -0.0757,1.20802 -0.53747,1.20802 z m 4.70821,0 c -0.72996,0 -1.20436,-0.18457 -1.66922,-0.64944 -0.47786,-0.47785 -0.64943,-0.93539 -0.64943,-1.73181 0,-0.79642 0.17157,-1.25397 0.64943,-1.73182 0.44838,-0.44838 0.94356,-0.64943 1.59952,-0.64943 0.65597,0 1.15115,0.20105 1.59953,0.64943 0.40519,0.40519 0.64943,0.95247 0.64943,1.45521 v 0.80577 h -1.60955 c -1.17178,0 -1.57867,0.0899 -1.49604,0.33073 0.0685,0.1997 0.59195,0.33073 1.32109,0.33073 0.66417,0 1.30744,0.099 1.42948,0.22007 0.12205,0.12104 -0.009,0.38893 -0.29128,0.59531 -0.28224,0.20639 -0.97208,0.37525 -1.53296,0.37525 z m -0.0697,-2.91042 c 0.65852,0 0.93473,-0.10623 0.8599,-0.33073 -0.0606,-0.1819 -0.44759,-0.33073 -0.8599,-0.33073 -0.4123,0 -0.79926,0.14883 -0.85989,0.33073 -0.0748,0.2245 0.20138,0.33073 0.85989,0.33073 z m 3.57188,2.91042 c -0.50094,0 -0.52917,-0.17639 -0.52917,-3.30729 0,-3.13091 0.0282,-3.3073 0.52917,-3.3073 0.45411,0 0.52917,0.17639 0.52917,1.24355 0,0.9672 0.0705,1.17298 0.3175,0.92604 0.17462,-0.17463 0.76129,-0.3175 1.30371,-0.3175 0.75028,0 1.1174,0.16677 1.53458,0.69714 0.33218,0.42229 0.54837,1.08625 0.54837,1.68411 0,0.59786 -0.21619,1.26181 -0.54837,1.68411 -0.41718,0.53036 -0.7843,0.69714 -1.53458,0.69714 -0.54242,0 -1.12909,-0.14288 -1.30371,-0.3175 -0.24695,-0.24695 -0.3175,-0.24695 -0.3175,0 0,0.17462 -0.23813,0.3175 -0.52917,0.3175 z m 1.6612,-1.05834 c 0.33782,0 0.75709,-0.14287 0.93172,-0.3175 0.17462,-0.17462 0.3175,-0.62706 0.3175,-1.00541 0,-0.37836 -0.14288,-0.83079 -0.3175,-1.00542 -0.17463,-0.17462 -0.5939,-0.3175 -0.93172,-0.3175 -0.3984,0 -0.7201,0.23241 -0.91559,0.66146 -0.22546,0.49481 -0.22546,0.8281 0,1.32292 0.19549,0.42904 0.51719,0.66145 0.91559,0.66145 z m 3.9612,1.01059 c -0.57922,0.0823 -0.59532,0.0207 -0.59532,-2.2773 v -2.36186 h 1.45521 c 1.22569,0 1.45521,0.0752 1.45521,0.47693 0,0.26232 -0.32742,0.63316 -0.7276,0.82409 -0.63258,0.30182 -0.74489,0.53695 -0.8599,1.80038 -0.11449,1.25761 -0.21242,1.4646 -0.7276,1.53776 z m 4.82864,0.0477 c -0.95218,0 -1.25823,-0.13625 -1.82856,-0.81405 -0.38584,-0.45854 -0.68498,-1.14296 -0.68498,-1.5672 0,-0.42424 0.29914,-1.10865 0.68498,-1.56719 0.56616,-0.67285 0.87594,-0.8126 1.78593,-0.80564 0.60553,0.005 1.28988,0.15346 1.52077,0.33073 0.23089,0.17727 0.55831,0.58238 0.7276,0.90023 0.16929,0.31786 0.3078,0.87427 0.3078,1.23647 0,0.3622 -0.30824,1.02488 -0.68497,1.4726 -0.57034,0.6778 -0.87639,0.81405 -1.82857,0.81405 z m 0,-1.05833 c 0.30559,0 0.6985,-0.14287 0.87313,-0.3175 0.17462,-0.17462 0.3175,-0.62706 0.3175,-1.00542 0,-0.37835 -0.14288,-0.83079 -0.3175,-1.00541 -0.17463,-0.17463 -0.56754,-0.3175 -0.87313,-0.3175 -0.30559,0 -0.6985,0.14287 -0.87312,0.3175 -0.17463,0.17462 -0.3175,0.62706 -0.3175,1.00541 0,0.37836 0.14287,0.8308 0.3175,1.00542 0.17462,0.17463 0.56753,0.3175 0.87312,0.3175 z m -65.0875,-4.23333 c -0.48507,0 -0.66146,-0.14111 -0.66146,-0.52917 0,-0.38806 0.17639,-0.52917 0.66146,-0.52917 0.48507,0 0.66146,0.14111 0.66146,0.52917 0,0.38806 -0.17639,0.52917 -0.66146,0.52917 z m 42.95378,0 c -0.26848,0 -0.48437,-0.0893 -0.47974,-0.19844 0.005,-0.10914 0.16658,-0.4068 0.3599,-0.66146 0.19331,-0.25466 0.52687,-0.46302 0.74124,-0.46302 0.21436,0 0.46939,0.0796 0.56672,0.17697 0.0973,0.0973 -0.0203,0.39499 -0.2615,0.66146 -0.24115,0.26646 -0.65813,0.48449 -0.92662,0.48449 z m -55.345101,-4.49792 c -1.649235,0 -3.077985,-0.0794 -3.174998,-0.17639 -0.09701,-0.097 -0.176389,-5.33576 -0.176389,-11.64167 V 145.7647 h 3.174997 3.175 v 11.64167 11.64167 z m 8.863541,0 c -1.57647,0 -2.945691,-0.0794 -3.042701,-0.17639 -0.097,-0.097 -0.17639,-3.96654 -0.17639,-8.59896 v -8.42257 h 3.042701 3.04271 v 1.08575 1.08574 l 0.97295,-0.85426 c 0.53512,-0.46984 1.36473,-1.01796 1.84358,-1.21803 0.47886,-0.20008 1.59358,-0.36378 2.47718,-0.36378 1.08192,0 1.9437,0.17201 2.63901,0.52673 0.56785,0.28969 1.32057,0.91477 1.67271,1.38906 0.35213,0.47428 0.77575,1.26706 0.94137,1.76171 0.19228,0.57431 0.30112,3.23119 0.30112,7.35086 v 6.45147 l -2.97656,-0.0748 -2.97657,-0.0748 -0.13229,-5.38133 -0.13229,-5.38134 -0.74236,-0.63793 c -0.40829,-0.35087 -0.97975,-0.63794 -1.26991,-0.63794 -0.29015,0 -0.87328,0.17878 -1.29584,0.3973 -0.51915,0.26846 -0.85761,0.7189 -1.04372,1.38906 -0.15148,0.54547 -0.27609,3.10512 -0.2769,5.68812 l -0.001,4.69635 z m 23.38705,-0.13895 c -1.02718,0.0607 -2.52245,-0.003 -3.32281,-0.14058 -0.80037,-0.138 -2.31841,-0.67384 -3.37344,-1.19076 -1.05502,-0.51693 -1.91573,-1.08219 -1.91267,-1.25614 0.003,-0.17395 0.47846,-1.05456 1.05646,-1.9569 l 1.05092,-1.64061 1.7878,0.83767 c 1.20298,0.56365 2.31073,0.87125 3.38638,0.94033 1.19264,0.0766 1.68207,0.002 1.92737,-0.2935 0.26524,-0.3196 0.24951,-0.47543 -0.0814,-0.80633 -0.22558,-0.22559 -1.45008,-0.72432 -2.72111,-1.10829 -1.27102,-0.38397 -2.8066,-0.98486 -3.4124,-1.33532 -0.6058,-0.35045 -1.33994,-1.0252 -1.63143,-1.49942 -0.29149,-0.47423 -0.6092,-1.28977 -0.70603,-1.8123 -0.0968,-0.52253 -0.0363,-1.47503 0.13447,-2.11667 0.17078,-0.64163 0.61422,-1.56794 0.98543,-2.05846 0.37904,-0.50088 1.32526,-1.19556 2.15842,-1.58462 1.27149,-0.59374 1.82384,-0.6898 3.86476,-0.67207 1.72565,0.015 2.80954,0.17589 3.93686,0.58444 0.85558,0.31007 1.8416,0.75115 2.19116,0.98019 l 0.63555,0.41643 -0.97746,1.86011 c -0.71723,1.3649 -1.08926,1.82301 -1.39741,1.72076 -0.23097,-0.0766 -1.07479,-0.37923 -1.87516,-0.67242 -0.80036,-0.29318 -2.00802,-0.53695 -2.68367,-0.5417 -0.78959,-0.006 -1.27709,0.11809 -1.36458,0.34608 -0.0749,0.1951 -0.0506,0.49304 0.0538,0.66208 0.10448,0.16905 1.42459,0.72314 2.93358,1.23131 1.50899,0.50818 3.10913,1.17525 3.55587,1.48237 0.44675,0.30713 1.04814,0.87269 1.33644,1.25679 0.36367,0.48453 0.55435,1.23245 0.62273,2.44256 0.078,1.37968 -0.0162,1.96917 -0.45065,2.82071 -0.30206,0.59209 -0.87995,1.33672 -1.28419,1.65473 -0.40424,0.31802 -1.14472,0.74944 -1.64551,0.95871 -0.50079,0.20927 -1.75095,0.43014 -2.77812,0.49082 z m 18.37302,0.11524 c -0.50932,-0.0114 -1.58088,-0.1677 -2.38125,-0.34743 -0.80036,-0.17974 -2.0407,-0.60897 -2.75631,-0.95385 -0.71561,-0.34488 -1.97466,-1.28917 -2.7979,-2.09842 -0.86354,-0.84888 -1.79495,-2.10533 -2.20154,-2.96983 -0.38761,-0.82414 -0.8478,-2.33272 -1.02266,-3.3524 -0.23994,-1.39926 -0.24552,-2.32164 -0.0228,-3.76091 0.16445,-1.06246 0.65347,-2.63478 1.10425,-3.55044 0.48913,-0.99358 1.38534,-2.18848 2.26636,-3.02171 0.80151,-0.75803 2.26197,-1.75941 3.24548,-2.22529 1.71519,-0.81247 1.92323,-0.84705 5.09549,-0.84705 3.16642,0 3.3828,0.0358 5.08019,0.83989 0.97509,0.46194 2.31454,1.38154 2.97656,2.04356 0.66202,0.66202 1.20367,1.3194 1.20367,1.46085 0,0.14145 -1.01973,1.05345 -2.26607,2.02666 l -2.26607,1.76947 -0.84278,-0.79945 c -0.46354,-0.4397 -1.22383,-0.99137 -1.68955,-1.22594 -0.47783,-0.24068 -1.49222,-0.4265 -2.32824,-0.4265 -0.81482,0 -1.803,0.16797 -2.19595,0.37325 -0.39296,0.20529 -1.03558,0.71131 -1.42804,1.12448 -0.39246,0.41318 -0.89848,1.19389 -1.12448,1.73492 -0.226,0.54103 -0.40974,1.67212 -0.40832,2.51354 0.002,1.05787 0.19967,1.95315 0.64139,2.90188 0.44238,0.95013 0.98482,1.60101 1.76403,2.11667 0.92426,0.61164 1.4122,0.74446 2.73205,0.74368 1.27883,-7.9e-4 1.86236,-0.15097 2.85872,-0.73591 0.68855,-0.40422 1.37735,-0.96933 1.53067,-1.25581 0.15331,-0.28648 0.39228,-0.52087 0.53103,-0.52087 0.13876,0 1.26566,0.72021 2.50424,1.60046 1.23857,0.88026 2.25195,1.69557 2.25195,1.81181 0,0.11624 -0.71066,0.8892 -1.57924,1.71769 -0.86858,0.82849 -2.22937,1.80398 -3.02398,2.16777 -0.79461,0.36378 -2.13778,0.77492 -2.98483,0.91365 -0.84704,0.13872 -1.95679,0.24294 -2.46612,0.23158 z m 20.49729,-0.12887 c -1.01429,0.0696 -2.36426,0.0171 -2.99993,-0.11658 -0.63568,-0.1337 -1.66585,-0.49002 -2.28928,-0.79182 -0.62344,-0.3018 -1.66348,-1.1153 -2.31121,-1.80777 -0.69436,-0.74233 -1.41078,-1.88202 -1.74562,-2.77695 -0.39183,-1.04727 -0.56597,-2.10958 -0.56163,-3.4262 0.005,-1.38337 0.17626,-2.3216 0.62422,-3.41072 0.33987,-0.82633 0.98646,-1.96771 1.43688,-2.5364 0.45041,-0.5687 1.5685,-1.44042 2.48463,-1.93717 1.54738,-0.83903 1.83483,-0.90289 4.04694,-0.89908 1.93105,0.003 2.64576,0.12284 3.78029,0.63218 0.81644,0.36654 1.83191,1.11986 2.43857,1.80906 0.57175,0.64954 1.29512,1.85334 1.6075,2.67511 0.3761,0.98941 0.58018,2.16446 0.60414,3.4785 l 0.0362,1.98438 -5.68709,0.13229 -5.68709,0.13229 0.94714,1.03295 c 0.84352,0.91993 1.11219,1.04664 2.45558,1.15804 1.3459,0.11162 1.65231,0.0357 2.84374,-0.70498 l 1.33531,-0.83007 1.55045,1.25953 c 0.85274,0.69274 1.55721,1.39603 1.56547,1.56285 0.008,0.16683 -0.42602,0.69057 -0.96508,1.16387 -0.53906,0.47331 -1.58443,1.13722 -2.32303,1.47536 -0.82516,0.37777 -2.05392,0.66359 -3.18707,0.74133 z m -1.315,-10.43075 c 1.76332,0 2.77813,-0.10145 2.77813,-0.27773 0,-0.15274 -0.1865,-0.63837 -0.41445,-1.07917 -0.23569,-0.45578 -0.81607,-0.96926 -1.3456,-1.19052 -0.74647,-0.31189 -1.1144,-0.32859 -1.85499,-0.0842 -0.55041,0.18165 -1.12905,0.64145 -1.43153,1.13751 -0.27924,0.45794 -0.50815,0.98145 -0.50869,1.16335 -7.9e-4,0.24365 0.73049,0.33073 2.77713,0.33073 z m 13.22917,10.58333 h -3.04271 v -8.59896 -8.59896 h 3.04271 3.04271 l 0.008,1.52136 c 0.007,1.25664 0.059,1.42928 0.30072,0.99219 0.16097,-0.29105 0.5443,-0.80865 0.85185,-1.15023 0.30755,-0.34159 1.00092,-0.8476 1.54082,-1.12448 0.53991,-0.27688 1.34359,-0.50342 1.78594,-0.50342 h 0.8043 v 3.14058 3.14057 l -1.54222,0.30342 c -1.09824,0.21606 -1.75003,0.52031 -2.26405,1.05683 -0.39699,0.41438 -0.89362,1.32429 -1.10361,2.02202 -0.24351,0.80913 -0.38179,2.45122 -0.38179,4.53384 v 3.26524 z"
       id="path553" /></g></svg>