<?xml version="1.0" encoding="UTF-8" standalone="no"?>
<!-- Created with Inkscape (http://www.inkscape.org/) -->

<svg
   version="1.1"
   id="svg1"
   width="2719.0952"
   height="1060.531"
   viewBox="0 0 2719.0952 1060.531"
   sodipodi:docname="EDn2R4CWsAMT8w0.jpeg"
   xmlns:inkscape="http://www.inkscape.org/namespaces/inkscape"
   xmlns:sodipodi="http://sodipodi.sourceforge.net/DTD/sodipodi-0.dtd"
   xmlns="http://www.w3.org/2000/svg"
   xmlns:svg="http://www.w3.org/2000/svg">
  <defs
     id="defs1" />
  <sodipodi:namedview
     id="namedview1"
     pagecolor="#ffffff"
     bordercolor="#000000"
     borderopacity="0.25"
     inkscape:showpageshadow="2"
     inkscape:pageopacity="0.0"
     inkscape:pagecheckerboard="0"
     inkscape:deskcolor="#d1d1d1" />
  <path
     style="fill:#000000"
     d="m 2133,1059.8362 c -14.8936,-4.2795 -19.4913,-21.9057 -8.477,-32.4978 17.5291,-16.857 45.4988,5.1464 31.3572,24.6683 -4.7958,6.6204 -14.9707,10.1022 -22.8802,7.8295 z m -69.0156,-1.6878 c -9.7414,-5.1766 -10.8753,-18.8175 -2.0846,-25.077 9.9389,-7.0772 25.0857,-0.1702 25.0965,11.4442 0.011,11.3934 -12.8683,19.0231 -23.0119,13.6328 z m -51.5299,-8.6029 c -7.2931,-7.2932 1.8347,-18.5048 11.2963,-13.875 8.9937,4.4008 5.7175,16.3295 -4.4848,16.3295 -3.2925,0 -4.9566,-0.5996 -6.8115,-2.4545 z m 201.2935,-4.9723 c -17.3226,-6.1818 -23.2794,-26.7355 -11.5953,-40.0094 18.8472,-21.41153 54.2112,-3.9665 46.4035,22.8909 -4.0507,13.9338 -20.737,22.1401 -34.8082,17.1185 z m -235.9857,-0.6546 c -5.4699,-3.161 -3.8599,-9.9186 2.363,-9.9186 3.9938,0 5.8747,1.8607 5.8747,5.8118 0,3.3798 -5.098,5.9213 -8.2377,4.1068 z m 312.9552,-33.0102 c -24.6904,-5.8139 -33.1821,-37.37141 -14.3855,-53.4606 13.7272,-11.74992 35.7526,-10.9516 47.192,1.71048 21.0828,23.33606 -1.59,59.10082 -32.8065,51.75012 z m 76.5685,-49.35915 c -26.1673,-8.17793 -33.4149,-39.74507 -13.2978,-57.91965 23.0597,-20.833 60.6008,-4.88666 60.3544,25.63673 -0.1826,22.62643 -24.5232,39.32513 -47.0566,32.28292 z M 1175,897.52603 c 0,-0.6528 5.6213,-14.82155 8.5402,-21.52603 2.3115,-5.30931 21.343,-51.28626 37.4611,-90.5 4.2953,-10.45 11.824,-28.675 16.7306,-40.5 4.9066,-11.825 9.7866,-23.63581 10.8446,-26.24625 l 1.9235,-4.74625 14.25,-0.004 c 7.8375,-0.002 14.25,0.14367 14.25,0.32384 0,0.50896 -4.2534,10.9316 -15.9861,39.17241 -13.1315,31.60773 -31.1087,75.06207 -45.5074,110 -5.8933,14.3 -11.5429,27.9125 -12.5546,30.25 l -1.8394,4.25 h -14.0563 C 1181.3253,898 1175,897.78671 1175,897.52603 Z m 576.315,-14.46831 c -49.1766,-7.8098 -76.0965,-52.79884 -62.2307,-104.00113 17.0268,-62.87493 108.739,-75.32447 141.8022,-19.24905 3.9874,6.76268 4.0383,6.54872 -2.1365,8.99372 -2.8875,1.14336 -10.2,4.17077 -16.25,6.72759 -6.05,2.55681 -12.0363,5.05671 -13.303,5.55533 -2.0122,0.79216 -2.4746,0.49698 -3.6632,-2.3388 -20.0344,-47.79979 -83.5986,-6.3859 -66.6817,43.44506 11.9457,35.1877 67.1479,40.62441 67.1479,6.61322 V 826 H 1780.5 1765 V 810.5 795 h 38.5 38.5 v 7.42764 c 0,54.14019 -39.0213,88.83487 -90.685,80.63008 z M 712,881.44717 C 648.31851,867.79162 625.59542,794.3908 670.99761,749 693.16468,726.8385 721.5044,720.15618 753.10456,729.63972 L 762,732.30934 v 23.438 23.438 l -5.05781,-4.5474 c -29.68501,-26.68939 -74.25994,-2.79025 -68.13794,36.53261 5.09107,32.70101 44.49561,45.092 69.25182,21.77664 L 762,829.23281 v 23.30323 23.30323 l -4.75,1.55622 c -16.87122,5.52746 -32.03572,6.88529 -45.25,4.05168 z m 637,0.95374 c -29.4262,-5.41249 -44.0928,-16.96506 -50.6561,-39.90091 -1.5025,-5.25076 -1.7647,-12.71197 -2.0999,-59.75 L 1295.8611,729 H 1315.4305 1335 v 43.42764 c 0,43.1975 0.6863,55.1839 3.5522,62.043 7.6393,18.28355 35.996,18.93296 44.9478,1.02936 l 3,-6 0.5,-50 0.5,-50 19.75,-0.27114 19.75,-0.27114 -0.01,46.77114 c -0.012,67.25027 -1.6092,76.30679 -15.9198,90.26026 -12.7355,12.41768 -41.8852,20.12483 -62.072,16.41179 z m 539,-1.2679 c -13.925,-3.05419 -34.9402,-12.97933 -34.1988,-16.15154 0.512,-2.19041 15.4587,-29.98147 16.1249,-29.98147 0.3452,0 2.9827,1.76948 5.861,3.93218 19.4874,14.64257 43.8843,13.99711 46.7422,-1.23664 1.8179,-9.69017 -3.7621,-14.0562 -26.5293,-20.75771 -26.6268,-7.83759 -35.2298,-16.64411 -36.7069,-37.57548 -3.1526,-44.67194 38.2194,-66.19184 88.8157,-46.19804 10.5104,4.15334 10.221,6.46861 -3.824,30.586 l -2.4752,4.2503 -2.8546,-2.03263 c -16.4042,-11.68086 -38.955,-9.09096 -38.955,4.47389 0,6.94748 4.8628,10.27313 23.5,16.07155 35.7834,11.13296 47.2266,30.26012 37.3106,62.3642 -7.9275,25.66654 -39.3614,39.59186 -72.8106,32.25539 z m 530.0791,0.28993 c -34.842,-12.71723 -26.6032,-60.87585 10.4209,-60.91373 42.8114,-0.0438 44.374,59.78496 1.6222,62.11239 -5.4022,0.29409 -8.9098,-0.055 -12.0431,-1.19866 z M 1014,879.94163 C 984.45778,872.26754 967.51772,847.9241 971.94002,819.5 c 9.28083,-59.65213 110.07788,-61.31599 121.16068,-2 7.9053,42.30979 -32.8255,74.4624 -79.1007,62.44163 z m 25.5489,-30.05826 c 10.2066,-2.57006 17.5578,-13.79245 16.083,-24.55247 -3.875,-28.27138 -45.6319,-25.76101 -45.6319,2.74332 0,16.20606 13.177,25.93163 29.5489,21.80915 z M 786,803.98485 v -75.1636 l 34.25,0.40952 c 37.52008,0.44861 41.64832,1.03775 51.25,7.31386 18.08938,11.82409 19.52702,47.0061 2.42698,59.3933 l -3.75852,2.72266 7.04628,2.2694 c 27.74206,8.93494 31.3957,52.63584 5.77517,69.07648 -11.83195,7.59255 -16.87864,8.33913 -59.23991,8.76366 L 786,879.14845 Z m 66.04897,41.9021 c 18.25997,-10.19819 8.60771,-27.77378 -15.7653,-28.70671 L 825,816.74833 v 16.26532 16.26532 l 11.38755,-0.50253 c 9.5577,-0.42178 12.07432,-0.88609 15.66142,-2.88949 z M 839.3033,786.9327 c 18.35614,-5.09734 13.1043,-25.5725 -7.0533,-27.49843 L 825,758.74158 V 773.37079 788 l 5.25,-0.006 c 2.8875,-0.003 6.96149,-0.48084 9.0533,-1.06172 z M 919,828 v -51 h 18.5 18.5 v 51 51 H 937.5 919 Z m 194.1379,48.25 c 0.079,-1.5125 0.081,-17.7125 0,-36 L 1113,807 h -5.5 -5.5 v -15 -15 h 5.5 5.5 l 0.1153,-13.75 c 0.063,-7.5625 0.176,-14.425 0.25,-15.25 0.1143,-1.27279 2.8612,-1.5 18.1347,-1.5 h 18 l 0.276,15.25 0.2761,15.25 h 9.9739 9.974 v 15 15 h -10 -10 v 36 36 h -18.5032 -18.5032 z M 1451,804 v -75 h 43 43 v 17 17 h -23.5 -23.5 v 12 12 h 21.5 21.5 v 16.5 16.5 h -21.5 -21.5 v 29.5 29.5 h -19.5 -19.5 z m 107,0 v -75 h 31.369 c 54.7075,0 69.7696,6.14921 77.1884,31.51268 7.039,24.06482 -8.5249,56.32397 -27.2484,56.47755 -0.655,0.005 -1.4644,0.45227 -1.7987,0.99311 -0.4648,0.75205 36.2714,49.89971 44.2998,59.26666 1.4226,1.65988 0.2344,1.75 -23.0736,1.75 h -24.5734 l -16.4377,-25.75 c -9.0407,-14.1625 -16.9888,-26.80104 -17.6625,-28.08565 -2.0364,-3.883 -2.1571,-2.42928 -2.1753,26.21639 L 1597.87,879 H 1577.935 1558 Z m 60.714,-10.85411 c 18.5162,-9.44625 10.0093,-31.49798 -12.964,-33.60555 l -7.75,-0.71098 v 18.72628 18.72627 l 8.2983,-0.51771 c 5.6282,-0.35113 9.6231,-1.1936 12.4157,-2.61831 z m 826.0205,-0.23394 c -20.9816,-4.94321 -30.1937,-29.28783 -17.4426,-46.09551 17.7546,-23.40307 55.9731,-11.65915 55.9969,17.2069 0.016,19.41472 -18.8297,33.53568 -38.5543,28.88861 z M 931.11548,757.43913 c -12.65654,-3.77449 -18.08916,-19.91783 -10.38375,-30.85593 8.67415,-12.31326 27.92008,-11.04321 34.48167,2.27546 7.97112,16.17975 -6.82738,33.73098 -24.09792,28.58047 z M 2443.2694,695.00059 c -27.324,-13.75845 -18.9111,-52.77477 12.0022,-55.66149 33.4549,-3.12407 46.4876,40.36679 16.7284,55.82362 -7.6329,3.96449 -20.6814,3.89086 -28.7306,-0.16213 z M 2180,678.12857 c 0,-2.43819 1.2588,-3.35022 3.4588,-2.50599 2.3135,0.88775 1.4634,3.81427 -1.219,4.19697 -1.683,0.24011 -2.2398,-0.18025 -2.2398,-1.69098 z m -14.4286,-23.7 c -3.52,-3.52 -0.5835,-9.42857 4.6859,-9.42857 3.4169,0 5.7427,2.44474 5.7427,6.03624 0,4.60847 -6.9512,6.86966 -10.4286,3.39233 z m -8.4613,-32.82408 c -5.6725,-3.14403 -6.8064,-11.06205 -2.2382,-15.6302 5.1373,-5.13732 11.1189,-5.13732 16.2562,0 8.4823,8.4823 -3.2707,21.58699 -14.018,15.6302 z M 2432,606.33217 c -14.2502,-4.97921 -23.0345,-19.61843 -20.0691,-33.44556 7.4531,-34.75271 61.2226,-30.27828 61.4478,5.11339 0.1299,20.40994 -21.5561,35.25844 -41.3787,28.33217 z M 751.5,600.90007 C 625.45775,587.76179 555.37783,453.18814 618.95865,346.38248 675.51335,251.37959 828.3891,234.3203 897.87745,315.25814 l 6.18827,7.2079 -4.24061,3.51698 C 897.49278,327.91736 889.70475,334.675 882.51838,341 838.47835,379.7613 843.71835,376.92222 834.1649,367.19845 784.52439,316.67295 702.84225,339.27128 688.4941,407.5 669.99113,495.48584 744.09124,553.15038 830.25,517.81411 l 7.75,-3.1785 v -14.18754 c 0,-12.84788 -0.16524,-14.1869 -1.75,-14.18073 -0.9625,0.004 -15.80968,-0.0549 -32.99373,-0.13026 L 772.01255,486 l 0.41941,-2.25 c 0.23068,-1.2375 0.45286,-16.5375 0.49373,-34 L 773,418 h 72 72 v 69.31935 69.31936 l -7.23522,5.43064 C 868.81279,592.8073 810.68435,607.06928 751.5,600.90007 Z m 653.8384,0.006 C 1229.7241,580.43751 1197.4057,337.16682 1362,274.6841 c 72.0624,-27.35611 166.2605,-0.37759 200.3851,57.39066 l 1.5688,2.65573 -8.227,5.54232 c -4.5248,3.04828 -19.2221,13.00892 -32.6607,22.13476 -26.0839,17.71305 -26.2031,17.77458 -27.7769,14.34243 -10.1203,-22.07095 -49.4862,-39.3527 -81.4047,-35.73693 -91.1669,10.32753 -92.6628,168.8317 -1.7279,183.09135 34.4049,5.3951 67.7608,-8.16619 84.8173,-34.48367 2.1818,-3.36641 4.5772,-6.98719 5.3231,-8.04618 1.2244,-1.73845 60.1635,33.98684 67.5939,40.97131 3.9338,3.69772 -23.5369,36.78535 -41.7563,50.29419 -29.8967,22.16707 -78.3638,33.24448 -122.7963,28.06575 z M 0,432.94799 v -165.052 l 75.75,0.36658 c 89.66153,0.4339 91.98292,0.71651 120.8164,14.70862 91.26909,44.29044 90.04689,185.98948 -1.97605,229.09814 C 172.22254,522.54766 158.01867,525.14779 119,525.90674 L 88.5,526.5 88.454317,561 c -0.02513,18.975 -0.137626,35.0625 -0.25,35.75 C 88.044465,597.72796 78.424364,598 44,598 H 0 Z m 138.00337,16.63848 c 28.17698,-5.97392 42.27642,-32.81555 35.59117,-67.75622 C 168.04469,352.82383 151.76942,342.69616 110.5,342.56821 l -22,-0.0682 -0.258612,54.25 -0.258613,54.25 21.758615,-0.0174 c 14.61729,-0.0117 23.89306,-0.4699 28.26198,-1.39617 z M 304.93687,597.25 c -0.0347,-0.4125 -0.14723,-74.68316 -0.25,-165.04591 L 304.5,267.90819 380,268.27678 c 83.32913,0.40682 80.79304,0.22858 103,7.23912 110.30026,34.82081 115.96399,198.35991 8.30886,239.91651 C 469.81628,523.72889 454.38503,526 419.50658,526 H 393 v 36 36 h -44 c -24.2,0 -44.02841,-0.3375 -44.06313,-0.75 z M 441.54213,449.90758 C 466.39085,445.31404 479.44598,427.04623 479.35264,397 479.22861,357.07699 463.21148,343.40479 415.25,342.28211 L 393,341.76129 V 396.38064 451 h 21.31634 c 11.72399,0 23.97559,-0.49159 27.22579,-1.09242 z M 961,433.06797 V 268 l 75.75,0.006 c 96.5108,0.008 104.7045,1.0681 131.7489,17.05369 44.9421,26.56467 48.2262,98.46268 5.6155,122.94041 -7.5059,4.3118 -7.5327,4.02232 0.6356,6.87643 81.5195,28.48408 77.0529,142.69362 -6.75,172.59468 -25.9702,9.26623 -32.3916,9.79005 -125.75,10.25777 L 961,598.13594 Z m 157.4568,92.46155 c 34.8699,-9.95086 35.4729,-59.56432 0.8481,-69.77423 -6.9775,-2.05744 -64.3374,-3.96787 -70.7572,-2.35663 l -2.4969,0.62671 v 35.47654 c 0,19.51211 0.2814,36.20502 0.6231,37.09537 0.9251,2.41082 62.8177,1.49016 71.7811,-1.06776 z m -13.8035,-139.2505 c 18.7083,-10.00434 15.7498,-41.55585 -4.4452,-47.40653 -3.4039,-0.98615 -11.4949,-1.36517 -29.2081,-1.36824 l -24.5,-0.004 -0.267,25.80889 -0.267,25.8089 27.267,-0.3089 c 25.9447,-0.29391 27.4684,-0.4166 31.4203,-2.52987 z M 1599,594.24885 c 0,-2.06314 1.3311,-26.25064 2.9581,-53.75 1.6269,-27.49937 3.4168,-57.87385 3.9776,-67.49885 0.5608,-9.625 2.8263,-48.325 5.0345,-86 2.2082,-37.675 4.7098,-80.65 5.5592,-95.5 1.6588,-28.9992 1.7651,-29.81458 3.8231,-29.32391 0.7473,0.17815 18.1672,19.22391 38.7109,42.32391 20.5438,23.1 44.7963,50.35103 53.8944,60.55785 9.0982,10.20681 23.2922,26.13922 31.5422,35.40535 8.25,9.26613 15.45,17.35111 16,17.96663 1.0515,1.17673 17.0342,19.13824 19.0106,21.3642 1.2289,1.38417 -1.0004,3.84147 67.3894,-74.28243 17.82,-20.35638 34.47,-39.27121 37,-42.03295 3.7617,-4.10626 21.8524,-24.81882 33.095,-37.89142 20.0128,-23.27041 24.0048,-26.66396 24.0053,-20.40678 2e-4,3.04173 1.3338,26.501 3.9976,70.31955 0.5684,9.35 2.154,36.35 3.5236,60 1.3696,23.65 4.2753,73.15 6.4572,110 2.182,36.85 4.2683,72.7375 4.6363,79.75 l 0.6692,12.75 H 1916.6421 1873 l -0.1276,-5.75 c -0.07,-3.1625 -0.2381,-6.85195 -0.373,-8.19878 -0.135,-1.34683 -0.5413,-8.54683 -0.9029,-16 -0.3616,-7.45317 -1.0779,-20.52622 -1.5918,-29.05122 -0.5138,-8.525 -1.6839,-29.9 -2.6,-47.5 -1.9746,-37.93466 -0.9049,-35.74727 -11.4047,-23.31975 -4.675,5.53331 -9.5453,11.24388 -10.8229,12.69016 -1.2775,1.44627 -11.8272,13.65459 -23.4436,27.12959 -42.5105,49.31198 -41.6578,48.4754 -44.4338,43.59373 -0.4398,-0.77345 -3.9891,-4.93595 -7.8873,-9.25 -3.8982,-4.31405 -14.9232,-16.66138 -24.5,-27.43851 -38.306,-43.10705 -51.4253,-57.68083 -51.6983,-57.42973 -0.1572,0.14463 -0.7132,7.85931 -1.2354,17.14373 -1.5195,27.01478 -4.9268,90.84466 -5.5186,103.38078 -0.2985,6.325 -0.7768,13.4125 -1.0627,15.75 l -0.5199,4.25 H 1641.9387 1599 Z m 573.3255,-18.70798 C 2160.3466,570.33033 2165.1545,552 2178.5,552 c 7.2493,0 13.5112,5.51876 13.4853,11.88486 -0.041,9.93864 -10.014,15.85174 -19.6598,11.65601 z m 31.9147,-41.65099 c -13.9528,-6.90654 -11.5357,-27.22055 3.6731,-30.86909 17.7292,-4.25317 29.6501,16.09299 16.4599,28.09315 -5.6597,5.14901 -13.23,6.19282 -20.133,2.77594 z m 205.1245,-21.97894 c -12.723,-3.68741 -23.1302,-19.52082 -20.8778,-31.76315 5.3732,-29.2044 45.6246,-35.83442 58.9824,-9.7153 11.9608,23.38761 -11.691,49.13371 -38.1046,41.47845 z M 2245.2871,495.37031 C 2229.2641,487.46995 2235.6986,464 2253.8875,464 c 17.8484,0 23.9927,21.9905 8.5829,30.71832 -4.763,2.69769 -12.4433,2.9891 -17.1833,0.65199 z m 62.3502,-31.7742 c -14.9048,-5.54846 -17.8228,-26.55274 -4.8675,-35.03669 17.8341,-11.67897 39.9037,3.88031 32.8981,23.19354 -3.6489,10.05948 -17.3134,15.83279 -28.0306,11.84315 z m 70.5797,-23.80189 c -28.0356,-4.17785 -31.9702,-41.84004 -5.4468,-52.1365 6.4344,-2.49786 16.5787,-2.17417 22.8111,0.72786 29.6534,13.8079 15.3085,56.27752 -17.3643,51.40864 z m 64.283,-33.85518 c -14.5666,-4.27573 -18.3411,-24.07154 -6.5191,-34.19068 14.4759,-12.39089 36.3516,-1.82996 34.8064,16.80351 -1.0993,13.25549 -14.4358,21.45298 -28.2873,17.38717 z m 74.7356,-20.97151 c -20.0979,-4.43786 -19.8995,-32.4487 0.2618,-36.96695 14.5172,-3.25338 25.9045,6.86901 24.2492,21.55551 -1.156,10.25585 -13.2947,17.88813 -24.511,15.41144 z M 2341.748,363.57325 c -21.9715,-7.84083 -18.33,-38.47375 4.8995,-41.21606 17.7121,-2.09096 30.4971,14.60725 22.9675,29.99728 -5.0835,10.39034 -16.8803,15.13954 -27.867,11.21878 z m 233.7106,-0.45291 c -11.1008,-5.04241 -13.854,-17.96021 -5.5894,-26.22483 7.9403,-7.94027 21.9787,-7.16209 27.6767,1.53418 9.2921,14.18159 -6.4592,31.78949 -22.0873,24.69065 z m 48.8457,-19.07634 c -12.6181,-7.69376 -7.345,-26.04996 7.4805,-26.04026 12.9415,0.008 19.7077,10.99112 13.2294,21.47329 -3.9432,6.38026 -14.0726,8.614 -20.7099,4.56697 z m 51.117,-25.72729 c -6.3026,-1.24589 -10.9327,-10.25368 -8.406,-16.35362 5.1244,-12.37152 24.2948,-10.07504 25.638,3.07126 0.9572,9.36814 -6.7971,15.34515 -17.232,13.28236 z m -357.9627,-13.19637 c -11.7197,-5.32354 -14.8536,-19.9062 -6.3574,-29.58276 8.809,-10.03291 27.0317,-8.03808 32.9739,3.60964 8.33,16.32821 -9.5145,33.74145 -26.6165,25.97312 z M 2705.5,277.28676 c -11.4441,-2.75365 -8.9813,-19.62009 2.8648,-19.62009 11.8246,0 14.8943,14.40235 4.0366,18.93896 -3.4745,1.45173 -3.6335,1.46744 -6.9014,0.68113 z m -395.6717,-32.75163 c -11.6234,-2.95129 -15.0195,-16.1113 -6.331,-24.53255 4.5806,-4.43967 13.8882,-5.43801 19.2618,-2.06601 15.0668,9.45455 4.5717,31.04263 -12.9308,26.59856 z m 385.8066,-8.60771 c -4.8113,-3.78453 -3.2026,-10.92489 2.9162,-12.9443 6.6995,-2.21103 12.5399,2.82193 10.8923,9.38647 -1.3882,5.53079 -8.8546,7.45456 -13.8085,3.55783 z m -14.4124,-34.48412 c -4.3501,-3.04693 -2.1546,-9.4433 3.2413,-9.4433 3.9662,0 6.5362,2.16834 6.5362,5.51472 0,2.47036 -3.2978,5.48528 -6,5.48528 -0.8552,0 -2.5551,-0.70052 -3.7775,-1.5567 z m -370.9593,-15.49005 c -8.6406,-5.69381 -5.3501,-19.40115 5.1292,-21.36708 12.0401,-2.25873 19.8947,12.15873 11.1168,20.40518 -3.6011,3.38306 -11.8322,3.87041 -16.246,0.9619 z m 351.1452,-7.33146 c -0.8094,-2.10918 0.3267,-3.62179 2.7202,-3.62179 1.5107,0 1.9311,0.5568 1.691,2.23978 -0.373,2.61398 -3.5558,3.61115 -4.4112,1.38201 z m -334.4359,-45.3259 c -6.0528,-4.17175 -6.9648,-11.45745 -2.0494,-16.37281 5.8571,-5.85715 17.8487,-2.79161 19.5601,5.00036 1.9946,9.08145 -9.7591,16.71501 -17.5107,11.37245 z m 31.3017,-40.09988 c -6.7399,-0.666758 -9.7346,-9.826483 -4.8197,-14.741465 5.8981,-5.898007 17.6719,-0.836452 16.1187,6.929397 -1.1443,5.721423 -5.0607,8.429209 -11.299,7.812068 z m 24.7509,-28.567546 c -7.1524,-2.334225 -6.0995,-11.773478 1.4717,-13.19385 6.8032,-1.276278 11.6582,5.202078 7.7856,10.388902 -2.5005,3.349189 -5.1395,4.148809 -9.2573,2.804948 z m 23.3561,-26.169428 c -3.3466,-5.107618 2.6882,-10.965116 8.4611,-8.212417 3.2385,1.544256 4.1503,6.617941 1.6403,9.127949 -2.6004,2.600333 -8.1259,2.099533 -10.1014,-0.915532 z M 2439,24 c -5.5305,-5.530532 2.2503,-13.015117 8.7775,-8.443296 2.744,1.922006 2.9481,6.476648 0.3938,8.788308 C 2445.6907,26.589885 2441.4296,26.429586 2439,24 Z m 28.75,-12.080099 c -2.5516,-1.486169 -2.1625,-4.774842 0.7204,-6.0883618 4.5192,-2.0590786 7.9541,3.8005375 3.5953,6.1332768 -2.302,1.232011 -2.1201,1.233904 -4.3157,-0.04492 z M 2490.5,3 c -0.9233,-1.4939383 0.3614,-3 2.559,-3 1.2743,0 1.941,0.68693715 1.941,2 0,2.1210585 -3.3474,2.8649277 -4.5,1 z"
     id="path1" />
</svg>
