<svg xmlns="http://www.w3.org/2000/svg" xml:space="preserve" viewBox="0 0 397.4 169.2"><path d="m58.9 169-3 .2-.3-.3-.4-.2H51l-1.3-.4-1.4-.4-1.2-.3-1.3-.3-1.4-.6-1.4-.7-2-.5-2-.5-1.3-.6-1.4-.5-2-1-1.9-1-1.2-.9-1.2-1-1.5-1-1.6-1-1.2-1-1.1-1.2-1.2-1.6-1.2-1.7h-.5v1.4l-.1 1.4.2 1.5.3 1.5-.5 1.7-.5 1.7-.5.5-.6.6-1 .3-1 .3h-5.7l-1.1-.6-1.1-.6-.2-.6-.1-.6.1-1 .2-1 .1-1.3.2-1.4-.6-2.5-.5-2.5v-3l.5-2 .5-2.1-.2-1.9-.3-1.8v-7.3l-.7-2.5-.7-2.4.2-4.2.1-4.3-.4-2-.3-2.2v-3H6l-.8-.9-.7-.9-.4-.7-.4-.8.2-.7.1-.7.6-.5.5-.5.4-.9.3-.9h.6v-.8l-.8-1.5-.8-1.5-.4-1.6-.5-1.6v-5.8l.7-1.8.6-1.8 1-1.5.8-1.5 2-1.9 1.9-1.9 1.8-1 1.9-1.1L16 79l1.6-.6 1.3-.3 1.4-.4v-12l.1-12.2.2-.2.3-.2 7-.2 7-.1.8-1.6.8-1.5-.3-.6-.4-.6-2-2.1-2-2.1-2.4-1.6-2.2-1.5-.9-.2-.8-.2-.5-.2-.5-.2v2.7L23 45.4l-2 2.3h-1v1.5l-1.1 1.5-1.2 1.5h-1.1L15.2 51l-1.4-1.2v-2.4l-.5.4-.5.5h-1.1l-1.2-1.1L9.3 46v-1.6l-.9.2-.8.1-1.4-1.2-1.4-1.2v-1.6L4 41l-.7.1L1.8 40 .3 38.7l-.1-.9L0 37l.4-1 .4-.9L2 33.8l1.2-1.3.4-.7.3-.7 1.3-1.7 1.4-1.7.4-.2.3-.1.7.3.7.3.6-.4.7-.3v-1.4l-1-1.7-1-1.6v-.8l.6-.5.7-.5.5.1.5.2.2.2.1.2h1.5l.5.6.5.5 1 .3 1 .2.7 1.3.6 1.3 1.4.8 1.4.7.6 1 .7 1h1.2l.8.4.7.4 1.2 1.6 1.1 1.6.8.4.7.4h1.8l.7.8.6.9.3 1 .4 1 1 1.2 1 1.2.3-.2.3-.1v-1l1.4-1.6 1.5-1.6 1-.3.9-.3 1 .1 1 .1 1.4.7 1.4.6 1 .9 1 .9.3-.2.2-.2v-1.2l-.4-.4-.4-.3.1-.8.2-.7-.3-.6-.3-.6.3-1 .2-.9-.8-2.2-.8-2.2v-1.2l-.2-1.1.3-.8.4-.8v-1.6l-.1-1.5.5-.6.5-.6v-1.4l.2-1.5.4-.4.5-.4.4.3.4.4.4-.2.4-.1.6-1.3.6-1.3h.9l.9-.1 1-.6.9-.6 1.9-.8 2-.7V10l-.1-.1-.2-.4-.3-.4.3-.7.2-.7.8-.9.8-.8v-.6l-.1-.6h-.8l-.7-.1-.3-.5-.2-.5.1-.4.2-.4.5-.2.5-.1.5-1 .5-1 .4-.2.4-.3.6.5.5.5v.7l1 .5 1 .5.2.4.2.4-.2.5-.1.4-.8.1-.8.2-.1.3-.2.4.5.7.5.7.5.7.4.7v1l-.1.8 1.2.2 1.2.1.8.4.8.3.8.6.8.6.6.1.7.1.6 1.3.7 1.2.4.2.4.1.2-.3.3-.2h.7l.5 1L73 17v2.4l.4.8.4.9v5.5l.1 1.6-.5.8-.5.7v3.7l-.2 1-.1 1-.3.4-.3.2v.9l.5.4.5.5.6-.5.6-.5 1.4-.7 1.5-.7 1.2-.2 1.3-.1 1 .5 1.1.6 1.1 1.2 1.1 1.3.2.7.1.8h.4l1-1.1 1-1.1.7-1.5.6-1.5.4-.5.4-.4h2.4l1-1 .8-1 .7-1 .7-1 .7-.4.8-.4h1.5l.4-.8.3-.9 1.6-.9 1.5-.8.5-1 .5-1 .5-.5.4-.4h1l.7-.5.6-.5 1.5-.5 1.5-.5.4.3.5.3v.6l.1.7-1 1.4-.9 1.4-.1.6-.2.7.5.5.5.5 1.2-.1 1.2-.2 1 1.3 1.1 1.2.6.9.6.8v.9l.7.4.7.4 1 1.2.9 1.3v2.5l-1.3 1.2-1.3 1.2-.9-.2h-.8l-.2 1-.1.9-1.4 1.1-1.4 1.1h-.6l-.3-.4-.4-.4-.2.2-.2.1v1.8l-1.2 1-1.2 1.2h-1.1l-.1-.4-.2-.4h-.7v2.3l-1 1-1 .9-.6.3-.6.3-.5-.5-.6-.5-.8-1.1-.7-1.2v-1.2l-.8-.2-.7-.1-1-1.2-.9-1.3-.7-1-.7-1.1v-2.3h-.4L91 41l-1.5.5-1.4.9-1.5.9-2.9 2.8L81 49v1.1l.7 1.5.7 1.4h13.9l.3.4.2.3V65l.1 11.2.1.8.2.8 1.3.3 1.4.4 1.7.7 1.7.6 1.9 1.2 1.8 1.2 1.7 1.8 1.8 1.8.9 1.5.9 1.4.6 1.8.7 1.8v5.8l-.4 1.6-.5 1.6-.9 1.7-.9 1.6.5.3.4.4.3 1 .4.8.7.6.6.6v1.2l-.8 1.3-.8 1.2-.6.4-.7.4-.7-.1-.6-.2v2.7l-.4 2-.4 2.1v9.8l-.3 1.3-.3 1.3-.3.5-.2.5-.2 6.4-.1 6.5.4 1.6.5 1.6-.1 1.6-.2 1.7-.5 2.5-.6 2.5.5 2 .4 1.9-.3.6-.3.7-.7.4-.6.4-1.7.3-1.7.2-2-.2-2-.2-1-.5-1-.5-.5-1.6-.5-1.6.1-2.3.2-2.2-.2-1-.2-1.1-1.5 2-1.5 2-1.2 1-1 .9-1.3.7-1.2.8-1.4 1.1-1.5 1.2-2.8 1.3-2.7 1.3-2.5.6-2.4.7-1.3.6-1.2.6-1.1.3-1 .3-1.5.3-1.5.4-2.5.2-2.5.2zm1-2.8.2-.1 1.4-3 1.5-3v-.7h-.6l-1.2 2.5-1.2 2.5h-.5l-.6-.1-1.1-2.4-1.2-2.3-.1.1-.2.2.3.9.4.8 1 1.9 1.1 1.8.4.5.4.5zm-7.9-.5h1l.7-.4.8-.4v-.5h-.4l-.5.4-.5.4h-1.7l-.5-.5-.6-.6v-.4l.1-.5.8-.2.9-.3.4-.4.4-.3v-1.7l-.6-.6-.6-.6-1.7-.6-1.7-.7h-.8l-.2 1.6-.2 1.6-.2.5-.3.4-.1 1.2-.2 1.2.4-.7.4-.8h.8l1.6 1.5 1.6 1.4h1zm-1.7-3.2h-1.5l-.6-.2-.6-.2V160l.3-.7.3-.7h1.3l.9.4.8.4.7.7.8.7v.9l-.5.4-.5.5h-1.4zm15.6 2 .2-.5.2-1.3.1-1.3-.4 1.3-.4 1.3v.8l.3-.4zm4.6-.3h.3l.3-.7.4-.7.1-1.1.2-1.1.2-.5.3-.4h1l1 1.8.9 1.9h.4v-.5l-.2-.5-1.4-2.2-1.4-2.3H72l-.5 2-.4 2.1-.3.4-.3.4-.4-.2-.4-.1-1-1.5-1.1-1.6-.3-.2-.3-.1-.2.3-.3.4v1.5l.3-.3.4-.3h.8l1.1 1.7 1.1 1.8h.4zM41 163h.7l-.3-.2-.2-.3-1-.3-1-.3-.7-.5-.6-.6v-1l.5-.5.5-.5 1.6.4 1.7.4.7.4.8.4.2-.2.1-.1-.2-.3-.3-.3-1.8-.6-1.8-.7-.4-.3-.3-.3v-.7l.5-.9.6-1h.7l1.3.7 1.3.6.4.2.5.1v-.4l-2.3-1.1-2.3-1.1h-.5v1.1l-1 2.2-.9 2.3-.7.5-.7.6.6.4.5.4 1.6.7 1.6.8h.6zm40.8-3h.3l1.3-.7 1.3-.9h-.1l-.1-.2-.7.4-.8.4-.5-.3-.5-.2-.9-1.9-1-1.8v-.8l1-.5.8-.6 1-.2 1-.3.6.2.5.1.9.8.9.8v1.8l-.6 1-.5.8.7-.6.7-.7.2-1 .3-1-.2-.6-.3-.6-.7-.6-.8-.6-1.7.1-1.7.2-1.7.8-1.7 1-.1.2-.1.3.6.3.7.3 1 1.9 1 1.9-.2.5-.1.5h.2Zm-23.2-3.4h.6l.9-.2 1-.3 2-.4 2.1-.4H67l1.5-1 1.5-1 2.1-.5 2.1-.5 1.4-.5 1.4-.5 2.5-1.6 2.4-1.5 1.7-1.4 1.7-1.4.8-.9.8-.9 1.1-1 1-1.2.8-1.2.7-1.2 1-1 1-1 .5-1 .6-1 .4-1 .3-1 .6-1 .7-1-.1-3.8-.2-3.8-.3-1.3-.3-1.3-1.6 3.2-1.5 3-1.6 2.4-1.6 2.2-1.7 2-1.8 2.1-2 1.7-2 1.6-1.9 1.2-1.8 1.2-1.9.8-1.9.9-2 .7-2 .6-1.6.4-1.8.5-2.5.4-2.5.4h-4.8l-3-.6-3-.5-1.5-.4-1.5-.4-1.3-.4-1.3-.5-2.2-1-2.3-1-1.3-.9-1.3-.8-2-1.5-2-1.5-2.1-2.2-2-2.2-1.9-2.7-1.8-2.7-1.4-3-1.4-2.8h-.3l-.3 2.1-.3 2.2v5.8l.6 1.3.7 1.2.7 1.6.7 1.6 1 1 1 1 1 1.6 1 1.5.6.5.7.6.7 1 .7 1 1.8 1.4L35 148l1.9 1.3 1.9 1.2 2 1 2.2 1.1h1l1.7.5 1.7.6 1.5.9 1.4 1h1.9l2 .3 2.2.4.8.3.8.2h.5zm-29.6-1h.2l3-1.4L35 153l.2-.3.3-.2H35l-2 .8-1.9.8H30l-.1-.5-.2-.4.4-2.1.3-2.1v-.2H30v.2l-.5 1.7-.3 1.7-.3 1.4-.2 1.5v.2l.2.2h.1zm63-3.5h.3l.2-.2.1-.2-1-2.8-1.2-2.8H90l.6 1.8.7 1.8v1.1l-.3.2h-.4l-2-.6-2.1-.6h-.9l.3.2.3.3 1.5.6 1.6.5 1.2.4 1.2.3h.3zm4.3-5.5h1.2l.6-.4.7-.5.3-.8.4-.9-.2-1-.1-1h-.5l.1 1.1.2 1-.4.9-.4.8-.5.3-.5.2h-1.5l-1-.6-1.2-.7-.3-.6-.3-.6v-1.6l.5-.5.6-.5.8-.2.7-.1v-.7l-.3-.3-.3-.4h-.4v1.1H94l-1 .9-1 .9v1.3l.6.9.5.9 1 .6 1 .6h1.2zm-38-.8h2.1l2.8-.4 2.8-.4 2-.5 2.1-.6 2-.7 1.9-.6 2.5-1.3L79 140l2-1.5 2-1.5 1.4-1.4 1.4-1.3 1.5-1.9 1.5-1.8 1.4-2.1 1.4-2.2 1.6-3.3 1.7-3.3v-.2l.2-.2-.4.2-.4.1.5-.4.5-.4-.1-.2-.2-.3.8-2.2.8-2.3-.2-.7-.1-.6.4-.4.4-.4h.3l.3-.2-.3-3.3-.2-3.4-.3-.5-.3-.5v-1.5l.4-.8.4-.7v-1l-.3-.2-.2-.1v-2.4h.7l.4.5.5.6h1.1l.9-.9 1-.8 1 .2h1.2l.8.7.8.5.3 1 .3 1.1-.3.4-.3.3 1.1.4 1 .3.5.9.3.9v3.7l.3 2 .3 2.1.1.6.1.6.4-.3.4-.3.6.2.7.2 1-1.1.8-1.1.2-.5.1-.6-.8-.9-.7-.8v-.6l-.7-.8-.7-.8 1-2 .8-2.1.5-1.5.4-1.4V93l-.4-1.4-.3-1.5-.6-1.1-.6-1.2-.8-1-.7-1.1-1.3-1.4-1.4-1.4-1.4-.8-1.4-1-.9-.5-1-.5-1.3-.6-1.5-.5-1.1-.2-1.2-.2-.2-.3-.2-.3-.1-12.3-.1-12.3h-7l-7-.1-.3-.3-.3-.2-.8-2-.8-1.9-.9-1.2-.9-1.2-.2.1h-.2v-1l-.3.1-.3.2.2-.4.2-.4h-.6l-.6-1.3-.6-1.2v-2.9l.4-.1.5-.1 1.4 1.3 1.4 1.3-.3 1.3-.3 1.3.3.3.3.4 1-.2 1-.1 1.2-.7 1.2-.7V41l-.4-1.2-.4-1.2-.7-.9-.7-1-.7-.4-.7-.5-1.3-.2-1.4-.1-1.5.6-1.5.6-.8.6-1 .7-.5.2-.5.1-.3-.7-.3-.6v-1.4l.2-.1.2-.2.2-1.4.2-1.4v-3.1l.3-.4.3-.4.3-1.2.3-1.2-.3-1.2-.2-1.2V22l.1-1.8-.3-.3-.2-.3-.2-1.5-.2-1.4-.3-.5-.2-.5-.6.1-.6.2-.5-.5-.6-.4-.7-1-.6-.9-.9-.5-.8-.4v1.3l.3.2.3.1-.6.5-.6.5.7.6.8.6-.2.4-.2.4-1.4.5-1.4.5-1-.3-1-.3-.3-.4-.4-.5-.3.3-.3.3h-3.1l-.1-.2-.2-.3.3-.5.3-.5.7-.2.7-.1.7-.4.7-.4h.4l-.2.3-.2.3.3-.2.3-.1-.2-.6-.1-.6-1-.8-1-1h-.5l-1.1 1-1.1 1v.4l.6.3.7.2v.8l-.9.8-.8.8-1 .4-.9.4-.3-.2h-.3v-.8l-.3-.1-.2-.2-1 .7-1 .6-.6.6-.6.6-.4-.2-.5-.2.2-.4.2-.5v-1.6h.9l.8-.2.2-.2.2-.2-1-1-.9-.9H49l-.5 1.2-.6 1.2-.5.2-.5.3-.5-.2-.6-.1-.1 1.2-.2 1.1-.7.8-.6.7.2 1.3.1 1.3-.4 1.4-.5 1.4.6 1.6.6 1.6.3 1.3.4 1.3v4.7l.3.3.3.3v1.9l-.3.3-.2.3-1.1-1-1.2-.9-1.5-.8-1.5-.7h-3l-.8.4-.8.4-1 1.3-1 1.4v.9l-.2.4-.2.5h-.6l-1-1-.9-1-.4-.7-.4-.7-.4-1-.3-1.2-.5-.5-.5-.6-1.2.2-1.1.1-1.3-1.5-1.3-1.5-.8-.9-.8-.9h-1.6l-.4-.1-.5-.2v-.9l-.6-.5-.6-.6-1-.6-1.2-.6-.7-1.3-.7-1.2h-1.2l-.8-.7-.8-.7h-1l-.5-.4-.6-.4-.4.2-.4.2v.7l1 1.8 1 1.8v1.1l-.6.6-.7.5H7L5.8 30l-1.2 1.6-.2 1.2-.3 1.1-.6.1-.7.1-.5.5-.5.4-.4.7-.3.7v2l1.1 1 1.1 1h.5l.4-.4.4-.4H5l.4.2.1 1.2.1 1.2 1 1 1 1h.6l.8-1 .8-1 .1-1.4.2-1.4h1.5l.7-.4.6-.5.2.3v.2l.2 1.6V42h-.7l-.9-.1-1 1.2-.9 1.3v1.1l.3.5.4.4.9.7.9.6.7-.7.8-.7.4.4.4.3v2.8l1.1.8 1.2.8h.5l.9-1.3.8-1.3-.2-1.2-.1-1.1.3-.2.3-.2.4.4.5.4h.6l1.6-2 1.6-2.2-.1-1-.2-1 .3-.4.2-.4 1 .4.8.3h.8l1.3.7 1.3.7 2 1.4 1.8 1.4 1.9 2.1L37 49l-.3.6-.2.6-.7 1.5-.6 1.6.1.1h-6.9l-6.8-.1-.4.3-.4.3v23.6l-.4.5-.4.6v1.2l.3.5.3.5.1 6.5.2 6.4-.4.2-.3.2-.3-.4-.3-.5-.3-.4-.3-.5-1 1-.9 1.1v.4l.2.4.1.4.8.4.8.4-.3.7-.3.6h-1.1l.3.4.4.4h.4l.8-.7.8-.7.2.2.2.2v2.3l.2 2.3v1.5l.1 1.4-.2.3-.2.3v3l.1 2.9h.4v1.4l.1 1.5.7 1.8.6 1.8.1 1 .2 1 .4.2.4.4v.7l1.5 2.9 1.4 2.8 1.6 2.4 1.5 2.3 2.2 2.4 2.3 2.4 1.9 1.5 2 1.6.2-.2.4-.2-.2.2-.2.2 1.5 1 1.5.9 1.6.7 1.6.7 2.5.8 2.5.8 2 .4 2 .5 1.6.2 1.5.2h2.1zm-1.4-2.4h-2.5l-1-.2-1-.2-.4-.4-.4-.3-.4-.8-.4-.7v-1.4h15.6v1.2l-.5.7-.6.8-.5.3-.5.3-2.5.3-2.4.4H57zm0-.3h2.5l2.4-.3 2.5-.4.5-.3.6-.3.4-.8.4-.7v-.6H51v1.2l.5.9.5.8.6.1.6.2h.6l.5.2h2.5zm-9.5-1h-.2l-2.6-1-2.6-.9-.4-.4-.4-.3 3.8-.1h4l-.2.8-.2.9-.5.5-.4.5h-.2zm0-.3h.2l.3-.3.2-.3.2-.8.2-.7h-6.3l.3.3.2.2 2.3.8 2.2.8h.2zm21.7-.5h-.3l-.2-.5-.3-.5v-1l2.4.1H73v.5l-1.7.7-1.8.7zm.5-.4.7-.2 1-.5 1-.4h-3.5l-.1.2-.2.2.2.4.2.5.7-.2zM57 138.4H37.9l-1.6-1-1.5-1.1-1.3-1.2-1.4-1.2-1.4-1.8-1.5-1.7-1.2-2-1.3-1.9-1.7-3.4-1.7-3.5-.4-1-.3-.9-.6-1.8-.6-1.7.1-.2.2-.2h23l.3-.5.3-.5-.1-.3-.1-.3-.2.7-.2.7h-5.1l1-.7 1-.7.1-.8.2-.9-.6-1-.6-1.2v-2l1.5-.2 1.5-.3.3-.3.3-.4-.3-.2-.3-.3-1.5-.2-1.6-.2v-1.9l-.2-1-.2-1-.4.1-.5.1-.2.8-.1.8v2h-.3l-.2.2-1 .2-1.1.1 1-.3 1.2-.3.1-1.5.2-1.5.2-.4.1-.5h1l.3.7.3.8v1l.1 1.2.1.1.2.1 1.6.2 1.7.1v-20h-.8l-1.4.3-1.3.3-.2.3-.1.4.3 1.2.4 1.1.5.5.5.4v.6l-.4.4-.3.3v1.1l-.6.3-.6.4-.3.3-.3.2H39l-1-.8-1-.8.1-.6.2-.7h-.5l-.2-.4-.2-.4.8-.9.8-.9.2-1 .2-.9h-1.6l-1.1-.5-1.1-.5v-.7l.3-.3.3-.3 1.6-.2 1.5-.1v-1.5l.3-1.3.4-1.3h1.2l.3 1.4.4 1.4-.2.5-.1.5.4.1.3.2H43l1.5.2V73l-.2-9.7-.6-.1-.7-.2h1.7l.1.2.2.4v-2.3h-.6l-.6-.2-1.6-.1-1.6-.1-1-.5-.8-.5-.8-.7-.7-.6-.5-1-.5-.9-.1-1.6-.1-1.7.7-1.6.8-1.6h.5l.7 1 .8 1-.1 1.8v1.8l1.3 1.4 1.5 1.4.8.2.8.2.2.2.1.3h.9l1.3-1 1.4-1.1.6-.6.6-.6 1.1-1.8 1.2-1.7.6-2.2.6-2.1.4-.2h.4l1.5.1 1.4.2v2.1L55 53l-1.2 2.6-1.7 1.8-1.8 1.9-1.4.7-1.5.7h-1l-.5.2-.4.1.2.3.1.2H47l1.3-.5 1.3-.5 1.2-.8 1.2-.9 1.1-1.3 1.1-1.4.9-1.8.9-1.8h5l.4-.2.4-.3-.5-1.5-.5-1.5.2-.3v-.4l1.8-.2 1.6-.3.4.4.3.4.2 1 .1 1 .5.8.5.8h1.4l1.3.2.3.4.2.4v60.1l.3.2.4.2h11.6l11.6.1.2.3.3.3-.8 2.3-1 2.3-1.5 3.2-1.6 3.2-1.4 2.1-1.4 2.1-2.2 2.4-2.2 2.3-2.1 1.7-2.1 1.8-.8.3-.8.3H57zm.2-1.3.4-.1 1.9-3.6 1.8-3.7.3-.2.2-.3 4.3.9 4.3.8.2-.2.1-.1-1.7-4-1.8-3.9v-.6l2.9-2.3 2.8-2.4.5-.6.5-.6-.2-.2-.3-.2-4-1-3.9-1-.3-.4-.3-.4.1-1.2.2-1.3-.2-2.8-.2-2.9-.4-.1-.4-.1-.7.6-.7.7-2.5 1.9-2.5 1.8H57l-3.3-2.5-3.3-2.5h-.8v8.7l-.4.3-.3.3-4 1-4.2 1v.3l-.1.2 2.3 2 2.3 2 1 .8 1 .8v1.1l-1.6 3.5L44 130v.7h.8l4-.8 3.8-.8h.4l2 4 2 4 .3-.1zm-14.7-23.8h1.8l.1-3.7v-3.7h-.2l-1.6.4-1.6.3v1l.1.8.7 1.1.6 1.2-.3.8-.2 1-.6.4-.6.5 1.9-.1zm2.3-1.3.1-.1.2-9.3v-9.2l-.1 4.9-.2 4.9v8.9zm.2-25.4.1-6.2-.1-1-.2-.8v14.2l.2-6.2zm-5.6 5.6h.1l.9-.6.9-.5v-1l.3-.6.4-.5-.4-.5-.3-.4-.3-.7-.3-.6v-2.1l1.7-.4L44 84l.2-.2.3-.3-.5-.4-.5-.3h-2.3l-.4-.2-.4-.2V80l-.2-.7-.2-.6-.3-.1-.4-.1-.2.7-.3.8-.1 1.1-.1 1.2-.2.2-.3.3-1.6.2-1.5.2v.7l1 .5 1 .5h.8l.7-.2.1.3.1.3-.3 1.1-.3 1.2-.7.6-.6.7.4.5.3.5V91l.9.6.8.6zm17.8-5h.1l.5-.4.5-.4-.2-2.3-.1-2.3.1.2.2.1.7 1.4.7 1.4 1.2.6 1.1.6h4l.7-.7.7-.8.7-1.3.7-1.4v-.7l-.7-.3-.6-.3v-.7l.4-.4.4-.5-.2-.4-.1-.4h-1l-.4.5-.3.5h-.6l-.3-.4-.3-.3.3-.6.3-.6-.4-.4-.4-.4-.5.3-.4.4.2.8v.8l-.3.5-.4.5.2.7.1.6-.5.6-.6.7.1.2.2.3h1.1l-.2.6-.2.5.4.4.3.4-.3.3-.2.2-.4-.1-.5-.2-.3-.7-.3-.8-.2-2-.3-2.1v-2.1l.1-2.5.1-2.5.3-.3.2-.2.8.3.7.4.4-.5.3-.5-.1-.4-.2-.3-.9-.3-.9-.3-.8.2-.8.1-.8.8-.8.8-.2-.2-.7-1-.6-1v-.4l.2-.2.3-.2.4.4.4.3 1-.3.8-.4.6.2.5.2.4-.7.5-.7.6-.3.6-.2v-.9l-.1-.8-.5-.1H63l-.4-1-.5-.7-.6.1-.5.2-.7-.5-.7-.6-.6.5-.7.4-.4-.4-.5-.5H57l-.5.5-.5.4-.3-.3-.3-.3h-.9l-.3.4-.4.4-.8-.1-1-.2-.3.8-.5.8h-.7l-.3.4-.3.4.3.5.2.5.7.2.6.1.2.7.2.7H54l.5.3.5.3.7-.3.6-.4.3.2.3.2v.4l-1 1.1-1.2 1.1-.8-.8-.8-.8-.6-.2-.7-.1-.8.2-.8.2-.3.5-.2.4.3.4.3.4.7-.3.7-.3.3.5.3.4.2 3.2.1 3.2-.3.7-.4.7v1.7h-.5l-.3-.5-.3-.5v-1.5l-.3-.3-.3-.4V77l-.5-.3-.5-.2-.3.3-.3.3.3.6.3.7-.4.5-.4.5-.5-.8-.6-.7h-.7l-.2.4-.3.5.3.7.3.7-.2.4-.2.3-.3.5-.3.5.8 1.7.9 1.6.9.5.9.5L51 86l1.8-.1.7-.3.8-.4.8-1.3.7-1.2v-1.1h.6l-.1.9-.2.8-.2 1.4-.1 1.3.6.6.6.6h.2zm.1-.6H57l-.2-.1-.1-.2V86l.2-.3h.8v.8zm-8-.8H49l-.7-.3-.6-.3-.6-1-.6-.8-.2-.9-.1-.9.4-.4.4-.4v-.5l1.2-.6 1.3-.6.4.3.4.3.1.3.1.4-1-.2-.9-.2-.4.6-.4.6v.9h.5l.8-.4.7-.5.5.2.4.2v.8l-.5.1-.5.2.1.6.2.7h-1l-.3-.3-.4-.4v.9l.7.7.6.6-.1.2-.2.1h-.1zm16.3 0h-.4l-.2-.1-.1-.2.5-.7.5-.6v-.8l-.5.4-.5.4h-.6v-.8l.4-.1.4-.2v-.4h-1.3l-.2-.3-.1-.3.3-.4.3-.4h.5l.9.8.9.8.1-.2.2-.1v-1h-.5l-.2-.7-.3-.6-.7-.2-.7-.1v-.5l.4-.1.5-.2.6.4.7.5.2-.3.2-.2.1-.5v-.5l.4-.1.4-.1v.6l-.5.5-.4.5.2.6.2.7h1v1l-.5 1-.5 1.2-.7.7-.7.6h-.3zm-14-.2h-.3l.4-.8.4-.8v-3.4l.6-.6.5-.6.2.5.2.5-.4 1.5-.3 1.5V85l-.5.3-.5.3zm10.7 0H62l-.2-.3-.2-.4v-.5l-.1-.5L61 82l-.3-1.8.3-.2.3-.3.2.2.3.1v3.2l.4 1 .4 1v.4zM51 84.9l-.5.4-.4-.3-.4-.2.5-.4.5-.3V83l.4-.2.4-.2.3.3.3.3-.3.7-.2.7zm2.4.1h-.1v-.5l.3-.1.3-.2.5-1.2.5-1.2V80l.3-.2.4-.3.5.4.5.3-.5.5-.4.5v.9l-.7 1.3-.6 1.3-.4.2-.5.1zm7.5 0-.2.1-.6-.7-.7-.6-.3-1.2-.3-1.1-.3-.3-.2-.2-.4.4-.4.4.3 1.2.3 1.3-.2.2-.1.3-.5-.6-.6-.5v-2.9l.8-.3.7-.2.3-.5.4-.4.3.4.4.5.2 1.2.2 1.3.5 1 .5 1zm0-1.5h-.2l-.2-.6-.3-.5v-1.9l-.4-.8-.5-.8.2-2.4.2-2.3.4-.3.3-.3v3.1l.1 2.7.2 2.8.2.6.1.7zm-6.6-1.2-.4.5v-2.1l.2-2.1v-5.3l.3.3.4.4v2.2l.3 1.3.3 1.3-.4.6-.4.6v1.8l-.3.5zm11.2-.7h-.2l-.3-.4-.3-.3.2-.2.3-.2.3.2.2.1v.8zM57.1 80h-.4l-.3-.5-.3-.5.3-1.7.2-1.7V72l.3-.3.2-.4.3.2.3.2v4.2l.3 1.7.2 1.7-.3.4-.3.3h-.5zm-9.6-.8-.3.3-.3-.3-.3-.4v-.4h.7l.2.3.2.3zm5.7-2.1H53l-.2-.2-.1-.1v-4.9l-.4-.4-.4-.3v-.4H53l1 1 .8 1 .5-.7.5-.7.3-.3.3-.4.2.2-.2 1-.4 1 .2 1.6.1 1.5-.3.5-.4.5-.3-.4-.2-.4v-2l-.4-.6-.3-.6-.2-.2-.3-.2h-.5l.2 1.7.2 1.7-.2.6-.2.5h-.2zm8 0h-.3l-.2-.5-.1-.6.1-1 .2-1 .1-.7.2-.7h-.8l-.7.8-.7.8v2.3l-.2.2-.2.1-.3-.3-.3-.4V71h.4l.3.8.3.8h.6l.9-1 .8-.8h1.1l.1.1.2.2-.5.4-.6.4.1 2.3v2.2l-.1.4-.2.3H61zm2.7-5.3h-.3l-.3-.4-.4-.4h1.4v.8zm-9-2.4-.5-.5-.5-.5.6-.3.5-.3.4.2.4.2v.9l-.4.2-.4.1zm2.4 0H57l-.2-.1-.2-.2v-1H58l.2.3.2.3-.3.3-.4.4zm2.4 0h-.3L59 69l-.3-.4.4-.4.4-.4.6.3.5.3-.3.5-.2.5zM53 69h-.5l-.2-.4-.1-.5.4-.3.5-.4.4.4.4.4-.2.4-.1.4zm9 0h-.7l-.2-.2-.1-.3.1-.4.2-.4h1.2v1.2zm-5-1-.7.2-.5-.3-.4-.3-.6.2-.6.1-.4-.4-.3-.4-.5.1h-.6V67l-.2-.4.7-.2.6-.3.2-.3.2-.3.9.1h.8l.4-.3.4-.3.2.3.2.3H58l.2-.3.2-.3.5.3.5.3h.9l1 .4 1 .5v.9h-1l-.2.3-.2.3-.6-.2-.7-.1-.5.2-.5.3-.5-.2-.5-.3zm6.4-.4-.6.1V66h.6l.6.1v1.3zm-12-.2H51l-.2-.2-.1-.1v-1h1.2v1.2zm1.1-1.3h-.2l-.2-.5-.1-.4.3-.4.4-.4.4.2.5.2v1l-.5.1-.4.2zm9.6 0h-.5l-.3-.3-.3-.3v-.7l.5-.2.5-.1.3.1.3.2V66zM55 65l-.6.1-.1-.4-.2-.4.3-.3.2-.3.5.1.5.1V65zm2.3 0-.5.1-.2-.4-.1-.4.3-.4.3-.4.4.2.4.1v.6l-.2.6zm2.4 0-.7.1-.2-.4-.1-.4.4-.3.4-.3.4.3.5.2v.8zm-14.6 8.2.1-.7-.1-.8-.1-1V74v-.8zm-.3-4.2.1-1.8v-1.9l-.2-2V71l.3-2zm-20.2 44.5h-3v-.5l-.2.1-.3.2v-.4l.4-.4.5-.3.6-.3.6-.2.1-1 .2-1-.5-1-.6-1v-1l-.1-1 1.7-.4 1.7-.4v-.4l.2-.4-.6-.2-.6-.2h-2.2l-.2-.4-.2-.4v-.6l.3.6.3.6h2.8l.5.4.4.4v.4l-.4.3-.3.2-1.5.4-1.6.3v.2l-.2.3.3 1 .2 1 .6.7.5.6-.2 1-.1 1-1 .4-.8.4v.8h4.9l1.2-.4 1.2-.4.2-1.5.1-1.6.2-.3.1-.3h1l.2.2.2.3.3 1.6.3 1.7 1.6.2 1.6.2 1.6.1 1.7.2v-.5l-.5-.3-.5-.3-.2-1.2-.1-1.3.5-.5.5-.6.3-.7.2-.8v-.5h-1.4l-1-.2-1-.3v-.4l-.2-.4.1-.4.2-.4h1.1l-.6.3-.6.2v.5l.4.4.5.3h3l-.2 1-.2 1.1-.6.9-.7.9.3.5.3.5-.2.3-.2.3.5.5.5.5.2-.2.3-.1-.2.2-.1.2.3.4.3.4-2.3-.2-2.2-.1-1-.2-1.1-.1-.6-.2h-.6v-1.4l-.3-1.2-.3-1.2h-.4l-.4.2-.2.6-.2.7v2.2l-.8.2-.8.2-.2.2-.1.2h-3zm49 0h-2.8v-59h.2l.2-.2 6.8-.2 7-.1.2.3.2.3-.7 1-.7 1 .2.9.1.8 1 .7.9.7.9-.5 1-.5v-.4l.2-.4.2-.5.3-.6-.7-1-.7-1 .1-.3.1-.3h3.2l3.1-.1.3.4.4.5v3l-.1 2.8-.1-2.6v-2.7L94 55l-.1-.5h-6.2v1l.7.8.7.8-.3.4-.4.5.1.4v.4l-1.3.7-1.3.6-1-.7-1-.7-.2-1-.2-1.2.7-.8.7-.8-.2-.2v-.1H74.3l-3.2.1V84l.1 29.3h2.1l2.2.2-.6-.5-.6-.5-.2-1.3-.1-1.4.2-.2.3-.2.4-.7.4-.7.1-.6.2-.6h-1.5l-1-.2-1-.3v-.6l-.3-.5.2-.2.2-.1 1.6-.4 1.7-.4.1-1.6.2-1.5.4-.4.4-.5.4.2.4.1.1 1 .2 1v1.8h2.4l.6.2.7.3v1l-.3.3-.4.3-1.5.1-1.6.2.2 1.1.2 1.1.6 1 .7 1-.4 1-.3 1h-.5l-.4.2v.5l2.6-.1 2.6-.1.9-.3 1-.2v-1.4l.2-1.3.2-.6.2-.5h1l.3.5.3.5v2.6l.6.2.6.1 1.1.1 1.2.2 1.6.2 1.5.1.1-.4.2-.5-.3-.6-.2-.5-.2-1-.2-1 .6-.7.5-.7v.4l-.4.5-.4.4.3 1.3.3 1.3.1.9.2.8h-3.8l-.1-.2-.2-.3h-2.8l-.2-.3-.2-.3-.1.2h-.2v-1.4l.1-1.5-.2-.4-.3-.4-.4.2-.4.2-.2 1.2-.1 1.2v.5l.2.5-.2-.1-.2-.2-.2.3-.1.3h-1.2l-.2.3-.1.2h-6.4l.5-.5.5-.5.4-.1.4-.2.2-.8.2-.9-.7-1.4-.7-1.4v-.7l.2-.7 1.5-.3 1.5-.3.3-.3.4-.4-.3-.2-.3-.3-1.6-.2-1.5-.2-.2-1.7-.2-1.7-.3-.2-.3-.3-.3.3-.3.3-.1 1.6-.2 1.7-1.7.4-1.7.4v.4l-.2.3 1 .4 1 .4.7-.1.8-.2.1.3.2.3-.4 1.1-.5 1.2-.4.3-.4.3.2 1.2.2 1.3.8.7.9.7h-2.8zm20.7-6-.1.3-.1-.7-.1-.8-1.3-.5-1.3-.4-.3-.4-.3-.5.5-.4.5-.4h1.8l.3-.3.3-.3V92l-.5-.7-.6-.7.1-.4.2-.4-.3-.1-.2-.2v-1.2l.5-.5.5-.5v-.8l.2.3.2.4-.6.8-.6.8.3.6.3.6-.1.3-.2.2.6.8.5.8v11.2l-.4.4-.5.4h-1.8l-.2.4-.3.3.6.5.6.4.8.1 1 .2v.6l.2.6-.1.4zm-64.2-4.8h-.4l-.7-.8-.7-.7-.2-1-.1-1.1.6-1.3.7-1.3v-1h-1l-1.2-.5-1.3-.5v-.8l.3-.2.3-.2 1.5-.3 1.5-.3.1-1.7v-1.8l.5-.3.3-.3.4.1.4.2.3 1.2.3 1.2V93h2.9l.3.5.2.6-.2.3-.3.4-.9.1-.8.1-.8.3-.7.3.1 1 .2 1-.3-1-.3-1 .2-.2.1-.2 1.5-.4 1.5-.4v-1l-1.4-.2h-1.5l-.1-1.4-.2-1.4-.2-.6-.2-.6-.4.1-.5.1V91l-.1 1.7-.3.2-.4.3-1.3.2-1.3.3v.4l-.2.4 1 .5 1 .4.6-.2.7-.2v1.6l-.7 1.3-.7 1.3.2 1 .2.8.6.8.7.7h.6l.7-.6.8-.6.3-1 .3-1-.4-.5-.5-.7v-.4l.7.8.7.9-.3.5-.3.5v.9l-1 .7-.9.8h-.5zm55.6 0h-.5l-.8-1-1-.9.2-.2.2-.3-.3-.6-.3-.5.7-1 .7-1 .1-.8.2-.9H84l-1.2-.5-1.2-.5v-.8l.5-.2.4-.3 1.3-.2H85v-2l.3-1 .3-1 .3-.2.4-.1.4.3.3.3.1 1.8.1 1.7 1.5.2 1.6.1.2.4.3.4v.3l-.4.3-.3.3-.8.1-.8.2-.7.2-.7.1v.6l.3 1 .2 1.1.6.6.6.7-.4.5-.3.5v.9l-.9.7-.9.8h-.5zm0-.3h.2l.9-.6.9-.6.2-1 .1-.8-.5-1.2-.6-1.1-.1-1-.2-1 1.7-.3 1.6-.4.2-.4.1-.4-.2-.1-.2-.2-1.5-.2H87v-1.5l-.1-1.5-.1-.6-.2-.6H86l-.4 1-.4.8V93l-.7.3-.6.3h-1.5l-.3.4-.3.3.2.2.2.2.9.4.8.4.7-.2.6-.2v1.6l-.6 1.2-.7 1.3.2 1 .1 1.2.7.6.7.6h.2zm-63.4-1.1v1l-.1-1v-.9l-.5-.6-.3-.7v-6.9l.2-.3.1-.3.6-.3.6-.3v-1l.4-.5.4-.4-.5-.7-.5-.6-.1-.8-.2-.8.3.8.3.8.5.6.5.5v.6l-.4.3-.3.3.1.6.1.7-.7.1-.7.2-.2.4-.2.5v3.3l.1 3.3.3.6.3.6v1zM20 96.7h-.4l-.1-.3-.2-.2.2-.4.2-.4h.7v1.3zm87.4-1.3h-.2l-.9-.8-1-.7-.7-.4-.9-.5v-1.5l.8-1.4.7-1.5h.4l.5-.2.5 1 .5 1.1.6 1.6.5 1.5v1.1l-.3.3-.3.4h-.2zm-.1-1.1h.2l-.2-.5v-.4l-.5-1.5-.4-1.4-.4-.6-.4-.5-.6 1.4-.7 1.5.3.3.3.4h.6l.7.6.8.7h.3zm-10-.5-.4.6-.2-.7-.2-.7.3-1.1.3-1.2L97 92l-.1 1h.4l.5-.8.5-.8 1.2-.3 1.2-.3v-1.6l.1-1.7-.4-.8-.4-.8-1-.8-1.2-.8h-.6l-.2.5v.5l-.1 2.6v2.6l-.2.2-.2.1.1-3.5.1-3.5.3-.2.3-.3 1.3.8 1.4.8.8 1 .7 1.2v4.2l-.4.2-.4.2h-1.5l-.7.8-.7.8-.5.6zm-21-1.4H76l-1-.8-1-.8.2-.5.1-.5-.4-.3-.3-.3v-.6l.5-.5.6-.5.4-.9.3-.8v-1h-.7l-.8.2-1-.5-1-.5-.1-.6-.1-.6h.3l.4-.2 1.5-.2 1.5-.1.1-.9.1-.8v1.9l-1.8.2-1.7.3v.4l-.1.4 1.2.5 1.1.4.7-.1.7-.2v1.6l-.5 1-.6 1.1h-.5v1l.3.2.3.2-.2.5-.1.6.8.7.9.8h.5l.9-.6.8-.6v-1.1l.3-.3.4-.3-.7-1.3-.7-1.2-.1-.8-.2-.9.2-.2.2-.3 1.7-.3 1.7-.4.2-.1.2-.2-.3-.4-.2-.4-1.7-.1-1.6-.2-.3-2-.3-2h-.7l-.4 1-.3 1V79l.3-.5.4-.5.5.1.5.1.2 2 .3 2.1h2.7l.6.4.6.4v.5l-.2.4-2 .4-2 .4.2.8v.8l.4.8.4.8.3.4.4.5-.4.6-.3.5.1.5.2.4-1.1.7-1.1.7h-.4zm-53.8-6.8-.2.6v-1.4l.1-.1.2-.1 1.1-.2 1-.1-1 .3-1 .4-.2.6zm71.6-.3-1.4-.5-1.5-.4-.2-.4-.3-.5.2-.4.1-.4h2l.6-.3.7-.3V70.8l-.5-.5-.5-.5-.1-1.1-.2-1.1.6-1 .7-1v.6l-.6.7-.5.7.3.6.3.7-.1.2-.2.3.5.7.6.7v11.3l-.4.3-.4.3-1.3.2-1.2.2-.1.4v.4l1 .4 1 .5h1.1v.5zm-68.6-1.1h-.7l.5-.1.5-.2.3-.2.2-.2-.3-.4-.3-.3-1.7-.1-1.6-.2V82l-.2-.7.3.6.2.5 1.7.1 1.6.2.2.3.3.4v.4l-.2.4zm5.1-2.9H30l-.6-.5-.7-.5-.3-.3-.4-.3.2-.4.1-.4-.3-.5-.3-.5.6-.7.6-.8.2-.6.3-.6.1-.6.2-.7H28l-1-.3-1-.2.1-.7v-.8h.9l-.4.1-.3.1v1l.3.2.3.2h1.5l1.5.1v.3l.2.3-.4 1-.3 1-.7.8-.6 1 .3.2.3.3V80l.8.6.8.6h.5l1-.6.9-.6v-1.1l.3-.3.2-.3-.7-1-.7-1.1v-2.5l1.7-.3 1.8-.3.2-.2.1-.2-.1-.4-.2-.4h-2l-.7-.2-.8-.2-.2-.4v-.4l.3.3.4.4 1.2.1 1.1.2.6.1.6.1v1.2l-.6.2h-.6l-1.3.3-1.3.2V76l.4.6.4.5.4.6.4.6-.4.4-.4.4.2.4.1.4-.6.2-.6.3-.4.4-.3.4h-.6zm55.3 0h-.7L85 81l-.2-.4-.6-.3-.6-.3.1-.6.2-.5-.3-.5-.3-.5.7-1 .7-1 .2-1 .3-1h-1.8l-.8-.3-.8-.3-.3-.4-.2-.5.2-.2.1-.3.6-.2.5-.2-.5.4-.4.4v.8l.8.3.8.3h2v.4l-.2 1-.3 1-.5.7-.5.6v1.2l.2 1.1.8.7.8.7h.6l.9-.6.9-.5.1-1 .2-1-.5-1-.6-.9v-1.3l-.1-1.2.5-.1.6-.1 1.4-.3 1.4-.3-.1-.4-.1-.5h-1.3l-1.1-.2-1.2-.2v-1.4l-.3-1.3-.4-1.3-.3-.1-.3-.1-.2.7-.3.6-.1 1.4-.2 1.3v.1l-.2.1-.9.2-.9.1.9-.3.8-.3v-1.4l.4-1.3.3-1.3H87l.4 2 .4 2 .5.2.6.1h2l.3.5.4.4v.3l-.2.4-1.7.3-1.6.3-.4.1-.3.1.2 1.2.1 1 .7 1.1.7 1-.3.5-.3.5.1.2.1.2-.2.3-.1.2-.9.6-.8.6zm-63.4-.7-.1.2-.5-1.8-.5-1.8v-6.1l.5-.4.5-.4.4-.2.5-.1-.1-.7-.2-.6.4-.2.5-.1-.7-1.1-.7-1.2-.1-1.2-.2-1.2 1.5-.3 1.5-.4v.1l.2.2-1.5.3-1.4.3.1 1.1.2 1.1.7 1 .7 1-.3.6-.3.5v1l-.7.2-.7.2-.3.6-.2.7V77l.5 1.7.3 1.6v.3zm5.6-8.8h-.4l1-.3 1-.3v-2.5l.2-.7.3-.7.4-.2.5-.1.3.5.4.4V70l-.2-.2v-.2l-.2-1-.2-1h-.7l-.3.5-.3.5v2.7l-.7.3-.6.2H28zm11.6-1h-.4l-1-1-1-.8.1-.3.2-.3-.3-.5-.3-.5.8-1.2.8-1.1.2-.8.2-.7h-1.8l-1-.3-1-.3-.1-.4-.1-.3.1-.4.1-.3 1.6-.2 1.6-.2v-.3l-1.2-1-1.1-1-.5-1.2-.4-1.1-.2-1-.2-1.1h-2.4v.4l-.1.5.6.7.7.7v.7l-.2.2-.3.1v1l-1.2.6-1.2.6-1-.5-1-.5-.3-.9-.3-.8v-.8l.6-.8.7-.8v-.4h-3.7l-3.6.1h-.4V56l.5 2 .6 2.1-.2.1v.1l-.4-1.1-.3-1.2-.2-.6-.2-.6v-2.3l.4-.2.4-.1h7.4v.9l-.7.8-.7.9.2.8.2.8.8.7 1 .6h.7l.3-.4.3-.4h.8v-1.4h.5v-.7l-.7-1-.6-1v-.3l.1-.3h3.2l.1 1.2.2 1.2.3.8.3.8.7.8.7 1 .7.3.8.4v.3l-.2.4-1.6.2-1.7.3-.1.3-.1.4.9.4 1 .3h2.1l-.1.9-.2.9-.7 1-.6 1 .2 1 .1 1.2.7.6.7.6h.6l1-.6.9-.6v-1.1l.3-.3.3-.2-.7-1-.6-1-.2-1-.2-1.1.1-.1h.1l1-.2L43 63l-1 .3-1 .3v.6l.3.8.2 1 .7.7.7.8-.3.4-.4.5.1.4v.5l-.4.2-.5.2-.6.5-.6.5h-.5zm36.8 0H76l-.2-.4-.2-.4-.6-.3-.6-.2-.1-1.2-.2-1.1.8-1.2.8-1.2v-1.2h-1.8l-.8-.3-.8-.3-.2-.5-.2-.5.2-.2.2-.2 1.6-.2 1.6-.3.3-1.8.3-1.8.3-.3.3-.3.5.1.5.1.2 1.9.3 1.8.2.2.3.2H78l-.2-1.7-.1-1.8-.3-.3-.3-.2-.4.3-.3.3-.2 1.7-.2 1.7-.6.2-.5.1-1.2.2-1.2.2v.3l-.2.3.8.4.8.4H76v1.5l-.4.6-.3.5-.5.7-.5.7.3.4.3.4-.1.5-.2.4 1 .8.9.7h.5l1-.7.9-.7-.1-.3-.1-.3.3-.4.4-.4-.7-1-.6-.8-.2-1.2-.2-1.3 1.4-.3 1.4-.3h1l.1-.3.2-.2-.3-.4-.3-.4H80l-1.3-.1 1.1-.1 1.2-.1.5.3.6.3-.1.6v.5l-.6.1h-.6l-1.3.4-1.4.3v.8l.2 1 .3.8.6.7.6.6-.3.5-.4.5v.7l-1 .7-1.1.8h-.5ZM94 64l-1.3-.3-1.3-.4-.4-.4-.5-.5.3-.4.3-.5h1.2l1.1-.1.4-.4.4-.3-.1.4-.2.4-.9.1h-.9l-.6.2-.6.1v.8l1 .4.9.4h1.4v.5zm-68.2-1h-.3l.3-.2.4-.3-.1-.3-.2-.4-1.8-.3-1.8-.2-.1-.6v-.5l.2.4.3.5 1.4.2 1.4.1.4.2.5.1v.6l-.2.5zm20.3-5-.8.6-.2-1.2-.2-1.1.2-.6.2-.5-.3-1-.3-1.2.3-.4.3-.4h5l-.2.6-.1.6-1.2 1.6-1.1 1.6-.4.4-.3.4zm-1.8.3h-.5l-1-.5-1.1-.5-.6-.6-.6-.7-.2-1-.2-.8h2.1l2.2.1.3.1.2.2v1.8l-.1 1.8zm-.2-.2h.4v-3.5h-3.9v.4l-.1.4.5.8.6.7 1 .6 1.2.6zm35.4-4.5h-1.1l-.3-.4-.2-.3-.6-1.2-.5-1.3-1.5-2-1.4-2-.6-1.6-.5-1.5v-3.6l.4-.6.4-.6h.7l.5-.8.6-.8 1.8-.5 1.7-.6 1 .4 1.1.5 1 1 .8 1v1l-1.5.7-1.5.8-.8-.8-.8-.8-.7-.4-.7-.4-.7-.1h-.8v4.6l.9 1.5.8 1.6 1.4 1.9 1.4 1.9.7 1.3.7 1.4-.3.3-.3.3zm-6.4-.6H70l-.2-.4-.2-.4h-.7v-.7l2-1.2 2-1.2.2-.4.4-.4h.7l.4.8.4.8.3-.2.2-.2v.5l.1.6.2.6.3-.2.3-.2-.2.3-.1.3.1.4.2.4.2-.1.2-.1-.1.5-.2.5zm-14.3-.8h-2.2v-.9l.5-1.3.4-1.2.3-.1.3-.1.7-.2.8-.2.5 1.2.5 1.2.2.8.1.8zm-.2-.5h1.8l-.1-1-.2-.9-.3-.4-.3-.3h-1.7l-.3.7-.3.7-.2.6-.1.6zm-8.4-.3h-.4l-.3-.4-.3-.4-2.5-1.3-2.5-1.4v-.8l.2-.8.5-1.2.4-1.2.1-1.6.2-1.6v-.6l.2-.6.6.3.5.3-.1 1.8-.2 1.8.3 1 .2 1 1.8.7 1.7.8h.6l.3.2.4.2-.4 1.6-.4 1.5-.3.4-.3.3zm.2-.5h.2l.2-.7.3-.7.2-.7.1-.7-1.4-.5-1.4-.4-.9-.6-.8-.5-.4-.9-.4-.9v-.5h-.5L45 45l-.4 1.3v.6l-.1.6 2.8 1.7 2.8 1.7zM46 42.2l.2-.4v-.9h-.5v1.7zm21.1 9.2h-.5v-.1l-.5-1.4-.6-1.5v-1.1l1.3-.4 1.2-.3 1.2-.5 1.2-.6.3-.4.2-.4v-4.2l.2-.4.2-.4.2.1.1.2.1 1.6.2 1.6.6 2 .7 2v.7l-1.6 1-1.7.8-1 .6-1 .6-.1.3-.2.2zM67 51h.3l3-1.8 2.9-1.7-.2-.4v-.5l-.5-1.2-.5-1.3-.4.9-.4.8-1 .6-.8.6-1.5.5-1.5.4-.2.2-.2.2.2.6.3.7.1.7.2.7zm-24.2-3.8-.2.1-.9-.6-.8-.5v-.4l.7-1.4.7-1.5v-4l-.1-.2-.2-.1-1 .3-1 .2-1.2 1.1-1.1 1.1-1.5-.8-1.5-.7-.1-.4-.1-.3 1.2-1.3 1.3-1.3 1-.3.9-.3 1.7.7 1.6.6 1.2 1.2 1.3 1.2V41l.2 1.4-.4 1.6-.4 1.5-.5.8-.5.8zm-3.3-1.7h-.1L39 45l-.4-.5-.3-.6-.3-.5V42l.6-.8.6-.9 1-.5 1-.5.2.4.3.4-.2 1.3-.1 1.3-.4.8-.5.8-.4.5-.4.5zm.3-.8h.3l.4-.7.4-.6.2-1.3.2-1.2v-.4l-.2-.3h-.8l-1 1-1 1v1.2l.6.6.6.7zM50.5 41H50l-.3-.4-.3-.3.3-.2.3-.2-.2-.8-.1-.8.3-.4.3-.3h.8l.5-.7.5-.7-.3-.3-.3-.4-.7-.1-.8-.2-.5-1-.6-1 .3-.3.3-.3 1.7-.5 1.8-.6 1.9-.4 2-.4h4.5l2.2.4 2 .4 1.5.5 1.4.6.8.5.8.6-.2.1-.2.2h-1.6l-.4.7-.3.7H66l-1.4-.1-.4-.2-.4-.2-.4.4-.5.3.2 1.1.1 1.2.7.3.6.3v.9l-.4.1-.3.2-2-.3-2-.2-3 .2-2.8.3h-.4v-1l.5-.4.5-.3.2-1 .2-1-.5-.2-.4-.2-.5.4-.5.3h-.9l.6.4.6.4v1.4l-.7.6-.6.7h-.9l-.2.7-.3.6h-.3zm5.5-2h.5l.2-.2.1-.3-.5-.3-.6-.3-.3.3-.2.2.1.3.2.3zm2.2-1.5.3-.3h1.2l-.1-.8-.2-.7.4-.5.5-.4h1l.1-.3.2-.3-.8-.3-.8-.3v-.5l-.1-.5V32l-.5-.3-.4-.3-.5.3-.4.4v1.2l-.9.4-.9.4-.1.3-.2.2.2.5.2.4.9-.1.9-.2.1.5.2.4-.3.8-.3.8zm10 3.3H68l-1-.3-.9-.4v-.4l.1-.4-.8-.4-.7-.4-.2-.7-.2-.7.5-.4.4-.4.7.3.6.3v.8h.6v1h.8l.3-.8.2-.7h.5l.3.7.3.7-.3 1.1-.4 1.2zm.8-4.5-.3.1v-1.1h.3l.4.2v.7zm-.2-6.8h-.5l-.8-.4-.9-.4-.1-.3-.2-.2h-1.5l-.8-.3-.8-.3-.2-.4-.1-.4-.9.2-.8.1-.8-.6-.7-.5v-1l.2-1-.4-.5-.4-.4H59l-.5.3-.5.3v2l-1 .7-.8.7h-1.5l-.4.5-.3.6h-1.3v-1l.7-.3.6-.3-.1-.5-.2-.5-.2-.5v-.6l.2-.2.4-.2H56v-1.4l-1 .1h-1l-.4-.6-.4-.7h-1l-.5.7-.6.7v.7l-.4.3-.4.4v.9l.4.3.3.3.6-.3.5-.4.3.3.3.3-.3.7-.2.7-.7.4-.7.4-.3-.2-.3-.2H49l-.1-1-.2-.9-1 .1H47l-.3-1.4-.3-1.5v-.4l1.9-.8 1.8-.9 2.6-.6 2.6-.7h6l2 .4 2 .4 1.6.6 1.6.5.9.5 1 .4v3h-1.2v-.5l-.3.1-.2.2.1.4.1.3-.3 1-.4.9h.5l.6.2v1.7H69zm-4.5-3.2h.6l.2-.5.1-.6.4.2.5.2.6-.5.7-.4v-1.3l-.8-.2-.8-.1-.1-.8-.2-.8-.3-.1-.2-.2-.4.3-.4.3v.6l-.1.6h-.5l-.6-.2h-1V24l1-.1 1-.1V25l-.2 1.2zm-17 2.6h-.2l-.2-.1-.1-.2.1-.3.2-.4-.3-.4-.3-.3.2-.2.1-.2h1l.2.4.1.5-.3.6-.3.6zm12-1.6-.2.3-.6-.3-.6-.2V26h.5l.6.2.3.4.3.5zm12-6.6H71l-.3-.2-.2-.3-1.7-.9-1.7-.8v-1.1h.6l.6-.1v.5l1 .4.8.4v.6h.8l.4.4.4.4v.7zM47 20l-.1-.2-.2-.2v-1h.4l.5-1 .4-1.1h.3l.4.2v.6l.1.5-.6.3-.7.3.2.5.3.4-.3.3-.3.4zm23.2-2.2h-.6l-.3-.2-.4-.2.1-.5.1-.5 1-.1h1l.2.3.1.5-.3.3-.3.4h-.6zM20.8 145.3l1-.2.7-.5.6-.5.6-.7.5-.7v-1.6l-.9-1.6-.8-1.7-.2-.3-.3-.4-1.6 1.4-1.7 1.3-1.2.6-1.2.6h-.1l1 1.7 1 1.6.8.5.7.6zm-.4-.7H20l-.9-.5-.8-.4-.6-.7-.5-.6v-1.2l2-1.5 2.1-1.5h.5l.6.2.4.9.5 1v2.5l-.6.6-.5.6-.7.2-.6.3h-.5zm81-4.8h.2v-.4l-2-1.2-2.2-1.3-.8-.2-.8-.1v.4l2.7 1.4 2.7 1.4h.2zm-86.6-2.6h.2l2.2-2.4 2.2-2.4-.1-.3-.1-.3-1-.2-.9-.2-2.5-.2-2.5-.1.6.4.6.5.7 1.9.7 1.8-.2.7-.1.8zm1-2.4h-.4l-.3-.6-.2-.6-.2-.6-.1-.5.3-.5.4-.5 1 .2 1.2.2.3.4.3.4-.9 1-.8 1zm81.6 0h.3l.4-1 .4-.9h1.2l1.8.8 1.8.8h.3l.3-.2-2.1-1-2.1-1-.3-.4-.2-.4.6-1.3.5-1.3-.1-.1-.2-.2v.1l-.2.1-1.3 2.9-1.4 2.8v.2zM8.1 112v-2l-.3.8-.4.8.3.2.4.2zm-3.2-1.8h.4v-.6h1.8l.2-.4.1-.4-.7-.8-.7-.9-.2-.2-.5.5-.5.5v.7h.5v.5l-.4-.2-.4-.1v1.4zm3.3-.4.3-.2-.1-.1-.1-.1.2-1 .2-1-.5.7-.5.6.1.4.2.3v.5zm.6-4.4.2-1.2V102l-.4.5-.3.5.1 1 .1 1.1-1-1-.9-1.1-.4-.9-.4-.9-.1.2-.2.1.7 1.4.7 1.4v1.5l.7-.1.7-.2.1.6.2.6.2-1.2zm9-3 2-.2.1-.2.2-.2-.4-.3-.4-.4v-1.3l.6-.7.6-.8-.2-.2-.1-.1-.6.4-.6.4h-1.4l-.9-.8-.9-.8-1 .1-.9.2-.5.3-.5.2-.3 1-.4.8.1.4.2.4 1 .7 1 .7.8.2.7.3zm83.2 0h1.3l1.4-1 1.4-.9-.1-.9-.2-1-.7-.5-.7-.6h-2.2l-.5.6-.4.7h-2l-.4-.4-.5-.5-.2.2-.2.2.6.8.6.7v1.2l-.5.5-.4.5h.4l.3.2.8.1.8.2zM5 95.6l.2-3.5.6-1.8.6-1.7.3-.5.2-.5-.1-.1-.1-.1-.8 1.4-.7 1.4-.2.7-.2.6-.3 1.2-.3 1.2.2 2.3.1 2.4.2.3.2.3zm3.5 2.7h.3l.1-.4.2-.4-.5-.5-.4-.6v-2.3l.2-2.3.6-1.2.5-1.2v-.7l-.4.3-.3.3v.8h-.6v1.2l-.4.5-.4.5v4.1l.4 1 .4.9h.3zm8-1.4h.5v-1h-1.3l-.2.3-.2.3.4.2.3.2h.5zm-10.7-.5h.3l.1-.3.2-.2-.2-1-.1-1-.3.4-.2.4v1.7zm4.4-2.1.3-.1 1.4-.8 1.3-.8v-.4l-.6-1.3-.7-1.4h-.4l-.6 1.2-.5 1.1-.2 1.3-.2 1.3.2-.1zm10.1-1v-9.1h-.8l-1 .7-1 .7-.5 1-.6 1v2.6l.3.4.2.3 1 .2 1 .2.7 1 .6 1h.1zM17 92.1h.5v-.3l-.2-.4h-.6l-.5-.1v.4l.1.2.2.2zM11 87l1-1.2h.7l.3-.5.2-.5-.2-.2-.3-.1-.2.2-.3.2-1 1.3-1.1 1.3v.6l1-1.1zm7.6-6.5h1V80h-1.2l-.4.3-.4.2h1zm-.7-1h.5l.4-.3.4-.2h-1.4l-.2.2-.1.3h.4zm64.9-33.2 1.9-1.8-.1-.1-.1-.1-.8.7-.8.8-1 1.1-1 1.2Zm19.7 1.2h.1l.8-.7.7-.7h-.7l-.5.3-.5.3v.8zm-24.7-3h.5l.4-.4.4-.5.2-.6.1-.6-.6-.8-.7-.9-.8-.5-.8-.4-.2.4-.1.4v1l.2 1 .5 1 .4 1zm10-2.4 1.8-1 1.5-.5 1.6-.6.5.1.5.2v-1l.1-1.2.2-1.2h-.7l-1 1-.8.8h-.9l-.3.7-.3.7-1.4.9-1.4.9-.5.5-.6.6Zm5.9.9h.2l.3-.6.3-.5-.3-.5-.4-.5h-.4v2zm10-.3h.3V42l-.3-.1-.3-.2-.2.3-.3.2.2.3.1.3zM11 41.4h.1l.7-.3.7-.3V40l-.6.2-.6.1h-.4v1.1zm95.3 0h.4l-.1-.6v-.6h-.8l-.7-.2v.8l.4.3.5.3h.3zm-2.2-2h.3v-.5l.2-.5-.3-.3-.3-.3-.3.3-.3.3.2.6.2.6.3-.1zm3.2-.1h.4l.1-.3.2-.3-.2-.2-.1-.3-.4.2-.4.1v.8zm-19-3h.3l.4-.5.5-.5h.7l.7-.1v-.4l.2-.3-.7-.1-.6-.2-.6.2-.6.1-.3.8-.4.8v.3zm9.3-1.5.5-.3.3-.6.4-.7-.2-.2-.2-.2-.7 1-.8.8.1.2.2.2zm15 0h.3l.4-.4.3-.4-.1-.2-.2-.1-.5.3-.6.3v.5zM99 32h.1l.5-.4.5-.4h1l.1-.2.2-.3-.3-.4-.3-.4h-1.3v.8h-1l-.5-.5-.4-.6h-1.8l-.1.3-.2.3h1.7l.8.9.8 1h.2zm4-3.1.9-.7.2-.2.3-.2h-.9l-.6.9-.6.8zm4.3-.6h.4l-.5-.7-.6-.7v-.8l.6-1 .6-1.1.5-.7.5-.6v-1l-.4-.2-.4-.1-.8.4-.8.5.2.5.3.5-.3 1.2-.3 1.3-.2.5-.2.4V28l.4.2.5.3h.5zM53.7 16.2h.2l.4-.3.5-.3-.2-.6-.1-.6h-1.3l-.1.2-.2.3.3.7.3.6zm9.8-.2h.5l.2-.7.2-.7-.4-.2-.3-.2-.3.1-.4.1-.1.5-.2.6.2.2.1.3zm-3.1-5.6h.2l.4-.8.4-.7V8l-1-1.1-1.2-1.2.2-.7.2-.7.8-.3.7-.2v-.5l-.9-.6-1-.5v-1L59 1l-.3-.3-.3.4-.3.4-.2.8-.2.8-.7.1-.8.2v.3l.2.3.9.2.9.1.2.7.3.8-.9 1L57 8l-.3.6-.3.6.5.5.4.5 1.5.1 1.5.1zm143.3 119h-2.1l-.4-.1-2-.3-2-.4-1.4-.4-1.4-.4-2-.9-2-.9-2-1.4-1.8-1.5-1.5-1.9-1.4-1.9-.4-.9-.5-.9-.4-1-.4-1.2-.4-1.6-.4-1.5L181 91l-.2-21.2-.3-1-.2-1.1-.7-1.2-.6-1.2-1-.6-1-.7v-.6l.2-.7h18.4l.3.5.3.5-.8.5-.8.6-.6.7-.7.8-.5 1.2-.4 1.3-.2 2-.2 2.2.1 17.9.2 17.8.6 2 .5 2 .9 1.7.8 1.7 1.5 1.4 1.4 1.5 1.6.7 1.6.8 2 .4 2 .4h3.2l1.8-.4 1.9-.4.8-.2.8-.3 1.6-.7 1.5-.8 2-1.8 1.8-1.8.9-1.6.9-1.7V68.8l-.7-1.5-.7-1.5-1.2-1-1.3-1 .1-.6.1-.5h9.3l9.2-.2.3.5.3.4v.4l-.2.3-1 .5-.8.6-.7 1.1-.7 1.2-.4 1.8-.3 1.9v48.3l.4 1.7.4 1.8.6 1 .5 1.1 1 .7 1 .6v1.2h-14.5l-.3-.5-.3-.5v-4l-1.7 1.5-1.8 1.4-2.1 1-2.2 1-1.8.6-1.9.6-2.8.4-2.8.4zm72.3 0h-4.4l-.8-.2-2.6-.3-2.7-.3-2.1-.4-2.2-.5-2-.7-2.1-.7-2.4-1.2-2.3-1.2-2-1.4-2-1.3-2-2-2.1-2.1-1.4-2-1.3-2-1-2-.9-1.9-.6-2-.7-2-.4-2.1-.5-2V89.8l.3-1.8.4-1.9.8-2.5.8-2.5 1.2-2.4 1.2-2.4 1.1-1.6 1.2-1.7 1.5-1.5 1.5-1.6 1.7-1.4 1.7-1.4 2-1.2 2.1-1.3 2.1-.8 2-.8 2.5-.7 2.3-.6 3.6-.5 3.6-.4 2.6.2 2.7.1 2.4.3 2.3.3 1.4.2 1.3.3 2.8.5 2.7.6.5.4.5.4v5.6l-.2 5.6h-.4l-.4.1L286 74l-3.3-1.6-1.7-.6-1.7-.5-2-.4-1.9-.4h-7.2l-2.6.6-2.5.7-1.4.7-1.5.7-1.6 1.2-1.6 1.1-1.8 2-1.7 1.9-1.3 2.6-1.3 2.6-.6 2.3-.6 2.2-.1 3.7-.1 3.8.5 2.5.6 2.5.1.8.2.8 1.5 3.1 1.5 3.2 1.2 1.5 1.2 1.4 1 1.1 1 1.1 1.5 1 1.5 1.1 1.2.7 1.2.7 1.8.6 1.9.7 2.3.4 2.4.4h3.5l3-.5 3-.5 1.6-.4 1.4-.4 1.9-.7 1.8-.7 3-1.5 3.2-1.5.3.4.3.3-.3.8-.3.9-1.6 3.8-1.7 3.9-.5 1-.6 1-1.4.8-1.5.7-1.6.4-1.6.5-2.2.3-2.2.4-3.6.1zm94.4 0h-3.2l-.9-.2-3-.4-3-.3-2.7-.7-2.6-.7-1-.5-.9-.4-.3-1-.3-1.1-.4-2-.5-2-.7-2.8-.7-2.8.2-.5.2-.4h.8l2 1.4 2 1.5 2 1 2 1 2 .7 1.8.7 1.7.4 1.7.4 1.7.3 1.8.3h2.8l2-.4 2-.3 1.7-.8 1.8-.7.8-.5.7-.6 1-1 1-.9.5-.9.5-1 .4-1.3.3-1.3-.5-1.8-.5-1.8-1-1.3-.9-1.4-1.7-1.3-1.8-1.4-1.8-1-1.8-.9-4.2-1.9-4.3-2-2-1-2.2-1-1.9-1.2-1.8-1.2-1.5-1.3-1.6-1.4-1.2-1.6-1.1-1.7-.7-1.4-.6-1.4-.3-1.8-.3-1.7v-2.8l.3-1.8.3-1.7 1-2 .9-2 2-2 2.1-2 2.7-1.4 2.8-1.3 2.3-.6 2.4-.7 2.4-.3 2.4-.4h7.4l2.2.4 2.3.3 1.4.3 1.5.2 1.5.4 1.4.5.5.5.4.5v10l-.1.4-.2.4h-1l-1.5-1.2-1.4-1.2-1.4-.7-1.4-.7-1.7-.6-1.7-.7-2.6-.4-2.7-.4-2.7.3-2.6.4-1.7.7-1.6.7-1.2 1-1.1 1-.6 1.2-.7 1.2v3.8l.8 1.4.8 1.3 1.3 1.3 1.4 1.3 2.2 1.3 2.2 1.3 2.8 1.3 2.8 1.3 4.2 2 4.3 2 2.4 1.7 2.3 1.6 1.2 1.1 1.2 1.2 1 1.3 1 1.3.6 1.8.7 1.7v6.4l-.8 2.1-.8 2.1-1.3 2-1.2 1.9-1.7 1.6-1.7 1.6-1.7 1.1-1.7 1.2-1.9.9-1.9.8-2.2.7-2.3.7-2.8.4-2.8.4h-2.2zm-57.2-1.8-.6.2-8.8-.2h-8.9v-.5l-.2-.5 1.1-.7 1.1-.7.7-1.4.6-1.5.3-1.8.3-1.8-.1-24.8-.1-24.9-.6-1.4-.6-1.5-1.3-1.2-1.4-1.2.1-.5.1-.5 11-.1h11l3.6.2 3.7.3 2.3.7 2.2.6 2 1 1.8 1 2 2 2 2 .8 1.7 1 1.8.3 2 .3 1.9V80l-.4 2-.4 1.8-.6 1.4-.6 1.4-1 1.5-1.1 1.6-1.2 1-1.1 1.2-1.3 1-1.3 1-1.8.8-1.7.9-1.1.3-1.2.3v.5l3.6 4.4 3.5 4.4 3.6 4.7 3.7 4.6 2.8 2.7 2.7 2.7 3.2 2.5 3.3 2.4 1.1.8 1.1.7v.5l-.1.4h-6.1l-6.1.2-1.3-.3-1.2-.3-1.5-.7-1.6-.7-1.5-1.6-1.6-1.6-6-7.3-5.8-7.4-1.5-2.3-1.5-2.3-2.7-4.1-2.7-4.1-.1-.3-.2-.4.1-.3.2-.4 1-.3 1.2-.3 1.7-.4 1.7-.5 1.7-.6 1.8-.7 1.4-1 1.5-.8.9-.9.9-.8.8-1.4.9-1.3.5-1.5.4-1.6-.1-2-.1-2-.7-1.5-.7-1.5-1.1-1.2L324 72l-1.7-.8-1.6-.8-2.2-.5-2.1-.4-3 .4-3.2.5-.2.1-.3.2V120l.5 1.6.4 1.7.5 1 .6 1 1 .6 1 .7v.4l-.1.4-.5.2zm-172.7 0h-9.7l-.2-.4-.1-.4.5-.4.5-.5.7-.5.6-.4.6-1 .5-1 .4-1.8.4-1.8V70.9l-.5-2-.5-1.9-.7-1-.7-1-.8-.5-.8-.4v-.7l.2-.7 11.2-.1h11.2l3.7.2 3.8.3 2.4.7 2.5.6 2.4 1.2 2.4 1.3 2.2 2.1 2.1 2.2.7 1.3.7 1.4.4 1.2.4 1.2.3 2 .2 2-.2 1.9-.2 2-.7 1.8-.6 2-1.2 1.7-1.3 1.9-1.4 1.3-1.4 1.4-1.5 1-1.5.9-1.8.8-1.7.8-2 .5-2 .6h-8.5l-1.5-.4-1.5-.5v-1.3l.5-.1.6-.1 1.4-.2 1.3-.2 1.5-.5 1.6-.5 1.7-.9 1.7-.8 1.5-1.2 1.5-1.2 1-1.6 1.2-1.6.6-1.7.5-1.7V80l-.4-1.2-.3-1.3-.6-1-.6-1.2-1-1-1-1-1.3-.7-1.3-.6-1.5-.5-1.5-.4h-9l-.4.2-.4.1v48.2l.4 1.6.4 1.6.8 1 .8 1.2.6.5.7.4.5.5.6.5-.2.4-.2.4z"/></svg>