<svg xmlns="http://www.w3.org/2000/svg" xml:space="preserve" viewBox="0 0 241.3 234.11"><path d="M150.04 233.82c-1.38-.71-1.4-2.2-.03-3 .77-.46.77-.47.2-.75-.87-.43-.9-1.35-.05-1.9l.7-.46-.66-.34c-1.48-.78-1.01-3.22.73-3.8.5-.16 1.85-.25 2.98-.2 1.9.09 2.07.14 2.15.69.07.5 0 .57-.55.43-.58-.14-.62-.1-.52.78.1.77-.03 1.08-.69 1.73-.49.5-1.07.8-1.5.8-.9 0-1.79.48-1.56.85.1.18.7.22 1.6.11 3.05-.36 4.2 1.5 2.24 3.64-1.36 1.49-3.65 2.13-5.04 1.42zm3.78-1.27c1.27-1 .7-2.36-.97-2.36-.96 0-2.04.96-2.04 1.82 0 .4.08.81.18.91.39.4 2.16.16 2.83-.37zm-.46-6.5c.2-.79-.25-1.9-.87-2.13-.55-.22-1.41.8-1.41 1.67 0 .34.24.87.53 1.16.66.66 1.49.34 1.75-.7zm-73.48 3.36c-.64-.64-.77-.99-.77-2.05 0-2.29 1.46-3.79 3.7-3.79h1.06v-1.34a5.3 5.3 0 0 0-.27-1.85c-.25-.47-.18-.51.8-.51h1.06v4.74c0 2.6.07 4.93.16 5.16.13.33-.03.42-.77.42-.51 0-.99-.15-1.05-.33-.1-.27-.2-.27-.48 0-.19.18-.87.33-1.5.33-.93 0-1.32-.16-1.94-.78zm3.65-.81c.4-.8.45-3.02.07-3.72-.28-.51-1.19-.68-1.74-.31-1.01.68-1.2 3.04-.34 4.14.68.87 1.54.82 2.01-.11zm4.37 1.17c-.87-.6-1.38-1.78-1.38-3.17 0-1.04.13-1.36.88-2.1 1.94-1.95 5.2-1.11 5.2 1.34 0 .3-.45.38-2.11.38h-2.12v.87c0 1.32.64 2.04 1.8 2.04.55 0 1.26-.19 1.58-.41.55-.39.59-.38.59.11 0 .3-.27.72-.59.95-.77.54-3.08.54-3.85 0zm3-4.62c.27-.45-.45-1.08-1.15-1a1.7 1.7 0 0 0-1.05.68c-.39.59-.38.6.81.6.67 0 1.29-.13 1.38-.28zm6.72 4.65c.22-.26.3-1.45.23-3.96l-.09-3.6h1.46c.8 0 1.7-.06 2.02-.15.82-.22 2.48 1.3 2.48 2.28 0 1.62-2.53 3.25-3.63 2.33-.36-.3-.4-.13-.3 1.58l.1 1.9H98.6c-1.1 0-1.25-.05-.98-.38zm3.47-3.86c.37-.2.51-.55.51-1.27 0-1.14-.37-1.63-1.24-1.63-.57 0-.61.11-.61 1.6 0 1.68.22 1.9 1.34 1.3zm3.79 3.38c-.75-.69-.98-1.12-1.07-2.05-.24-2.3 1.36-3.96 3.8-3.96 1.35 0 2.79 1.11 3.25 2.53.41 1.23-.02 2.5-1.22 3.54-.78.69-1.13.8-2.36.8-1.27 0-1.57-.1-2.4-.86zm3.33.08c1.15-.62 1.28-3.3.22-4.64-1.13-1.44-2.86-.29-2.86 1.9 0 2.26 1.2 3.5 2.64 2.74zm3.58-2.65v-3.44h.99c.74 0 1 .1 1 .43 0 .34.07.36.37.11.31-.26.95-.42 2.07-.52.1-.01.2-.3.2-.65 0-.43.19-.68.6-.8.93-.24.98-.2.98.63 0 .6.13.8.49.8.27 0 .56.07.64.16.3.3-.12.9-.64.9-.47 0-.5.17-.43 2.31.07 2.23.1 2.32.68 2.3.47-.02.6.1.53.52-.08.6-1.08.86-2.22.57-.62-.15-.63-.23-.63-2.93 0-2.29-.07-2.77-.4-2.77-.23 0-.4.24-.4.6-.01.52-.04.54-.28.12-.36-.6-.95-.58-1.3.05a9.99 9.99 0 0 0-.27 2.78v2.27h-1.98v-3.44zm8.95 2.56c-.8-.73-.97-1.1-1.06-2.18-.2-2.32 1.33-3.82 3.9-3.82.93 0 1.27.16 2.13 1.03.9.9 1.03 1.18 1.03 2.26 0 2.4-1.23 3.59-3.7 3.59-1.15 0-1.48-.13-2.3-.88zm3.61-.18c.4-.4.53-.88.53-1.92 0-2.18-.84-3.35-2.16-3.02-.8.2-1.28 1.17-1.28 2.58 0 2.36 1.61 3.66 2.91 2.36zm6.88.85c0-.12.1-.33.23-.47.43-.48 2.24-5.74 2.24-6.5 0-.71.07-.76 1.08-.76h1.09l1.29 3.37a28.38 28.38 0 0 0 1.65 3.8c.56.65.44.77-.78.77h-1.14l-.54-1.52-.54-1.53-1.2-.07-1.2-.08-.45 1.33c-.24.73-.37 1.45-.28 1.6.1.16-.15.27-.64.27-.44 0-.8-.1-.8-.21zm3.97-4c0-.12-.17-.63-.38-1.12-.26-.61-.42-.77-.52-.5l-.4 1.13c-.26.7-.23.73.51.73.44 0 .8-.1.8-.24zm4.37-.95v-5.16h1.99v10.32h-2zm4.3 4.64c-1.42-1.12-1.67-3.89-.47-5.17 1.73-1.84 4.77-1.34 5.2.86l.16.86h-4.3v.8c0 1.3.7 2.1 1.83 2.1.53 0 1.24-.18 1.58-.42.58-.41.6-.4.52.2-.19 1.27-3.22 1.8-4.52.77zm2.93-4.84c-.07-.46-.26-.6-.85-.6-.5 0-.9.21-1.16.6-.39.59-.38.6.85.6 1.14 0 1.23-.06 1.16-.6zm9.7 1.92v-3.44h.86c.59 0 .86.12.86.4 0 .49.25.49.91-.01.88-.67 1.2-.48 1.2.69 0 .98-.03 1.04-.4.66-1.17-1.17-1.81-.03-1.66 2.93l.12 2.2h-1.89zm5.14 2.7c-.97-.87-1.3-2.58-.78-4.14.65-1.96 3.68-2.59 5.2-1.07.34.35.63.93.63 1.3 0 .67-.03.68-2.12.68h-2.12v.87c0 1.3.64 2.04 1.76 2.04.5 0 1.17-.13 1.46-.29.62-.33.83-.21.61.35-.22.59-1.31 1-2.64 1-.91 0-1.36-.17-2-.74zm3.15-4.62c-.11-.76-1.14-.94-1.83-.31-.77.7-.62.9.7.9 1.1 0 1.2-.05 1.13-.59zM1.53 216.45l-.87-.77-.13-3.33-.13-3.33h2.38l-.08 3.07c-.07 2.6-.02 3.15.37 3.57.57.63 1.72.65 2.47.04.55-.44.57-.65.5-3.57l-.09-3.11h1.33l-.08 2.84c-.12 4.33-.78 5.36-3.4 5.36-1.18 0-1.55-.12-2.27-.77zm6.8-2.67v-3.44h1c.54 0 .99.1.99.24 0 .13.42.09.93-.09 1.22-.42 2.45-.22 2.9.48.23.36.4 1.6.45 3.4l.08 2.85h-1.96l-.08-2.84-.07-2.85-.99-.08c-.86-.07-1 0-1.15.6a16.8 16.8 0 0 0-.07 2.92l.1 2.25H8.32zm7.41 0v-3.44h.87c.48 0 .92.15.98.33.06.19.15 1.73.2 3.44l.07 3.11h-2.12v-3.44zm4.94 3a51.2 51.2 0 0 1-1.2-3 39.81 39.81 0 0 0-1.22-2.97c-.24-.41-.14-.47.87-.47h1.13l.74 2.25c.4 1.24.81 2.25.91 2.25.35 0 1.43-3.2 1.3-3.85-.1-.56-.02-.65.64-.65.74 0 .95.25.57.64-.11.1-.68 1.52-1.26 3.15-.88 2.43-1.17 2.98-1.65 3.04a.8.8 0 0 1-.83-.4zm5.6-.08c-3.31-2.01-1.22-7.16 2.56-6.32 1.07.23 1.85 1.07 1.85 1.98 0 .61-.06.63-2.11.63-2.1 0-2.12 0-2.12.68 0 1.2.95 2.47 1.86 2.49a5 5 0 0 0 1.41-.5c.81-.42.98-.44.85-.12-.08.22-.15.49-.15.59 0 .38-1.57 1.1-2.42 1.1a3.9 3.9 0 0 1-1.74-.53zm2.82-4.75c0-.37-.78-1.08-1.19-1.08-.4 0-1.19.71-1.19 1.08 0 .14.54.25 1.2.25.65 0 1.18-.11 1.18-.25zm2.52 1.85v-3.46h.97c.53 0 1.02.15 1.09.33.1.27.2.27.47 0 .2-.18.57-.33.83-.33.37 0 .47.22.47.97 0 .95 0 .96-.52.5-.44-.4-.6-.42-.94-.14-.33.28-.4.86-.36 2.89l.05 2.53-1.03.08-1.03.08v-3.45zm4.56 3.14c-.28-.17-.46-.6-.46-1.1V215l.74.7c.88.85 1.78.93 2.17.2.3-.59.04-.92-1.58-1.95-1.88-1.2-1.6-3.05.54-3.62 1.59-.43 2.47-.06 2.58 1.08l.09.9-.69-.74c-.75-.81-1.38-.84-1.84-.09-.31.52-.22.62 1.7 1.85.77.5.93.77 1 1.68.07.91-.03 1.17-.63 1.64-.78.61-2.78.77-3.62.28zm5.23-3.16v-3.44h1.72v2.85c0 1.56.08 3.11.16 3.44.15.54.07.6-.86.6h-1.02v-3.45zm3.83 2.69c-1.01-1.02-1.24-2.38-.66-3.92.37-.97.68-1.3 1.56-1.7.6-.27 1.43-.5 1.84-.5h.75l-.1-1.86-.08-1.85h1.99v4.87c0 2.68.07 5.06.16 5.3.12.33-.03.41-.78.41-.52 0-1.01-.11-1.1-.25-.1-.16-.4-.16-.82 0-1.15.43-1.97.29-2.76-.5zm3.32-.9c.08-.34.11-1.44.07-2.45-.08-1.8-.1-1.85-.8-1.93-.58-.07-.83.09-1.26.79-.64 1.05-.7 2.78-.12 3.6.57.82 1.9.8 2.1-.02zm3.47 1.17c-.57-.63-.56-1.71.03-2.22.25-.23 1.08-.72 1.85-1.1 1.43-.73 1.8-1.5 1.07-2.23-.5-.5-.91-.38-1.92.5l-.94.83v-.82c0-.92.4-1.2 2.03-1.48a2.82 2.82 0 0 1 1.92.24l.82.43v2.57c0 1.41.07 2.84.16 3.17.14.52.06.6-.67.6-.5 0-.9-.17-.98-.4-.14-.35-.22-.35-.72 0-.77.54-2.12.5-2.65-.1zm2.95-.9c.4-.39.42-2.06.03-2.06-.46 0-1.83 1.07-1.83 1.42 0 .46.56.96 1.06.96.23 0 .57-.14.74-.31zm4.2.85a3.68 3.68 0 0 1-1.12-3.3 3.9 3.9 0 0 1 3.87-3.05h.84l-.1-1.85-.11-1.85h1.73v4.7c0 2.58.08 4.96.17 5.29.14.53.07.6-.8.6-.69 0-.95-.12-.95-.42 0-.37-.06-.37-.6 0a2.6 2.6 0 0 1-2.92-.12zm3.25-1.04c.3-.55.38-3.41.12-4.1-.33-.84-1.8-.43-2.37.66-.49.95-.49 1.87 0 3.04.32.76.52.91 1.18.91.52 0 .9-.17 1.07-.5zm4.88 1.31a3.51 3.51 0 0 1-1.15-.97c-.51-.65-.58-1-.5-2.57.1-1.5.21-1.9.72-2.3 1.9-1.56 4.68-.94 5.2 1.14l.18.73h-4.29v1.05c0 .74.17 1.2.58 1.59.72.67 1.16.67 2.43.02.81-.41.97-.43.85-.1-.09.21-.16.48-.16.58 0 .1-.34.39-.77.64a3.9 3.9 0 0 1-3.1.2zm2.54-5.01c0-.37-.78-1.08-1.2-1.08-.4 0-1.18.71-1.18 1.08 0 .14.53.25 1.19.25.65 0 1.19-.11 1.19-.25zm6.75 1.16v-4.1l2.51.07 2.51.07.1.92c.08.9.06.9-.43.47-.3-.28-.93-.46-1.6-.46h-1.1v1.19c0 1.3.3 1.47 1.7.93.64-.24.67-.21.67.66 0 .89-.32 1.2-.66.66-.09-.15-.53-.27-.98-.27h-.8l.12 1.99.13 1.98H76.6zm7.02 3.77c-1.7-.85-2.38-3.44-1.35-5.13.67-1.1 1.45-1.5 2.88-1.47 1.35.02 2.7 1.07 2.7 2.1 0 .59-.09.61-2.12.61H83.6v.94c0 .64.2 1.14.65 1.59.75.74 1.3.8 2.36.25.93-.5.96-.5.96 0 0 .56-1.56 1.45-2.52 1.45-.43 0-1.08-.15-1.44-.34zm2.32-5.12c-.04-.24-.3-.56-.55-.73-.55-.34-1.34.05-1.47.73-.07.35.14.44 1.01.44.88 0 1.08-.1 1.01-.44zm3.66 4.92c-1.29-1.01-1.46-3.62-.34-5.08.47-.6 2.06-1.26 3.07-1.26.8 0 .8 0 .8-1.53 0-.84-.14-1.68-.31-1.85-.25-.25-.07-.32.79-.32h1.11v4.87c0 2.68.07 5.06.16 5.3.13.33-.03.41-.77.41-.51 0-.98-.13-1.03-.3-.08-.23-.25-.23-.67 0-.86.46-2.04.36-2.8-.24zm3.29-1.08c.37-.7.2-3.81-.23-4.25-.23-.22-.53-.24-1.05-.06-1.25.44-1.8 3.35-.84 4.5.49.58 1.77.47 2.12-.2zm4.59 1.12c-2.12-1.29-2.14-4.61-.04-5.95 1.7-1.1 4.42-.15 4.42 1.55 0 .66-.02.67-2.11.67-2.07 0-2.12.01-2.12.65 0 .95.5 1.89 1.2 2.26.6.32.92.27 2.55-.4.76-.3.28.78-.57 1.28a3.3 3.3 0 0 1-3.33-.06zm2.8-4.91c0-.38-.77-.94-1.29-.94-.33 0-1.1.75-1.1 1.08 0 .14.54.25 1.2.25.87 0 1.19-.1 1.19-.4zm2.51 1.97v-3.44h.97c.53 0 1.01.12 1.06.27.06.17.39.15.94-.05 1.03-.4 1.2-.26 1.08.87-.08.81-.1.84-.52.42-1.1-1.11-1.62-.07-1.5 3.02l.09 2.35h-2.12v-3.44zm4.41 2.78c-.31-.4-.46-.89-.38-1.21.14-.55 1.35-1.45 2.85-2.14 1.49-.67 1.03-2.67-.48-2.1-.37.15-.8.51-.97.8-.42.79-.8.67-.8-.23 0-1 .7-1.4 2.55-1.44 2.12-.05 2.32.27 2.48 3.95l.13 3.03h-.87c-.52 0-.93-.15-1.02-.39-.13-.35-.21-.35-.7 0-.9.62-2.18.5-2.79-.27zm3.08-.71c.44-.45.41-2.07-.04-2.07-.2 0-.68.3-1.07.66-.6.55-.66.75-.43 1.2.32.59 1.06.69 1.54.2zm3.36-3.92v-5.29h1.96l.08 5.3.08 5.28h-2.12v-5.29zm8.05 4.56c-1.13-1-1.33-2.68-.53-4.26.6-1.17 1.26-1.57 3.02-1.82l1-.14-.08-1.82-.08-1.81H127v4.87c0 2.68.07 5.06.16 5.3.13.33-.03.41-.78.41-.51 0-1-.11-1.1-.25-.1-.16-.4-.16-.82 0-1.12.42-1.91.29-2.77-.48zm3.33-.93c.09-.33.12-1.43.08-2.44-.08-1.8-.1-1.85-.8-1.93-.58-.07-.83.09-1.26.79-.64 1.05-.7 2.78-.13 3.6.58.82 1.9.8 2.11-.02zm4.19 1.15c-1.73-1.05-1.87-3.92-.26-5.52.8-.81 1.08-.93 2.2-.91 1.07.01 1.38.14 2 .84.4.45.73 1.06.73 1.34 0 .49-.18.53-2.15.53h-2.15l.14 1.08c.26 1.93 1.42 2.56 3.11 1.7.68-.36.78-.36.78-.03 0 .21-.3.63-.7.93-.89.7-2.58.72-3.7.04zm2.82-5.03a2.11 2.11 0 0 0-.54-.68c-.41-.25-1.29.12-1.59.68-.25.48-.18.52 1.07.52s1.32-.04 1.06-.52zm7.88 4.53c-.97-.91-1.1-1.17-1.21-2.52-.15-1.81.22-2.8 1.45-3.89.86-.75 1.03-.8 2.81-.72l1.9.07.09 1.06.08 1.05-.67-.72c-1.81-1.96-4.4.52-3.62 3.45.54 1.98 2.2 2.78 3.66 1.76.51-.36.6-.36.6-.02 0 .76-1.32 1.5-2.7 1.5-1.14 0-1.43-.13-2.39-1.02zm6-2.43v-3.44h1.73v2.62c0 1.43.07 2.98.16 3.44.17.8.15.82-.86.82h-1.02v-3.44zm4.48 2.94a3.6 3.6 0 0 1-.6-5.56c1.78-1.66 5-.87 5 1.23 0 .57-.1.6-2.13.6-2.07 0-2.11.01-2.11.65 0 .95.5 1.9 1.21 2.27.52.28.81.27 1.7-.08 1-.4 1.06-.39 1.06.06 0 .57-1.47 1.33-2.56 1.33a3.6 3.6 0 0 1-1.57-.5zm2.8-4.91c0-.38-.76-.94-1.28-.94-.33 0-1.1.75-1.1 1.08 0 .14.54.25 1.2.25.86 0 1.18-.1 1.18-.4zm2.52 1.97v-3.44h.99c.55 0 1 .13 1 .28 0 .18.19.17.56-.03.87-.47 2.62-.35 3.16.2.38.39.48 1.05.55 3.46l.09 2.97h-1.94l.14-2.5c.17-2.8-.02-3.32-1.25-3.32-1.18 0-1.38.5-1.28 3.3l.1 2.52h-2.12zm8.62 2.76a4.05 4.05 0 0 1-1.24-3.64c.34-1.82 2.99-3.24 4.77-2.56.55.2.68.43.68 1.17v.91l-.77-.77c-1.35-1.35-2.56-.88-2.83 1.1-.35 2.61 1.29 4.05 3.28 2.88.76-.45.89-.47.75-.12-.1.24-.17.55-.17.69 0 .39-1.7 1.02-2.75 1.02-.6 0-1.2-.23-1.72-.68zm5.4-2.77v-3.45l.93.08.92.08.13 3.37.14 3.37h-2.12v-3.45zm3.37 3.01c-.95-.67-.79-1.74.4-2.53a15.7 15.7 0 0 1 1.79-1.04c.66-.3.79-.51.79-1.28 0-.86-.06-.92-.77-.87-.42.03-1.11.39-1.54.8l-.77.73.08-.92c.08-.87.17-.95 1.46-1.3 2.82-.74 3.45-.04 3.57 4l.09 2.85h-.84c-.46 0-.9-.15-.96-.33-.1-.26-.23-.26-.68 0-.75.45-1.89.4-2.62-.11zm2.8-.93c.17-.18.31-.78.31-1.34v-1.03l-.81.58c-.91.65-1.17 1.12-.94 1.7.18.48 1 .53 1.44.09zm3.69 1.09c-.29-.17-.47-.6-.47-1.1v-.81l.67.72c.9.96 2.07.87 2.2-.17.06-.57-.09-.8-.8-1.15-1.37-.7-2.07-1.46-2.07-2.26 0-1.34 2.26-2.43 3.8-1.84.55.2.7.44.7 1.1v.84l-.7-.71c-.78-.77-1.33-.8-1.77-.1-.22.34-.17.57.2.98.28.3.64.55.82.55.18 0 .63.25 1.02.55.93.73.96 2.12.05 3.03-.52.52-.92.65-1.92.64-.7 0-1.48-.12-1.73-.27zm10.09-.46a3.35 3.35 0 0 1-.46-4.28 4.3 4.3 0 0 1 3.37-1.86h.9l-.14-1.85-.13-1.85H195v4.87c0 2.68.07 5.06.16 5.3.13.33-.03.41-.8.41-.65 0-.95-.12-.95-.38 0-.33-.1-.33-.73 0-1.11.58-2.08.47-3-.36zm3.5-1.1c.28-1.04.26-3.17-.04-3.73-.36-.66-1.37-.66-1.97 0-.68.76-.83 2.65-.29 3.7.38.72.57.83 1.28.76.63-.06.88-.24 1.02-.74zm3.31 1.36c-.57-.63-.55-1.71.03-2.22.25-.23 1.09-.72 1.85-1.1 1.44-.73 1.8-1.5 1.07-2.23-.5-.5-.9-.38-1.92.5l-.93.83v-.82c0-.97.54-1.33 2.32-1.51.95-.1 1.38-.02 1.82.34.5.43.58.8.67 3.58l.11 3.11h-.87c-.62 0-.88-.12-.88-.4 0-.38-.06-.38-.59 0-.8.55-2.14.51-2.68-.08zm3-1.09c.15-.28.27-.88.27-1.34v-.82l-.8.47c-.81.48-1.25 1.4-.93 1.92.28.46 1.16.32 1.46-.23zm7.61 1.29c-.3-.18-.46-.6-.45-1.25 0-.87.04-.92.3-.45.46.78 1.06 1.17 1.84 1.18 1.63.02 1.64-1.7.03-2.73-1.49-.95-2.02-1.67-2.02-2.72 0-1.44.85-1.97 3.01-1.88l1.72.06.1.93.08.93-.77-.73c-.89-.85-1.4-.92-2.02-.24-.55.61-.33 1.26.6 1.75 2.38 1.24 3.08 3.22 1.64 4.66-.67.66-.97.77-2.19.76-.77 0-1.61-.12-1.87-.27zm6.2.1c-.19-.07-.45-.42-.59-.77-.42-1.12.1-1.85 1.99-2.74 1.76-.85 1.98-1.17 1.44-2.17-.37-.7-1.47-.45-2.28.52l-.59.71v-.96c-.02-1.08.13-1.18 2.08-1.44 1.17-.16 1.37-.1 1.99.5.63.64.68.85.68 3.2 0 1.37.07 2.68.16 2.91.12.34-.04.42-.8.42-.7 0-.95-.11-.95-.42 0-.4-.05-.4-.65 0-.64.41-1.77.52-2.48.24zm2.82-1.55c.74-1.62.12-2.2-1.17-1.1-.53.47-.66.76-.52 1.2.26.82 1.3.76 1.7-.1zm4.63 1.55c-.95-.19-1.09-.6-1.19-3.72l-.1-2.98h1.73v2.62c0 2.88.2 3.3 1.5 3.16l.75-.09.08-2.84.07-2.85h1.84v3.02c0 1.67.07 3.21.16 3.44.12.34-.04.42-.8.42-.61 0-1.02-.14-1.12-.39-.13-.35-.22-.35-.71 0-.55.39-1.06.43-2.21.2zm6.76-.56a3.35 3.35 0 0 1-.45-4.28 4.3 4.3 0 0 1 3.36-1.86h.9l-.14-1.85-.13-1.85h1.78v4.7c0 2.58.08 4.96.17 5.29.14.53.07.6-.8.6-.69 0-.95-.12-.95-.42 0-.37-.06-.37-.6 0-.92.65-2.19.52-3.14-.33zm3.5-1.1c.29-1.04.26-3.17-.04-3.73-.35-.66-1.36-.66-1.96 0-.68.76-.83 2.65-.3 3.7.38.72.57.83 1.28.76.63-.06.88-.24 1.02-.74zm4.87 1.59c-2.33-.96-2.66-4.86-.54-6.25.36-.24 1.2-.42 1.9-.42 1.12 0 1.38.11 2.14.94 1.4 1.53 1.22 1.75-1.39 1.75h-2.25v.94c0 .64.2 1.14.65 1.59.79.78 1.3.8 2.63.13.81-.41.97-.43.85-.1a2.3 2.3 0 0 0-.16.59c0 .33-1.83 1.08-2.59 1.07-.4-.01-.95-.12-1.24-.24zm2.51-5.02c0-.4-.8-1.08-1.29-1.08-.54 0-1.1.5-1.1.98 0 .23.4.35 1.2.35.65 0 1.19-.11 1.19-.25zm-88.27-2.52c-.1-.24-.12-.46-.07-.49.06-.03.48-.39.93-.8l.83-.75.96.85c.77.68.9.92.65 1.22-.26.31-.4.28-.91-.2l-.6-.56-.82.57c-.71.51-.83.53-.97.16zm71.46.1c-.1-.16.26-.75.82-1.32.95-.98 1.03-1 1.5-.6.56.51.43.7-1.17 1.64-.67.4-1.02.49-1.15.28zm-205.52-.4c-.33-.35-.2-1.36.23-1.72.6-.5 1.3.03 1.3.98 0 .62-.12.78-.67.84-.37.04-.75 0-.86-.1zm25.67 0c-.34-.35-.2-1.36.23-1.72.6-.5 1.3.03 1.3.98 0 .62-.13.78-.67.84-.37.04-.76 0-.86-.1zm104.6-.23c-.42-.5-.27-1.2.31-1.57.36-.23.58-.17 1.02.27.46.47.5.66.26 1.12-.35.65-1.13.74-1.6.18zm23.7.2c-.32-.32-.17-1.33.25-1.69.83-.68 1.86.65 1.16 1.5-.33.4-1.1.5-1.4.2zM.27 199.24v-1.06H241.3v2.12H.26Zm17.46-8.85c-5.5-.9-9.43-3.45-12.52-8.1-1.76-2.65-1.81-3.25-2-22.23l-.16-16.83-1-1.5-.99-1.5h14.46l-.94 1.91-.94 1.9-.09 15.18c-.05 8.83.03 16.07.18 17.32.24 1.97.37 2.3 1.72 4.28a13.21 13.21 0 0 0 2.4 2.77c3.28 2.2 9.74 2.27 14.04.13 2.61-1.3 4.18-3.31 5.2-6.7.58-1.95.6-2.32.7-17.07.04-8.3.02-15.44-.06-15.88a8.3 8.3 0 0 0-1.08-2.2c-.5-.78-.92-1.46-.92-1.52 0-.06 1.9-.11 4.23-.11 2.33 0 4.24.1 4.24.2 0 .12-.16.45-.36.73-.19.29-.58 1.06-.86 1.71-.47 1.12-.51 2.2-.65 16.67-.16 17.64-.14 17.5-2.37 22.12-1.03 2.14-1.6 2.95-2.85 4.12a20.6 20.6 0 0 1-7.92 4.22c-2.7.71-8.3.9-11.46.38zm80.7-.28A19.46 19.46 0 0 1 88 184.56a24.33 24.33 0 0 1-6.82-12.85c-.76-3.65-.56-10.65.4-14.31 2.54-9.65 9.66-16.64 18.56-18.22 2.9-.5 7.4-.34 11.15.42 2.7.55 3.9.67 5.73.56l2.32-.13-.01 5.72c-.02 5.12-.06 5.67-.4 5.2-3.43-4.63-5.11-6.17-7.97-7.32-1.34-.53-2-.61-4.98-.62-3.31 0-3.5.03-5.16.82-4.1 1.96-6.76 5.41-8.3 10.74-1.16 3.96-1.55 10.14-.96 14.74 1.01 7.78 4.71 13.58 10.02 15.68 2.2.88 7.09.87 9.64 0 2.03-.7 4.72-2.71 7.14-5.33.81-.88 1.52-1.6 1.58-1.6.06 0-.1 1.34-.37 2.98-.46 2.97-.47 2.98-1.6 3.98a22.53 22.53 0 0 1-10.06 5.07c-2.46.5-7.07.5-9.47 0zm35.46.23c-3.5-.67-8.54-2.74-8.9-3.64-.06-.17-.08-2.68-.04-5.59l.08-5.28 1.38 2.7c2.47 4.81 5.55 7.38 9.6 8 4.4.67 8.32-1.06 9.97-4.42.65-1.33.74-1.83.74-3.9 0-1.81-.12-2.63-.5-3.4-.84-1.7-2.98-3.78-6.03-5.9a75.76 75.76 0 0 1-10.57-8.75c-2.8-2.94-3.25-4.13-3.26-8.56-.01-3.31-.01-3.32.99-5.34a12.3 12.3 0 0 1 5.88-5.64c3.84-1.9 7.82-2.17 13.45-.91 3.67.82 5.73.98 6.9.54l.68-.26v11.49l-.94-1.9c-1.2-2.48-3.32-4.78-5.32-5.77-1.28-.63-1.97-.78-4-.87-3.25-.16-4.56.22-6.17 1.78-1.04 1.02-1.29 1.45-1.56 2.77a7.7 7.7 0 0 0 1.99 7c1.22 1.36 4.64 4.08 8.33 6.65 3.5 2.43 3.92 2.77 6.4 5.22 2.45 2.42 3.27 4.04 3.62 7.19.85 7.58-3.2 13.54-10.95 16.08-1.9.62-2.58.7-6.61.77-2.47.04-4.8.01-5.16-.06zm-86.38-1.85c.4-.52.95-1.54 1.22-2.25.46-1.22.5-2.45.5-21.8 0-22.32.05-21.39-1.5-23.23l-.7-.84 15.56-.07c8.55-.03 15.6-.02 15.65.03.06.05.07 2.2.03 4.77l-.08 4.67-.92-1.25a9.57 9.57 0 0 0-4.97-3.54c-1.5-.48-2.64-.59-7.27-.7l-5.49-.14v17h4.48c5.48 0 6.74-.36 8.95-2.55l1.39-1.38v12.19l-1.54-1.42c-2.29-2.1-3.27-2.4-8.71-2.54l-4.57-.13v10.02c0 5.8.11 10.42.27 10.96.14.52.68 1.45 1.2 2.05l.95 1.11h-15.2l.74-.96zm114.04-.76a9.94 9.94 0 0 0 1.31-2.58c.09-.47.12-10.03.08-21.23l-.08-20.37-.86-1.52c-.47-.84-.86-1.56-.86-1.62 0-.06 3.9-.18 8.67-.27 4.76-.09 10.15-.23 11.97-.32 5.44-.26 8.57.81 11.63 4 2.68 2.8 3.91 6.45 3.6 10.68-.3 4.14-1.8 7.25-4.85 10.1-3.12 2.93-6.77 4.12-11.7 3.85-3.64-.2-4.42-.46-5.8-1.85l-1.14-1.17 3 .02c2.45.02 3.26-.08 4.37-.52 3.68-1.47 5.45-4.4 5.83-9.62.38-5.33-1.3-9.15-4.65-10.65-1.4-.63-4.6-.88-7.3-.6l-1.75.2.08 20.67c.09 22.73 0 21.43 1.69 23.65l.67.87h-15.07l1.16-1.72zm28.82.7a13.9 13.9 0 0 0 3.8-5.1c1.08-2.74 12.22-33.78 12.22-34.06a20 20 0 0 1 .69-2.34c.6-1.82.65-2.2.4-3.31a9 9 0 0 0-.96-2.32l-.68-1.07 6.28.07 6.27.07 8.49 21.43c4.66 11.79 8.83 22.03 9.25 22.76.42.72 1.58 2.12 2.58 3.1l1.8 1.8h-15.14l.19-1.6c.25-2.2-.03-3.23-3.25-11.7l-2.8-7.35-7.56.07-7.56.07-2.43 6.74a158.73 158.73 0 0 0-2.86 8.5c-.42 1.7-.42 1.8.08 2.78.29.57.77 1.25 1.08 1.53.3.28.56.6.56.73 0 .12-2.63.22-5.85.22h-5.85zm27.32-23.92a553.99 553.99 0 0 1-6.02-15.62c-.02-.65-.55.68-3.13 7.77-1.45 4-2.72 7.47-2.82 7.72-.17.44.21.47 5.96.47 4.8 0 6.11-.08 6-.34zM0 109.27V97.63h85.99v23.28H0Zm87.58-1.85v-13.5h6.88v23.56h52.39V93.93h6.87v26.98H87.58Zm67.73 1.85V97.63h85.99v23.28h-85.99zm-59.27-2.38v-9.26h49.21v18.52h-15.86v-15.6h-17.46v15.6H96.04zm17.73 2.12v-7.15h13.76v14.29h-13.76ZM0 90.88V86h3.97v9.79H0zm5.56 0V86h4.23v9.79H5.56zm5.82 0V86h4.23v9.79h-4.23zm5.82 0V86h3.97v9.79H17.2zm5.82 0V86h4.23v9.79h-4.23Zm5.82 0V86h3.97v9.79h-3.97zm5.82 0V86h4.23v9.79h-4.23Zm5.56 0V86h4.23v9.79h-4.23Zm5.82 0V86h4.23v9.79h-4.23zm5.82 0V86h4.23v9.79h-4.23Zm5.82 0V86h3.97v9.79h-3.97zm121.97 0V86h3.97v9.79h-3.97zm5.56 0V86h4.23v9.79h-4.23zm5.82 0V86h4.23v9.79h-4.23zm5.82 0V86h4.23v9.79h-4.23zm5.56 0V86h4.23v9.79h-4.23zm6.08 0V86h3.97v9.79h-3.97zm5.56 0V86h4.23v9.79h-4.23zm6.08 0V86h3.97v9.79h-3.97zm5.56 0V86h4.23v9.79h-4.23zm5.82 0V86h4.23v9.79h-4.23zm5.82 0V86h3.97v9.79h-3.97zM63.5 87.84v-4.5h114.3v9H63.5zM0 83.08v-1.32h61.65v2.64H0Zm179.65 0v-1.32h61.65v2.64h-61.65ZM0 75.14v-5.03h3.97v10.06H0zm5.56 0v-5.03h4.23v10.06H5.56zm5.82 0v-5.03h4.23v10.06h-4.23zm5.82 0v-5.03h3.97v10.06H17.2zm5.82 0v-5.03h4.23v10.06h-4.23Zm5.82 0v-5.03h3.97v10.06h-3.97zm5.82 0v-5.03h4.23v10.06h-4.23Zm5.56 0v-5.03h4.23v10.06h-4.23Zm5.82 0v-5.03h4.23v10.06h-4.23zm5.82 0v-5.03h4.23v10.06h-4.23Zm5.82 0v-5.03h3.97v10.06h-3.97zm5.82 0v-5.03h4.23v10.06H63.5zm5.56 0v-5.03h4.23v10.06h-4.23zm6.08 0v-5.03h3.97v10.06h-3.97zm5.56 0v-5.03h4.23v10.06H80.7Zm5.82 0v-5.03h4.23v10.06h-4.23zm5.82 0v-5.03h3.97v10.06h-3.97Zm5.56 0v-5.03h4.49v10.06H97.9Zm6.08 0v-5.03h3.97v10.06h-3.97zm5.56 0v-5.03h4.23v10.06h-4.23zm5.82 0v-5.03h4.5v10.06h-4.5Zm6.08 0v-5.03h4.5v10.06h-4.5zm6.09 0v-5.03h4.23v10.06h-4.23zm5.82 0v-5.03h3.97v10.06h-3.97zm5.82 0v-5.03h4.23v10.06h-4.23zm5.82 0v-5.03h3.97v10.06h-3.97zm5.56 0v-5.03h4.23v10.06h-4.23zm5.82 0v-5.03h4.23v10.06h-4.23zm5.82 0v-5.03h3.97v10.06h-3.97zm5.82 0v-5.03h4.23v10.06h-4.23zm5.56 0v-5.03h4.23v10.06h-4.23zm6.08 0v-5.03h3.97v10.06h-3.97zm5.56 0v-5.03h4.23v10.06h-4.23zm5.82 0v-5.03h4.23v10.06h-4.23zm5.82 0v-5.03h4.23v10.06h-4.23zm5.56 0v-5.03h4.23v10.06h-4.23zm6.08 0v-5.03h3.97v10.06h-3.97zm5.56 0v-5.03h4.23v10.06h-4.23zm6.08 0v-5.03h3.97v10.06h-3.97zm5.56 0v-5.03h4.23v10.06h-4.23zm5.82 0v-5.03h4.23v10.06h-4.23zm5.82 0v-5.03h3.97v10.06h-3.97zM0 67.2v-1.32h241.3v2.65H0zm0-8.07v-4.89h3.97v9.79H0zm5.56 0v-4.89h4.23v9.79H5.56zm5.82 0v-4.89h4.23v9.79h-4.23zm5.82 0v-4.89h3.97v9.79H17.2zm5.82 0v-4.89h4.23v9.79h-4.23Zm5.82 0v-4.89h3.97v9.79h-3.97zm5.82 0v-4.89h4.23v9.79h-4.23Zm5.56 0v-4.89h4.23v9.79h-4.23Zm5.82 0v-4.89h4.23v9.79h-4.23zm5.82 0v-4.89h4.23v9.79h-4.23Zm5.82 0v-4.89h3.97v9.79h-3.97zm5.82 0v-4.89h4.23v9.79H63.5zm5.56 0v-4.89h4.23v9.79h-4.23zm6.08 0v-4.89h3.97v9.79h-3.97zm5.56 0v-4.89h4.23v9.79H80.7Zm5.82 0v-4.89h4.23v9.79h-4.23zm5.82 0v-4.89h3.97v9.79h-3.97Zm5.56 0v-4.89h4.49v9.79H97.9Zm6.08 0v-4.89h3.97v9.79h-3.97zm5.56 0v-4.89h4.23v9.79h-4.23zm5.82 0v-4.89h4.5v9.79h-4.5Zm6.08 0v-4.89h4.5v9.79h-4.5zm6.09 0v-4.89h4.23v9.79h-4.23zm5.82 0v-4.89h3.97v9.79h-3.97zm5.82 0v-4.89h4.23v9.79h-4.23zm5.82 0v-4.89h3.97v9.79h-3.97zm5.56 0v-4.89h4.23v9.79h-4.23zm5.82 0v-4.89h4.23v9.79h-4.23zm5.82 0v-4.89h3.97v9.79h-3.97zm5.82 0v-4.89h4.23v9.79h-4.23zm5.56 0v-4.89h4.23v9.79h-4.23zm6.08 0v-4.89h3.97v9.79h-3.97zm5.56 0v-4.89h4.23v9.79h-4.23zm5.82 0v-4.89h4.23v9.79h-4.23zm5.82 0v-4.89h4.23v9.79h-4.23zm5.56 0v-4.89h4.23v9.79h-4.23zm6.08 0v-4.89h3.97v9.79h-3.97zm5.56 0v-4.89h4.23v9.79h-4.23zm6.08 0v-4.89h3.97v9.79h-3.97zm5.56 0v-4.89h4.23v9.79h-4.23zm5.82 0v-4.89h4.23v9.79h-4.23zm5.82 0v-4.89h3.97v9.79h-3.97zM0 51.33V50h241.3v2.64H0zm0-7.94v-5.03h3.97v10.06H0zm5.56 0v-5.03h4.23v10.06H5.56zm5.82 0v-5.03h4.23v10.06h-4.23zm5.82 0v-5.03h3.97v10.06H17.2zm5.82 0v-5.03h4.23v10.06h-4.23Zm5.82 0v-5.03h3.97v10.06h-3.97zm5.82 0v-5.03h4.23v10.06h-4.23Zm5.56 0v-5.03h4.23v10.06h-4.23Zm5.82 0v-5.03h4.23v10.06h-4.23zm5.82 0v-5.03h4.23v10.06h-4.23Zm5.82 0v-5.03h3.97v10.06h-3.97zm5.82 0v-5.03h4.23v10.06H63.5zm5.56 0v-5.03h4.23v10.06h-4.23zm6.08 0v-5.03h3.97v10.06h-3.97zm5.56 0v-5.03h4.23v10.06H80.7Zm5.82 0v-5.03h4.23v10.06h-4.23zm5.82 0v-5.03h3.97v10.06h-3.97Zm5.56 0v-5.03h4.49v10.06H97.9Zm6.08 0v-5.03h3.97v10.06h-3.97zm5.56 0v-5.03h4.23v10.06h-4.23zm5.82 0v-5.03h4.5v10.06h-4.5Zm6.08 0v-5.03h4.5v10.06h-4.5zm6.09 0v-5.03h4.23v10.06h-4.23zm5.82 0v-5.03h3.97v10.06h-3.97zm5.82 0v-5.03h4.23v10.06h-4.23zm5.82 0v-5.03h3.97v10.06h-3.97zm5.56 0v-5.03h4.23v10.06h-4.23zm5.82 0v-5.03h4.23v10.06h-4.23zm5.82 0v-5.03h3.97v10.06h-3.97zm5.82 0v-5.03h4.23v10.06h-4.23zm5.56 0v-5.03h4.23v10.06h-4.23zm6.08 0v-5.03h3.97v10.06h-3.97zm5.56 0v-5.03h4.23v10.06h-4.23zm5.82 0v-5.03h4.23v10.06h-4.23zm5.82 0v-5.03h4.23v10.06h-4.23zm5.56 0v-5.03h4.23v10.06h-4.23zm6.08 0v-5.03h3.97v10.06h-3.97zm5.56 0v-5.03h4.23v10.06h-4.23zm6.08 0v-5.03h3.97v10.06h-3.97zm5.56 0v-5.03h4.23v10.06h-4.23zm5.82 0v-5.03h4.23v10.06h-4.23zm5.82 0v-5.03h3.97v10.06h-3.97zM0 35.45v-1.32h241.3v2.65H0zm0-7.8v-4.9h3.97v9.8H0zm5.56 0v-4.9h4.23v9.8H5.56zm5.82 0v-4.9h4.23v9.8h-4.23zm5.82 0v-4.9h3.97v9.8H17.2zm5.82 0v-4.9h4.23v9.8h-4.23Zm5.82 0v-4.9h3.97v9.8h-3.97zm5.82 0v-4.9h4.23v9.8h-4.23Zm5.56 0v-4.9h4.23v9.8h-4.23Zm5.82 0v-4.9h4.23v9.8h-4.23zm5.82 0v-4.9h4.23v9.8h-4.23Zm5.82 0v-4.9h3.97v9.8h-3.97zm5.82 0v-4.9h4.23v9.8H63.5zm5.56 0v-4.9h4.23v9.8h-4.23zm6.08 0v-4.9h3.97v9.8h-3.97zm5.56 0v-4.9h4.23v9.8H80.7Zm5.82 0v-4.9h4.23v9.8h-4.23zm5.82 0v-4.9h3.97v9.8h-3.97Zm5.56 0v-4.9h4.49v9.8H97.9Zm6.08 0v-4.9h3.97v9.8h-3.97zm5.56 0v-4.9h4.23v9.8h-4.23zm5.82 0v-4.9h4.5v9.8h-4.5Zm6.08 0v-4.9h4.5v9.8h-4.5zm6.09 0v-4.9h4.23v9.8h-4.23zm5.82 0v-4.9h3.97v9.8h-3.97zm5.82 0v-4.9h4.23v9.8h-4.23zm5.82 0v-4.9h3.97v9.8h-3.97zm5.56 0v-4.9h4.23v9.8h-4.23zm5.82 0v-4.9h4.23v9.8h-4.23zm5.82 0v-4.9h3.97v9.8h-3.97zm5.82 0v-4.9h4.23v9.8h-4.23zm5.56 0v-4.9h4.23v9.8h-4.23zm6.08 0v-4.9h3.97v9.8h-3.97zm5.56 0v-4.9h4.23v9.8h-4.23zm5.82 0v-4.9h4.23v9.8h-4.23zm5.82 0v-4.9h4.23v9.8h-4.23zm5.56 0v-4.9h4.23v9.8h-4.23zm6.08 0v-4.9h3.97v9.8h-3.97zm5.56 0v-4.9h4.23v9.8h-4.23zm6.08 0v-4.9h3.97v9.8h-3.97zm5.56 0v-4.9h4.23v9.8h-4.23zm5.82 0v-4.9h4.23v9.8h-4.23zm5.82 0v-4.9h3.97v9.8h-3.97zM0 18.39v-2.51h241.3v5.02H0zm63.5-6.62V9.26h114.3v5.03H63.5zm43.4-8.07V0h27.5v7.4h-27.52Z"/></svg>