<svg xmlns="http://www.w3.org/2000/svg" viewBox="0 0 1634.4 1262.9">
  <path d="M128.2 1260.5a54.8 54.8 0 0 1-29.7-24 57.5 57.5 0 0 1-3.4-39 53.4 53.4 0 0 1 15-26.7c10.6-10.2 21.2-13.9 39.5-13.9 8 0 11.4.6 16.3 2.5 30.4 11.8 45 46.5 31.1 74.4-6.4 13-20 23.4-36.2 27.5-9.6 2.4-24.1 2-32.6-.8zm30.9-24.2c8.7-4.5 14.3-14.6 14.4-26.2.1-12.1-4.5-20.4-13.8-24.6a28 28 0 0 0-21-2.2c-15.8 4.6-23.2 24.1-15 40 3.1 6.3 10 12 16.7 14 6 1.6 14.3 1.2 18.7-1zm256.6 25.1a53.4 53.4 0 0 1-39-36c-8.6-28.1 11.2-61.8 39.4-67a59.5 59.5 0 0 1 53 14.4 54.9 54.9 0 0 1 11.7 56 52.4 52.4 0 0 1-36 32.6 78.9 78.9 0 0 1-29.1 0zm24.5-25.8c17.7-6 22.3-31.1 8.2-45.1-5-5-13-8.7-19.3-8.7-10.5 0-23.1 10-26.3 20.9-2.2 7.6-1.5 14 2.3 20.5a34.7 34.7 0 0 0 15.7 12.7c5 1.8 13.5 1.7 19.4-.3zm126.5 25.6a53.8 53.8 0 0 1-22-12.4c-21.2-19.4-20.2-61.3 2-78.9a55.3 55.3 0 0 1 37-12.6c15.6 0 25.7 4.2 35.2 14.6 7 7.7 9.2 11.8 7.3 13.7-1.5 1.4-20 9-22 9-.7 0-2.7-2.1-4.5-4.7-7-10.1-18.6-13.3-28.1-7.7a29 29 0 0 0-14.6 21.4 37.7 37.7 0 0 0 3.2 23 33.7 33.7 0 0 0 13.2 12.8 38.1 38.1 0 0 0 19.8-.5 26 26 0 0 0 9.9-11.7c.3-2-.4-2.2-10.6-2.5l-11-.3v-20.2h51.3v6.3c0 7.9-3.4 21.1-7.2 28-4 7.4-13 16.1-19.9 19.4a63.8 63.8 0 0 1-39 3.3zm710.4 0a53.3 53.3 0 0 1-33.2-27.3c-3.1-6.9-3.6-9-4-19a53.7 53.7 0 0 1 26.2-51.6c6.9-3.5 21.3-7 28.6-7 16.6 0 35 10.3 45.2 25.7a52.9 52.9 0 0 1 1.7 55.2 60.4 60.4 0 0 1-64.5 24zm28.2-25.4c8-4.7 13.4-14.7 14.2-25.8.6-9.3-1-14.2-6-19.8-6.5-7.3-22.6-10.6-31-6.3a29.4 29.4 0 0 0-15.3 26.6c0 13.9 6.8 22.8 21 27.5a21 21 0 0 0 17-2.2zm108.9 24.3a74 74 0 0 1-12.5-4.3c-8.4-3.7-8.8-5.6-3.7-15.9 5.2-10.3 7.2-10.9 15.8-4.7 4.7 3.5 12.6 5.8 16.2 4.9a23 23 0 0 0 6-3.5c2.7-2.3 3.2-3.4 3-6.5-.5-5-3.1-6.8-17.3-12-12.8-4.6-17.4-7.6-21.1-13.6-2.1-3.4-2.5-5.4-2.5-13.6 0-7.8.4-10.5 2.4-14.5a36 36 0 0 1 14.5-15.1c9.1-4.9 40.7-2.4 46.2 3.7 1.9 2 1.8 2.4-2.3 10.1-2.3 4.4-5 8.4-6 9-1.3.6-3.8 0-8.4-2.2-7.7-3.6-12.8-3.6-16.6 0a7.2 7.2 0 0 0 0 11 34 34 0 0 0 10.4 4.8c9.8 3.2 17.6 7 21.4 10.6 7 6.6 8.2 24.5 2.3 36.2-7.2 14-27.2 20.6-47.8 15.6zm91.1.1c-10.7-3-21-10.8-24.1-18.2-3-7.1-4.5-21.7-5.3-50-1-35-1.9-32.6 13.2-32.5 5.7 0 11 .4 12 1 1.3.8 1.5 5.9 1.5 33.3 0 28.6.2 32.7 1.9 35.7 5.4 10 20 11.8 28 3.6 4.2-4.4 5.2-14.3 4.4-44.5l-.6-24.8 2.8-2.2c2.4-1.9 4.3-2.2 13.8-2.2h11v21.1a891 891 0 0 1-.9 36c-.7 12.8-1.2 15.8-3.6 21a44 44 0 0 1-19.7 20.3c-6 3-8 3.4-17.7 3.7a59 59 0 0 1-16.7-1.3zM252 1210v-50.8l23.7.5c28 .7 32.7 1.7 39.7 8.7a33 33 0 0 1 3.8 39.4 17.3 17.3 0 0 1-9 7.6c-3.7 1.6-6 3.3-6 4.3s6 9 13.4 17.9c16.9 20.5 17.2 23 3.2 22.6l-12.6-.4c-6.5-.1-7.6-1.3-17.8-18.5l-9.3-15.5c-.8-1.3-2.4-2.4-3.6-2.4-2 0-2 .8-2 18.7v18.7H252zm33.8-5.2c7.2-2.2 11-6.5 11-12.8 0-6.2-3-9.7-9.9-11.7-10.7-3.2-10.4-3.5-10.4 11 0 8.3.4 13 1.3 13.8 1.6 1.6 1.5 1.6 8-.3zm58.3 54.8-4.4-1-.6-9.8c-.4-5.3-.7-27.3-.7-48.9v-39.1l2.4-.7c1.3-.3 7-.6 12.8-.6H364v100.2h-2.4c-1.4 0-4.8.2-7.8.5s-7.3 0-9.7-.6zm386.8.1c-2.6-.5-5.8-1.2-7-1.6-1.4-.4-2.7-.2-3 .4-.5.8-5.8 1.2-14.4 1.2h-13.7l-9.8-16.3c-5.4-8.9-11-17.7-12.5-19.4l-2.7-3.2.4 19.2.3 19.2-12.5.3-12.6.3v-43c0-23.6-.3-46.3-.7-50.3l-.7-7.4 24.5.6c27.2.7 33 1.7 39.4 7.4 2 1.9 5 5.8 6.6 8.8 2.4 4.6 2.8 6.8 2.8 14.5s-.4 9.8-2.8 14.5c-3.2 6.3-8.4 11-11.9 11-1.3 0-3.3.7-4.4 1.6-2 1.4-1.8 1.7 2.5 7.5 6.6 8.7 22.7 27.2 23.7 27.2.4 0 2.1-3.2 3.7-7.2 3-7.3 26.3-68.6 30.1-79.2l2.2-5.8h29.3l3.2 9a3303 3303 0 0 0 29.7 79.4c4.6 10.8 4.6 10.9-5 11.7-4.6.4-10.7.7-13.8.7h-5.5l-2.3-8c-1.6-5.3-3-8.4-4.5-9.1-1.1-.6-8.5-1.4-16.2-1.7-17.7-.7-18.6-.3-22 9.4-1.4 4.2-3.2 7.4-4.3 7.7a45.4 45.4 0 0 1-16.1.6zm49.4-37.3c2.5-.9 2.6-1.3 1.7-5-2.1-8.6-8-25.3-9.1-25.7-1.4-.4-3.1 3.6-4.6 10.6-.6 2.8-2.3 7.8-3.8 11.1-3.3 7.4-3.3 8.7-.3 9.3 4.6.9 13.5.7 16.1-.3zm-101.6-18.2a12.9 12.9 0 0 0 8.5-18.5c-2-2.4-8.1-5.5-12.5-6.3-5.6-1-6.7 1-6.7 11.9 0 14.7.8 15.7 10.7 13zM840 1260l-9.7-.4-.7-20.9c-.4-11.5-.7-34-.7-50.1v-29.2h26.4L872 1181a1815 1815 0 0 1 22.8 30.5l6.3 8.8.9-3.5c.4-2 .7-15.5.5-30.2l-.3-26.6 13.6-.3 13.6-.3-.3 50.4-.2 50.4-13 .3-12.8.3-17-22.1a599.2 599.2 0 0 0-31.2-39.8c-.3 0-.2 14 .3 31l.7 30.9-3-.2c-1.6-.2-7.3-.4-12.7-.6zm736.7-50.5v-50.1l13.5.3 13.6.3-.3 39.1-.4 39.2 15.6-.7 15.6-.6v22.7h-57.6zM.2 1209.1v-49.8l24.8.3 24.8.4 6 3a55.7 55.7 0 0 1 27.3 28.7 78.2 78.2 0 0 1 0 34.7c-4.2 11.9-16 24-28.5 29.1-5.3 2.2-8.1 2.5-30.1 3l-24.3.4zm41.4 25.8a24 24 0 0 0 15.7-16.2 31.3 31.3 0 0 0-2.3-24.2c-4.6-8.4-10.7-11.7-26.2-14.2l-4-.7v28.7c0 15.8.3 29 .7 29.4 1.1 1.1 9.6-.4 16.1-2.8zm900.5-25.8v-49.8l24.9.3 24.8.4 8.3 4a50 50 0 0 1 27.4 34.7c1.7 8 .7 20.6-2.2 28.3a55.8 55.8 0 0 1-18.1 23.2c-9.7 6.6-14.5 7.6-41.4 8.2l-23.7.5zm40.7 26.6a25 25 0 0 0 15.1-12.1c8.7-16 1.1-36.5-15.3-41-3.2-1-7.8-1.9-10.3-2.2l-4.4-.5-.4 27.4c-.2 15 0 28 .6 28.7 1.3 1.8 9 1.6 14.7-.3zm57.4-26.7v-49.6h56.6v21.4h-32v17h30l-.4 10.4-.3 10.4-14.7.3-14.6.3v17h32v22.4h-56.6zm104.6.2v-49.8h22.7c25.6 0 30.2.9 40 7.1a49.1 49.1 0 0 1 23.4 46.6 50.7 50.7 0 0 1-21 37.1c-10.1 6.9-13.7 7.6-40.9 8.2l-24.2.5zm40 26.5a23.8 23.8 0 0 0 15.8-12.2 28.5 28.5 0 0 0-4.7-34.4c-5.3-5.2-11-7.5-21-8.7l-4.5-.5v58.7l4.5-.7c2.5-.4 7-1.4 9.9-2.2zM30 1124.9c-12.7-3.4-23.9-12.6-27.2-22.3-1.7-4.8-2-10.5-2.4-41.5l-.5-36 3-.7c3.4-.9 7.1-1 17.2-.7l6.7.3v33.8c0 32 .1 34.1 2.1 37.4 5.8 9.4 19.9 10.4 27.8 1.9 2.5-2.7 2.7-3.7 3.3-19.6.4-9.2.8-25 .8-35.1l.1-18.4h25.8l-.4 36c-.5 41.2-.7 42.3-9.4 51.8a43.2 43.2 0 0 1-21.9 13c-7.4 1.9-18.3 2-25 .1zm517.3 0c-14-3.2-20.2-7-20.2-12.5 0-5 4.8-13.6 8-14.4 4.3-1 9.2.2 15.2 3.9 4.6 2.8 6.2 3.3 9.5 2.8 4.7-.8 8.8-3.5 11-7.4 3-5.3-2.7-10-18.5-15.3-16-5.5-21.8-11.6-22.8-24.3a31.8 31.8 0 0 1 25.7-34.8c11.9-2 32.7 1.8 36.7 6.6 2.6 3.2-3.7 18.1-8.1 19.3-1.3.3-3.7-.5-6.1-2.3-7.1-5-18.1-3.3-20.8 3.2-1.1 2.7-1 3.4.7 5.4 2.5 2.8 9.7 6.3 18.7 9.3 15.8 5.2 21.5 12.3 21.6 26.8 0 17.7-8.6 29.2-25.2 33.7a60.5 60.5 0 0 1-25.4 0zm-385.6-21.7a813.8 813.8 0 0 1-21.2-28.9c-4.6-6.9-9.3-11.1-10.7-9.7-.3.3 0 4.8.5 10 .5 5.3 1 18.4 1 29.1v19.5h-26.6v-99.3l13.5.3 13.6.3 18 23.5a1229 1229 0 0 1 21.9 29.3c2.2 3.2 4.8 6 5.8 6.2 1.8.4 1.9-1 1.3-24.5-.3-13.7-.9-27.2-1.1-30l-.6-5H204v32.3c0 17.8.3 40.4.7 50.2l.7 17.7h-27.6zm137.8 20.1c-2.7-.6-3.5-1.8-7-11.3-4-10.7-17.5-42.9-29.8-71.8a357 357 0 0 1-6.6-15.7c0-.3 6.6-.5 14.6-.3l14.6.3 6.4 16.5c3.5 9.1 7.5 20 8.9 24a62.9 62.9 0 0 0 7.8 17.6c1 0 4.6-8 8.6-19.2l6.9-18.8c2-5.4 4.8-12.1 6.3-15l2.7-5.4 9-.8c10-.8 13.5-.3 16 2.2 1.4 1.5 1.5 2.2.2 5.1-10.3 24.5-36.2 85.3-37.4 88-1 1.9-2.9 4-4.4 4.5-3 1.1-12 1.2-16.8.1zm68.6-48.7V1025h56.6v20.3h-32v18l14.6.4 14.7.3v20.2l-14.7.3-14.6.3v17h32v22.4h-56.6zM439 1123c-.5-.7-.7-23-.4-49.9l.6-48.5 23 .2c32 .2 38.6 2.2 45.2 14.3a39.2 39.2 0 0 1 2.8 25c-2 7.4-7.2 14.2-12 15.6-5.4 1.6-6.9 3.4-5.5 6.5.6 1.3 6.7 9.1 13.5 17.3 9.2 11.1 12.4 15.7 12.4 18v2.8h-12.1c-18.4 0-17.1.7-25.9-13.7-4.1-6.8-9-15-10.6-18-1.7-3-3.6-5.4-4.2-5.2-.6.2-1 7-1 17.6 0 14.2-.3 17.4-1.6 18.3-2.5 1.6-23 1.3-24.2-.3zm35.3-54.2c2.3-.7 5.8-2.8 7.7-4.7 7-7 3.4-15.9-7.6-19.3-8.4-2.7-8.7-2.3-9.3 9.6-.9 16.3-.4 17 9.2 14.4zm137.1 4.9V1023h26.7v101.2h-26.7zm45.9.8v-49.9l10.4.3 25.3.5c14.6.3 15.1.4 21.8 3.9a53.2 53.2 0 0 1 26.1 30 64.8 64.8 0 0 1-.4 31.5 49.1 49.1 0 0 1-24.6 28.2c-7.5 3.8-19.5 5.3-41.8 5.3h-16.8zm39 27a25.9 25.9 0 0 0 19.7-26.7c0-17-9.2-26.1-29.1-29l-5-.6v27.2c0 15 .2 28 .6 29 .8 2.1 6.8 2.1 13.9 0zm48.5 21.3c-1-1.2-.8-2.4 1-5.7 2.7-5.4 12-29 24.9-62.6l10.9-28.6c.6-1.6 2.4-1.8 14.8-1.8h14.1l14.3 38.1c7.8 21 16 42.7 18.4 48.2 5.6 13 5.5 13.3-8.5 13.7-14.5.4-15.5 0-18.1-9l-2.2-7.3h-36.9l-2.6 7.6c-3 9-3 9-19 9-7.2 0-10.1-.5-11-1.6zm60-36c1.8-1.3 1.7-2.2-1.8-12.4-2-6-4-12.9-4.4-15.3-.6-3.8-1-4.1-2.3-2.8a184 184 0 0 0-10.6 28.2c-.7 2.8.7 3.3 10.3 3.5 4.2 0 7.8-.5 8.9-1.3zm52-12V1025l25.3.3 25.3.4 7.5 3.6c31 15.1 38 56.1 13.7 80.5-11.5 11.5-18.2 13.5-49.2 14.2l-22.6.6zm40.4 26.3c16.8-5.2 24.1-24.9 15.3-41-4.3-7.9-12.2-12.4-24.5-14.1l-5.5-.8-.3 27.6c-.2 15.1 0 28.1.5 28.9 1.4 1.9 7.5 1.6 14.5-.6zm59.8-26.4V1025h57.6v20.3h-32v18.1h28.8v21.4h-28.8v17h32v22.4H957zm113 15.8c0-18.8.4-41.4.8-50.3l.7-16.1h56.2v21.1l-3.9.7a96 96 0 0 1-15.5 0l-11.5-.8v8.1c0 10.6.4 10.8 16.6 9.8l12.2-.7v22.6h-27.8v18c0 15.4-.2 18.2-1.7 19.4-1.2 1-5.7 1.6-13.9 1.9l-12.1.3zm71.6-15.8V1025h56.5v20.3h-32v18.1h30l-.4 10.4-.3 10.4-14.6.3-14.7.3v17h32v22.4h-56.5zm70.4.1V1025l24.8.3 24.8.4 7.1 3.4a52 52 0 0 1 26.4 28.5 58 58 0 0 1 .2 33 50.6 50.6 0 0 1-21.4 26.8c-7.7 4.8-14.8 6-39.3 6.7l-22.6.5zm41 26c11.9-4.5 17.6-13 17.6-26 0-17-9.1-26.1-29-29l-5.1-.6v27.6c0 20 .3 28 1.3 29 2 1.9 8.6 1.5 15.2-1zm59.2-26V1025h56.6v20.3h-32v18.1h30l-.4 10.4-.3 10.4-14.7.3-14.6.3v17h32v22.4h-56.6zm72.3 48.8c-1.7-.4-1.9-3.7-1.9-50V1024h14.7c19.3 0 38 1.7 42.2 3.8a29.9 29.9 0 0 1 15.7 27.5c0 12-4.3 19.8-13.8 24.8-3.3 1.7-6 3.6-6 4.3 0 1 22.9 29.9 27.1 34.2.8.8 1.8 1.1 2.3.6 1.4-1.5 12.3-28.8 24-60 6.2-16.7 11.8-31.2 12.3-32.2.6-1 2-2.2 3.4-2.6 3.1-1 21.7-.5 24.7.6 2 .8 5 8 17 40.2l17.3 46a38 38 0 0 1 2.6 9.9v3.1h-11c-15.5-.2-15.5-.2-18.2-9l-2.4-7.5-18.2-.3-18.2-.3-2.6 7.3c-1.8 5-3.4 7.6-5.2 8.5-1.9 1-10 1.2-30 1-26-.2-27.5-.3-29-2.3a300 300 0 0 1-9.8-16c-11.4-19.3-11-18.7-13-18.7-1.3 0-1.5.8-1 5 .5 2.9 1 11 1.4 18l.7 13-2.5.6c-2.9.8-19.7.8-22.6 0zm139.4-36.8c3.1-1.4 3-2-1.7-15-1.7-4.7-3-9.5-3-10.7 0-1.3-.6-3-1.1-4-1-1.3-1.3-1.3-2.7.5-.8 1-2.3 4.7-3.2 8a116 116 0 0 1-3.8 11c-3 7.2-2.7 10.2.9 10.7 6 1 12 .7 14.6-.5zm-103.2-18.6c7.4-3.5 10.2-13.5 5.4-19-2.5-2.9-14.3-6.7-15.9-5.2-.6.7-1.4 20-1 25.1.1 1.5 7.7.9 11.5-1zm160 55.4-4-.5v-99h25.8v76.8h30.6l.7 7.2.7 11.7v4.5l-24.8-.1a684 684 0 0 1-28.8-.6zm-1358.6-50V1024h26.7v99.2H222Zm-70.4-187.8a309 309 0 0 1-44.3-5.2c-42.3-9.1-76.3-32.8-92.7-64.6-5-9.6-8-19.5-11-36.2-1.5-9-1.7-23.8-2-124l-.5-113.9H62c33.5 0 61 .2 61.1.3.1.2.5 48 .8 106.4l.6 106.1 2.5 5.6c6.7 14.9 24.7 21.9 42.5 16.5 9-2.8 15.7-8.2 19.1-15.6l2.5-5.4v-70c0-38.4.4-86.5.8-106.9l.7-37h120.3l-.4 114.4C312 770 312 770.7 309.8 781c-13.2 57.7-54.3 93.5-117.7 102.6a258.1 258.1 0 0 1-40.4 2.1zm964.3-1.6a199 199 0 0 1-62.4-18.6 158.9 158.9 0 0 1-77.9-81.6c-26.4-62.4-15.2-141 26.9-187.7a162 162 0 0 1 52-39c29.7-14.5 54.2-19.6 93.3-19.6 37.9 0 67.5 6.5 97.2 21.3a165 165 0 0 1 44.4 32.3c16.1 15.8 21.9 23.3 22 29l.2 4-23 8.4a3917 3917 0 0 0-70.6 26.3l-17.8 7-8.3-8.4a50.2 50.2 0 0 0-28.5-16.5 66.7 66.7 0 0 0-65 29.7c-8.8 13.2-12.4 27.1-12.4 47.5 0 14.4 1.8 23.5 6.7 34a60.8 60.8 0 0 0 57.3 37.4 52 52 0 0 0 45.2-23.2l2.8-4.3-2.4-.7c-1.3-.4-14-.7-28.3-.8h-25.8v-80l94.6-.3c52-.2 95 0 95.4.2.4.3.3 9.7-.2 20.8-2.7 57.3-10.2 84-31 111.8-28.2 37.5-75.4 64-126.4 70.6-13.2 1.7-46 2-58 .4zm345 .6a322 322 0 0 1-64.8-14.7c-16.2-5.5-33.9-13-35.1-14.8-1.9-3-.8-11.1 2.7-19.5 5.3-12.5 10.2-24 12.4-28.8 1-2.3 3.9-10.5 6.4-18a149 149 0 0 1 7.2-19c3.5-6.5 7.4-10.2 9.2-8.8l10 7.5a130 130 0 0 0 51 23 143 143 0 0 0 20.3 1.4c13.2 0 14.1-.1 17.9-2.6 8.4-5.7 12.8-17.8 8.8-24-3.7-5.7-6.6-6.7-39-13.4a703.2 703.2 0 0 1-28.4-6.5c-28.6-7.8-49.3-22.8-60-43.6-17.8-34-13.1-78.3 11.5-111 18.5-24.6 51.4-43.9 87-51a193 193 0 0 1 128.4 17.5l14.3 7-.6 5a251 251 0 0 1-16.1 40.8 95.4 95.4 0 0 0-5.4 15.4c-3.4 13-6.6 19.7-10.8 22l-3.2 2-10.5-6.4a108.5 108.5 0 0 0-51.7-17c-13.6-1-17.6-.3-22.7 4-9.7 8.1-9.4 21.6.5 25.8a240 240 0 0 0 23.1 5.9c39 8.3 50.7 12 65.5 20.7a84.3 84.3 0 0 1 39.5 50.5c8.3 28.8 4.6 60.8-10.2 86.3a132.4 132.4 0 0 1-73 56.8c-17.7 5.8-27.7 7.2-55.4 7.6-14 .2-27 .1-28.8-.1zM848.8 880c-20-.3-36.4-.7-36.6-.8a1871.2 1871.2 0 0 1-46-97.2c-3.7-9-4.6-10.6-6.1-11.2-1.2-.4-1.5 8.5-1.5 54.4V880H639.2v-81c0-44.4-.4-120.5-.7-169l-.8-88.4 89.6.6c57.6.3 92.5.9 98 1.7 26 3.6 50.8 16.3 70.5 35.8a99 99 0 0 1 28 50.3c2.8 13 2.5 45.8-.6 58.2-5.9 23.2-17.8 39.8-35 48.6-2.9 1.5-10.3 4.5-16.4 6.6a43.2 43.2 0 0 0-11.6 5c-.2.7 2 2.8 4.8 4.7a57 57 0 0 1 17.3 17.5c14 19.5 73.6 108.7 73 109.5-.6 1-47.9 1-106.5-.2zM778 691.7c11.5-1.5 13.8-2.2 19.3-6.3 11-8.1 12.4-29.5 2.6-40.6-7.2-8.2-10.8-9.5-27.2-10l-14.2-.4v58.9h4c2.2 0 9.2-.7 15.5-1.6zM370.4 711V542h225v96H494.1v35h89.6v88.6H494V880H370.4zM701 521.3c-6.4-3.2-9.6-8.2-9.6-14.9 0-6.2 1.8-10 6.9-14.5 6.5-5.7 14.8-5.5 22 .6 9.7 8.1 8 22.8-3.2 28.7-5.9 3.1-10 3.2-16.1.1zm51.7 1a22 22 0 0 1-10.7-13 18.6 18.6 0 0 1 10.7-19.8c5.5-2.5 8.5-2.5 14.1 0 8.8 4 13.2 15.1 9.1 23-4.8 9.5-14.5 13.5-23.2 9.7zm49 0a22 22 0 0 1-10-12c-2.7-8.1 3.8-19.2 12.8-22 10.4-3 22.4 6.4 22.4 17.8 0 12-14 21-25.1 16.1zm-91-54.1a807.8 807.8 0 0 1-176-33c-25.2-7-39.5-12.3-41.2-15-.7-1.2 522-1.2 527 0 3.1.8 3 .8-3.7 4-7.6 3.6-17.8 6.8-47.5 15.1a780.5 780.5 0 0 1-144 27.4c-20.2 2-94.3 3-114.7 1.5zm65.9-57c-1-1 .1-3.8 1.7-3.8 2.7 0 20.6-9.5 27-14.2 38.2-29 53-89.5 32.4-132.4a88 88 0 0 0-8.9-14.4C809 222 801 199 803.6 174.4a85.9 85.9 0 0 1 66.5-73.2c12.4-3 24.3-3.3 24.8-.8.3 1.2-1.7 3.2-6 6.1-12.6 8.6-18.3 18-19.1 31.7-1 17.3 4 26.4 27.1 50.7 16.5 17.2 20 22.1 25 34.3 17.4 43.7 9.3 97-20.6 136a129.8 129.8 0 0 1-83.5 49.3c-12.6 2.2-40 4-41.2 2.7zm-26-2.8c-.4-.6.3-1.4 1.5-1.7 1.2-.3 2.4-1.7 2.8-3.4 2-9-7.4-54.5-13.7-67-6.5-12.8-18-24.6-37.2-38.1a282.1 282.1 0 0 1-38.2-30.6c-55-54.9-64-133.8-22.5-195.8A161 161 0 0 1 749 1.5c20.6-3.4 65.4-.7 80.2 4.8 5.6 2.1 10.4 5.8 9.2 7-.3.3-3.3 1.3-6.8 2.2a112.3 112.3 0 0 0-66.7 51.1 155.1 155.1 0 0 0-20.1 74.7 91 91 0 0 0 4.9 32.7 71 71 0 0 0 18.2 29c28.6 30.4 45.6 61 51 91.8 2.1 12.4 2 31.7-.1 41.4a101 101 0 0 1-55 66.5 36 36 0 0 0-9.4 5.8c0 1.4-3 1.4-3.8 0zm-25.4-8.8c-2.5-2.5-6.1-7-8.2-9.8a69.8 69.8 0 0 0-35.7-23.7c-3-.7-11.6-1.5-19.2-1.9a235 235 0 0 1-22.7-2.2c-22.5-3.9-47.7-15.2-60.4-27a121 121 0 0 1-32.1-52 140 140 0 0 1-3.8-47 117 117 0 0 1 35.7-68c8.7-8.6 21.7-18.7 24.2-18.7 1.8 0 1 2.9-3.4 12.2a112 112 0 0 0-10.2 42.2 89.6 89.6 0 0 0 41.7 83c4.1 2.7 19.5 11 34.2 18.2 29 14.3 41 21.5 48.7 29.3 13 13 20 32.9 20 56.6 0 15-1.5 16.5-8.8 8.8z"/>
</svg>
